<svg xmlns="http://www.w3.org/2000/svg" width="200" height="200" viewBox="0 0 52.917 52.917"><defs><path id="a" d="M-48.175 18.989h46.117v15.996h-46.117z"/></defs><rect width="52.917" height="52.917" x="-249.804" y="91.409" rx="3.969" ry="3.969" style="fill:#222;fill-opacity:1;fill-rule:nonzero;stroke:none;stroke-width:.5;stroke-linecap:butt;stroke-linejoin:round;stroke-miterlimit:4;stroke-dasharray:none;stroke-dashoffset:0;stroke-opacity:.909449;paint-order:normal" transform="translate(249.804 -91.41)"/><g style="display:inline"><path d="M-244.513 94.055h42.334a2.64 2.64 0 0 1 2.645 2.646v42.333a2.64 2.64 0 0 1-2.645 2.646h-42.334a2.64 2.64 0 0 1-2.646-2.646V96.701a2.64 2.64 0 0 1 2.646-2.646z" style="fill:#000;fill-opacity:1;fill-rule:nonzero;stroke:none;stroke-width:.5;stroke-linecap:butt;stroke-linejoin:round;stroke-miterlimit:4;stroke-dasharray:none;stroke-dashoffset:0;stroke-opacity:.909449;paint-order:normal" transform="translate(249.804 -91.41)"/><path d="M-244.513 94.055h42.334c.732 0 1.394.295 1.872.774l-46.852 33.622v-31.75a2.64 2.64 0 0 1 2.646-2.646z" style="fill:red;fill-opacity:1;fill-rule:nonzero;stroke:none;stroke-width:.5;stroke-linecap:butt;stroke-linejoin:round;stroke-miterlimit:4;stroke-dasharray:none;stroke-dashoffset:0;stroke-opacity:.909449;paint-order:normal" transform="translate(249.804 -91.41)"/><path d="m15.74 18.337 9.534-.655-.187 10.176-9.066-.749z" style="fill:red;fill-opacity:1;stroke:none;stroke-width:1.265;stroke-linecap:round;paint-order:stroke fill markers"/></g><g style="display:inline"><path d="M-248.35 128.451v8.335a5.544 5.544 0 0 0 5.557 5.556h38.894a5.544 5.544 0 0 0 5.556-5.556v-8.335z" style="fill:#222;fill-opacity:1;fill-rule:nonzero;stroke:none;stroke-width:.5;stroke-linecap:butt;stroke-linejoin:round;stroke-miterlimit:4;stroke-dasharray:none;stroke-dashoffset:0;stroke-opacity:.909449;paint-order:normal" transform="translate(249.804 -91.41)"/><path d="M25.29 5.618c2.218-.523 4.586-.775 6.752.111 1.863.464 3.491 1.472 4.461 3.16 1.425 1.808 2.399 3.955 2.706 6.242.565 3.149.673 6.36 1.102 9.528.225 3.939-.697 7.868-.486 11.8-.58 1.873-2.636.635-3.238-.557-1.398-1.434-1.697 1.712-3.072 1.849-1.663.74-1.594-2.742-3.092-1.799-.747 1.198-2.41 2.838-3.884 1.867-.852-.635-2.148-3.217-3.049-1.568-.621 1.531-2.703 2.076-3.769.662-.86-.911-2.15-3.18-3.447-1.531-.887.924-2.233 2.521-3.599 1.496-.222-1.681-1.537-.262-2.397-.691-.53-1.897-.258-3.944-.31-5.896.44-4.548-.547-9.36 1.376-13.679 1.39-3.506 3.713-6.72 6.978-8.69 2.042-1.493 4.58-1.73 6.968-2.306m-2.448 21.026c2.046-.629 1.752-3.16 1.508-4.823-.055-1.923-1.934-3.3-3.798-2.855-2.393.24-4.406 2.775-3.664 5.166.504 2.178 3.177 3.071 5.185 2.675a5.44 5.44 0 0 0 .77-.163m12.28.59c1.886-.264 2.552-2.41 2.375-4.06.156-2.043-1.627-3.783-3.666-3.449-1.425.12-3.202.16-3.92 1.641-1.062 1.947-.76 5.018 1.444 6.037 1.198.46 2.537-.054 3.767-.169" style="display:inline;fill:#222;fill-opacity:1;stroke-width:1"/><g aria-label="ACTIVE" style="font-style:normal;font-weight:400;font-size:10.5833px;line-height:1.25;font-family:sans-serif;white-space:pre;shape-inside:url(#a);fill:#000;fill-opacity:1;stroke:none" transform="translate(54.68 18.974)"><path d="M-42.418 27.13h-3.44l-.656 1.587h-1.757l3.302-7.408h1.693l3.313 7.408h-1.8zm-.54-1.302-1.175-2.836-1.175 2.836zm7.207 3.016q-1.132 0-2.053-.487-.91-.497-1.44-1.365-.518-.878-.518-1.979 0-1.1.519-1.968.529-.879 1.439-1.366.92-.497 2.064-.497.963 0 1.735.339.783.338 1.313.973l-1.101 1.016q-.752-.868-1.863-.868-.688 0-1.227.307-.54.297-.847.836-.296.54-.296 1.228t.296 1.228q.307.54.847.846.54.297 1.227.297 1.111 0 1.863-.879l1.1 1.016q-.529.646-1.312.985-.783.338-1.746.338zm5.673-6.138h-2.371v-1.397h6.456v1.397h-2.37v6.011h-1.715z" style="font-style:normal;font-variant:normal;font-weight:700;font-stretch:normal;font-family:Montserrat;-inkscape-font-specification:&quot;Montserrat Bold&quot;;fill:red;fill-opacity:1"/><path d="M-25.072 21.309h1.714v7.408h-1.714zm10.551 0-3.207 7.408h-1.693l-3.196-7.408h1.852l2.254 5.292 2.286-5.292zm6.35 6.032v1.376h-5.736V21.31h5.598v1.376h-3.894v1.608h3.44v1.334h-3.44v1.714z" style="font-style:normal;font-variant:normal;font-weight:700;font-stretch:normal;font-family:Montserrat;-inkscape-font-specification:&quot;Montserrat Bold&quot;;fill:#ccc"/></g></g></svg>