<svg xmlns="http://www.w3.org/2000/svg" width="200" height="200" viewBox="0 0 52.917 52.917"><defs><path id="a" d="M-117.6 132.748h79.326v23.199H-117.6z"/></defs><g transform="translate(98.049 -95.143)"><rect width="52.917" height="52.917" x="-98.049" y="95.143" rx="3.969" ry="3.969" style="fill:#222;fill-opacity:1;fill-rule:nonzero;stroke:none;stroke-width:.5;stroke-linecap:butt;stroke-linejoin:round;stroke-miterlimit:4;stroke-dasharray:none;stroke-dashoffset:0;stroke-opacity:.909449;paint-order:normal"/><rect width="47.625" height="47.625" x="-95.403" y="97.789" rx="2.646" ry="2.646" style="fill:#f5dd00;fill-opacity:1;fill-rule:nonzero;stroke:none;stroke-width:.5;stroke-linecap:butt;stroke-linejoin:round;stroke-miterlimit:4;stroke-dasharray:none;stroke-dashoffset:0;stroke-opacity:.909449;paint-order:normal"/><path d="M-96.594 132.185v8.335a5.544 5.544 0 0 0 5.557 5.556h38.893a5.544 5.544 0 0 0 5.557-5.556v-8.335z" style="fill:#222;fill-opacity:1;fill-rule:nonzero;stroke:none;stroke-width:.5;stroke-linecap:butt;stroke-linejoin:round;stroke-miterlimit:4;stroke-dasharray:none;stroke-dashoffset:0;stroke-opacity:.909449;paint-order:normal"/><g style="fill:#222;fill-opacity:1;stroke-width:1.17873"><path d="M-88.304 124.997c1.15.115 2.994-.387 3.616.99 1.008 1.41 2.938 1.326 4.45 1.03 1.169.014 1.64-2.195 2.674-1.101 2.101 1.264 4.694.69 6.902.042 1.106-.48 1.967 1.356 3.336.956 1.777.404 4.022.516 5.276-1.064.769-1.399 2.868-1.277 2.251.65-.29 1.944 1.587 2.185 3.054 2.05.672.713-.856 1.702-1.33 2.334-1.418 1.199-3.345 1.519-5.07 2.07-1.714.384-3.412.855-5.172.93-1.278.474-2.67.648-4.027.709-2.48-.032-4.966.067-7.442-.058-2.806-.414-5.981-1.078-7.738-3.536-.306-1.275-.18-2.761-.512-4.106-.124-.628-.105-1.276-.268-1.897" style="fill:#222;fill-opacity:1;stroke-width:1.17873" transform="translate(-9.952 19.35) scale(.84837)"/><path d="M-67.191 123.107c1.33-.421 2.445 1.032 2.183 2.244-.506 1.156-2.689.636-3.402.014-.286-.95.301-1.94 1.219-2.258m-15.657-1.883c1.27-.459 2.831.325 3.076 1.69.691 1.18.43 2.935-1.15 3.104-1.324.393-3.016-.066-3.18-1.634.025-1.081.07-2.678 1.254-3.158m20.468-1.065c1.418-.61 2.929.598 2.575 2.122.437 1.792-2.205 1.836-3.058.888-1.014-.752-.714-2.604.483-3.01m-25.496-.471c1.506-.186 3.237 1.276 2.698 2.88.262 1.727-2.227 1.799-3.06.853-.891-1.139-.698-2.779.362-3.733m20.668-1.632c1.408-.587 2.799.904 2.29 2.299-.07 1.624-2.035 1.43-3.177 1.688-1.036-1.06-.917-3.117.522-3.804l.17-.09.195-.094m-15.388-2.38c1.358-.443 3.03.885 2.49 2.348-.1 1.234.18 3.008-1.538 2.029-1.274.072-3.369-.015-3.272-1.784.062-1.209 1.21-2.266 2.32-2.594" style="fill:#222;fill-opacity:1;stroke-width:1.17873" transform="translate(-9.952 19.35) scale(.84837)"/><path d="M-70.457 115.445c1.36-.48 2.906.186 4.341.18 1.798.223 3.6.493 5.36.934 1.128.336 1.488 3.281-.266 2.428-1.272-.358-2.956 1.15-3.083-.876-1.039-1.52-3.487-1.728-4.724-.336-.728.71-.876-2.036-1.628-2.328m-4.433-.076c1.247-.127 2.745.14 3.662 1.07 1.235 1.671 1.109 3.843 1.083 5.825-.249 1.204-.532 2.87-2.081 2.926-1.746.444-4.081.83-5.327-.813-.845-.952-1.29-2.21-1.56-3.43-.157-1.517.012-3.224 1.296-4.242.775-.835 1.84-1.15 2.927-1.336m-2.802 5.596c.999-.506.912-2.293 2.2-2.753 1.21-.252 2.305-1.734.318-1.46-1.572.627-3.022 2.112-3.08 3.88.121.184.328.347.562.333m4.739 2.66c1.644-.717-.641-2.166-.771-.278.102.286.527.255.77.278m-12.813-8.511c2.058-.607 1.107.674.18 1.493-.473 1.134-.347 3.153-2.02 1.67-.379-1.122-.123-3.03 1.436-3.056l.24-.062.164-.045m5.473-.239c.958-.479 3.363.167 1.54 1.164-.556.295-1.035-.932-1.54-1.164" style="fill:#222;fill-opacity:1;stroke-width:1.17873" transform="translate(-9.952 19.35) scale(.84837)"/><path d="M-73.3 98.955c2.413-.254 4.85-.084 7.275-.134 1.547.1 2.838 1.073 4.266 1.562 1.17.578 2.024 1.534 2.785 2.561 1.276 1.284 1.893 3.031 2.946 4.479.703.997.758 2.5 1.92 3.107 1.39.031 2.694.92 2.51 2.457-.014 1.513.37 2.99.292 4.508.416 1.916.22 3.907.227 5.858-.058 1.303-1.467 1.852-2.262 2.688-1.008.825-2.117 1.682-3.52 1.398-1.488.4-2.163-.913-1.874-2.235-.047-2.543.088-5.096-.076-7.632.052-1.52-1.337-2.3-2.695-2.294-2.018-.355-4.034-.782-6.087-.868-1.408-.373-2.89-.094-4.305-.442-2.151-.165-4.344.145-6.467-.21-1.705-.167-3.446-.106-5.161-.053-1.662.411-3.814-.017-4.971 1.557-.559 1.255-.127 2.845-.573 3.955-.957 1.22-1.145 2.966-.504 4.373-.16 1.303.51 2.693.53 4.052.21 1.119.663 3.34-1.244 2.285-.987-.602-2.406-.81-3.005-1.865-.508-1.935-1.111-3.878-.952-5.902.101-1.909-.325-3.939.558-5.715.718-1.015 2.373-1.224 2.272-2.746.278-1.78 1.152-3.401 1.8-5.069.852-1.844 2.366-3.313 3.935-4.552 1.946-1.291 3.975-2.526 6.15-3.372 1.8-.487 3.535-1.175 5.374-1.525.289-.063.571-.152.857-.226" style="fill:#222;fill-opacity:1;stroke-width:1.17873" transform="translate(-9.952 19.35) scale(.84837)"/></g><g style="font-style:normal;font-weight:400;font-size:7.05556px;line-height:1.25;font-family:sans-serif;white-space:pre;shape-inside:url(#a);fill:#f5dd00;fill-opacity:1;stroke:none" transform="translate(22.08 2.367)"><path d="M-113.761 138.174h-2.293l-.438 1.059h-1.171l2.201-4.94h1.13l2.208 4.94h-1.2zm-.36-.867-.783-1.891-.784 1.89zm7.041-3.013v4.939h-.938l-2.463-2.999v2.999h-1.128v-4.94h.945l2.455 3v-3zm2.194.931h-1.58v-.931h4.304v.931h-1.58v4.008h-1.144zm3.338-.931h1.143v4.939h-1.143zm2.095 2.512h1.997v.882h-1.997zm7.473-2.512v4.939h-1.144v-2.025h-2.244v2.025h-1.143v-4.94h1.143v1.948h2.244v-1.947zm3.562 5.023q-.769 0-1.39-.331-.614-.332-.966-.91-.346-.586-.346-1.313 0-.726.346-1.305.352-.586.966-.917.621-.332 1.39-.332.77 0 1.383.332.614.331.967.917.352.579.352 1.305 0 .727-.352 1.313-.353.578-.967.91-.614.331-1.383.331zm0-.973q.438 0 .79-.198.353-.204.55-.564.205-.36.205-.819 0-.458-.204-.818-.198-.36-.55-.558-.353-.204-.79-.204-.438 0-.791.204-.353.198-.557.558-.198.36-.198.818 0 .459.198.819.204.36.557.564.353.198.79.198zm6.71.889-.953-1.376h-1.051v1.376h-1.143v-4.94h2.138q.656 0 1.136.22.487.218.748.62.26.403.26.953 0 .55-.267.952-.261.396-.748.607l1.108 1.588zm-.021-3.147q0-.416-.268-.635-.268-.226-.783-.226h-.932v1.722h.932q.515 0 .783-.226t.268-.635zm6.589-1.792v4.939h-.938l-2.462-2.999v2.999h-1.129v-4.94h.945l2.456 3v-3zm3.543 3.189v1.75h-1.143v-1.764l-1.912-3.175h1.213l1.32 2.194 1.319-2.194h1.122z" aria-label="ANTI-HORNY" style="font-style:normal;font-variant:normal;font-weight:700;font-stretch:normal;font-size:7.05556px;font-family:Montserrat;-inkscape-font-specification:&quot;Montserrat Bold&quot;;fill:#f5dd00;fill-opacity:1"/></g></g></svg>