<svg xmlns="http://www.w3.org/2000/svg" width="200" height="200" viewBox="0 0 52.917 52.917"><defs><path id="a" d="M-298.223 119.323h73.554v25.003h-73.554z"/></defs><g transform="translate(249.804 -91.41)"><rect width="52.917" height="52.917" x="-249.804" y="91.409" rx="3.969" ry="3.969" style="fill:#222;fill-opacity:1;fill-rule:nonzero;stroke:none;stroke-width:.5;stroke-linecap:butt;stroke-linejoin:round;stroke-miterlimit:4;stroke-dasharray:none;stroke-dashoffset:0;stroke-opacity:.909449;paint-order:normal"/><rect width="47.625" height="47.625" x="-247.159" y="94.055" rx="2.646" ry="2.646" style="fill:#7f00ff;fill-opacity:1;fill-rule:nonzero;stroke:none;stroke-width:.5;stroke-linecap:butt;stroke-linejoin:round;stroke-miterlimit:4;stroke-dasharray:none;stroke-dashoffset:0;stroke-opacity:.909449;paint-order:normal"/><path d="M-248.35 128.451v8.335a5.544 5.544 0 0 0 5.557 5.556h38.894a5.544 5.544 0 0 0 5.556-5.556v-8.335z" style="fill:#222;fill-opacity:1;fill-rule:nonzero;stroke:none;stroke-width:.5;stroke-linecap:butt;stroke-linejoin:round;stroke-miterlimit:4;stroke-dasharray:none;stroke-dashoffset:0;stroke-opacity:.909449;paint-order:normal"/><g style="font-style:normal;font-weight:400;font-size:8.46667px;line-height:1.25;font-family:sans-serif;white-space:pre;shape-inside:url(#a);fill:#7f00ff;fill-opacity:1;stroke:none" transform="translate(51.005 11.256)"><path d="M-293.168 124.022q.508.16.796.542.288.372.288.923 0 .779-.61 1.202-.601.415-1.761.415h-3.065v-5.927h2.896q1.083 0 1.66.415.583.415.583 1.126 0 .432-.211.77-.204.34-.576.534zm-2.989-1.812v1.397h1.363q.508 0 .77-.178.263-.177.263-.525 0-.347-.262-.516-.263-.178-.77-.178zm1.6 3.861q.542 0 .813-.178.28-.178.28-.55 0-.737-1.093-.737h-1.6v1.465zm8.103-.068v1.1h-4.589v-5.926h4.479v1.1h-3.116v1.288h2.752v1.067h-2.752v1.371zm6.528-4.826v5.927h-1.372v-2.43h-2.692v2.43h-1.372v-5.927h1.372v2.337h2.692v-2.337zm5.308 4.657h-2.751l-.525 1.27h-1.406l2.642-5.927h1.355l2.65 5.927h-1.44zm-.431-1.041-.94-2.27-.94 2.27zm8.39-3.616-2.565 5.927h-1.355l-2.557-5.927h1.482l1.803 4.234 1.829-4.234zm.491 0h1.372v5.927h-1.372zm8.213 0v5.927h-1.126l-2.955-3.598v3.598h-1.355v-5.927h1.135l2.946 3.599v-3.599zm5.41 2.87h1.253v2.405q-.483.364-1.118.559-.635.195-1.278.195-.923 0-1.66-.39-.736-.398-1.16-1.092-.414-.703-.414-1.583t.415-1.575q.423-.703 1.168-1.092.745-.398 1.676-.398.78 0 1.414.262.635.263 1.067.762l-.88.813q-.635-.669-1.533-.669-.567 0-1.007.237-.44.237-.686.669-.246.432-.246.99 0 .55.246.983.245.432.677.677.44.237 1 .237.592 0 1.066-.254z" aria-label="BEHAVING" style="font-style:normal;font-variant:normal;font-weight:700;font-stretch:normal;font-size:8.46667px;font-family:Montserrat;-inkscape-font-specification:&quot;Montserrat Bold&quot;;fill:#7f00ff;fill-opacity:1"/></g><g style="fill:#222;fill-opacity:1;stroke-width:1.20721"><path d="M150.514 251.876c1.03-.032 2.032.93 3.048 1.275 1.518.683 3.059 1.314 4.668 1.75 2.547.59 5.114 1.166 7.657 1.793 2.494.38 4.967.993 7.512.84 1.084.028 2.177-.07 3.252.088-.661.916-1.418 2.382-2.545 2.456-7.39-.038-11.706-1.485-18.83-2.43-5.097-1.196-5.734-3.42-4.762-5.772m25.188-8.466c1.05-.222 3.247-.453 3.502 1.009.467 1.994.305 4.062.283 6.091.033 1.453-.623 2.421-2.21 1.995-.706-.024-2.406.259-1.797-.947.578-1.577.248-3.29.336-4.934.007-1.075.016-2.152-.113-3.215m-5.319-.235c1.27-.32 3.055-.247 4.073.466.534 1.498.214 3.134.3 4.697.08 1.374-.178 2.768-.87 3.968-1.381.305-2.908-.086-4.313-.295-1.617-.071-.173-2.346-.107-3.327.491-1.377.569-2.835.777-4.267.038-.412-.038-.854.14-1.24m-4.819-.53c1.079-.197 2.852-.07 3.72.344a34.016 34.016 0 0 1-1.086 6.155c-.053 1.444-.918 2.909-2.513 1.981-.88-.352-3.185-.624-2.093-2.002 1.245-1.947 1.55-4.25 1.973-6.479m-4.253-.783c.942.26 3.317-.206 2.975 1.356-.383 2.142-.798 4.472-2.33 6.119-1.074-.075-2-.94-2.917-1.455.577-1.78 1.873-3.297 2.034-5.223.067-.27.15-.534.238-.797m-3.733-.786c1.082-.107 3.199.146 2.331 1.762-.37 1.529-1.14 2.953-1.972 4.267-1.215-.64-2.598-1.975-2.054-3.496.114-1.085.835-1.928 1.695-2.533" style="fill:#222;fill-opacity:1;stroke-width:1.20721" transform="rotate(-7 -738.185 3101.73) scale(.82835)"/><path d="M144.64 219.44c3.55.525 11.284 2.57 14.085 4.556 1.275.576 2.128 1.849 2.656 3.1.569 1.218-.265 2.319-.411 3.32.738.736 2.064.272 3.072.396 1.715.061 3.46-.152 5.149.174 1.976.763 4.028 1.603 5.434 3.265 1.695 1.723 2.723 3.978 3.536 6.221.274.805.916 2.38-.598 1.757-1.68-.135-3.389.13-5.039-.272-1.164-.004-2.313-.053-3.46-.25-1.426-.023-2.813-.375-4.242-.35-2.283-.491-4.58-.912-6.844-1.489-1.213-.18-1.885 1.116-2.643 1.84-.625 1.184-.982 2.78-.399 4.036.947 1.76 2.904 2.545 4.452 3.664 2.524 1.346 5.08 2.77 7.95 3.202 1.503.437 3.047.668 4.599.797 2.18.334 4.407.037 6.603.212.62.698-.633 2.406-1.348 2.81a89.812 89.812 0 0 1-6.008.01c-2.52-.37-5.067-.688-7.523-1.418-2.2-.542-4.482-.825-6.611-1.616-1.402-.527-2.824-1-4.121-1.764-1.107-.379-2.326-.937-2.923-1.991-.205-1.539-.102-3.116-.101-4.671.265-1.698.7-3.358 1.366-4.939.41-1.276 1.076-2.424 1.804-3.54.932-1.323 2.121-2.465 3.347-3.514.997-.776 2.2-1.2 3.324-1.735-.201-1.281-2.536-.3-3.382-1.32-3.554-3.253-7.81-7.733-11.723-10.49" style="fill:#222;fill-opacity:1;stroke-width:1.20721" transform="rotate(-7 -738.185 3101.73) scale(.82835)"/></g></g></svg>