<svg xmlns="http://www.w3.org/2000/svg" width="200" height="200" viewBox="0 0 52.917 52.917"><defs><path id="a" d="M-263.93 127.892h72.093v28.718h-72.093z"/></defs><g transform="translate(249.804 -91.41)"><rect width="52.917" height="52.917" x="-249.804" y="91.409" rx="3.969" ry="3.969" style="fill:#222;fill-opacity:1;fill-rule:nonzero;stroke:none;stroke-width:.5;stroke-linecap:butt;stroke-linejoin:round;stroke-miterlimit:4;stroke-dasharray:none;stroke-dashoffset:0;stroke-opacity:.909449;paint-order:normal"/><rect width="47.625" height="47.625" x="-247.159" y="94.055" rx="2.646" ry="2.646" style="fill:#f5dd00;fill-opacity:1;fill-rule:nonzero;stroke:none;stroke-width:.5;stroke-linecap:butt;stroke-linejoin:round;stroke-miterlimit:4;stroke-dasharray:none;stroke-dashoffset:0;stroke-opacity:.909449;paint-order:normal"/><path d="M-248.35 128.451v8.335a5.544 5.544 0 0 0 5.557 5.556h38.894a5.544 5.544 0 0 0 5.556-5.556v-8.335z" style="fill:#222;fill-opacity:1;fill-rule:nonzero;stroke:none;stroke-width:.5;stroke-linecap:butt;stroke-linejoin:round;stroke-miterlimit:4;stroke-dasharray:none;stroke-dashoffset:0;stroke-opacity:.909449;paint-order:normal"/><g style="stroke-width:1.41569;fill:#222;fill-opacity:1"><path d="M152.57 69.686c1.43-.425 2.87.435 4.302.571 1.115.51 3.475-.148 3.573 1.482-.013 1.26.237 2.654-.45 3.782-2.066-.263-4.132-.708-6.194-1.066-1.775-.312-3.614-.353-5.349-.837.98-1.498 2.673-2.343 3.823-3.713l.128-.106.167-.113m-4.246-.826c.726-.123 3.5-.01 2.215 1.178-1.47.952-2.426 2.555-4.023 3.32-.864-.008-3.593-.188-1.794-1.2 1.208-1.083 2.19-2.472 3.602-3.298m-12.817-1.482c1.35-.693 2.986.215 4.458.015 1.571.032 3.142.276 4.667.635.875.874-1.379 1.455-1.753 2.26-1.104.483-1.683 1.8-2.635 2.307-1.735-.467-3.598-.334-5.302-.864-.07-1.376-.042-3.073.565-4.353" style="fill:#222;fill-opacity:1;stroke-width:1.41569" transform="translate(-331.34 69.48) scale(.70637)"/><path d="M152.025 39.293c1.778-.467 3.661-.115 5.426.239 1.874.58 3.73 1.185 5.506 2.028 2.514 1.165 5.165 2.144 7.367 3.87.338 1.344-.417 2.705-.652 4.03-.865 2.885-2.389 5.513-3.242 8.398-.225 1.222-.984 2.66-.617 3.815 1.036.727 2.401.991 3.253 1.96.262 1.277-.12 3.043-.762 3.95-1.922-.588-.63 1.69-.424 2.597.567 2.016.894 4.096.792 6.194.037 1.956-.35 3.915-.922 5.772-.782 1.474-1.732 3.15-3.427 3.665-3.348.21-6.714.055-10.07.103-1.865-.02-3.741.102-5.579-.247-2.539.038-4.919-1.018-7.416-1.269-2.232-.309-4.377-1.666-5.156-3.854-.926-1.927-.811-4.102-.721-6.181.153-1.79 2.357-1.041 3.533-.917 2.642.417 5.293.677 7.932 1.082 2.092.317 4.185.716 6.298.902 2.294.42 4.59.867 6.895 1.21 1.794.347 1.336-2.157 1.49-3.265-.077-1.09.195-2.264-.224-3.282-1.567-.605-3.301-.67-4.937-1.062-3.855-.922-7.817-1.22-11.676-2.135-1.904-.344-3.825-.633-5.768-.57-1.944.184-1.471-1.88-.743-2.917a14.957 14.957 0 0 1 3.868-4.246c.663-.991-1.907-1.02-1.835-2.174.668-.929 1.005-2.387 2.18-2.765 1.192-.242 2.706 1.243 3.672.245.538-1.543.776-3.179 1.357-4.716.631-2.355 1.548-4.616 2.43-6.882.675-1.23.856-2.8 2.175-3.578" style="fill:#222;fill-opacity:1;stroke-width:1.41569" transform="translate(-331.34 69.48) scale(.70637)"/></g><g style="font-style:normal;font-weight:400;font-size:10.5833px;line-height:1.25;font-family:sans-serif;white-space:pre;shape-inside:url(#a);fill:#f5dd00;fill-opacity:1;stroke:none" transform="translate(17.935 1.964)"><path d="M-257.611 133.767q.635.201.994.678.36.465.36 1.153 0 .974-.762 1.503-.751.519-2.201.519h-3.831v-7.409h3.62q1.354 0 2.074.519.73.518.73 1.407 0 .54-.265.964-.254.423-.72.666zm-3.736-2.265v1.747h1.704q.635 0 .963-.223.328-.222.328-.656 0-.434-.328-.645-.328-.223-.963-.223zm2 4.826q.677 0 1.016-.222.35-.222.35-.688 0-.92-1.366-.92h-2v1.83zm7.98 1.419q-1.154 0-2.085-.498-.921-.497-1.45-1.365-.519-.878-.519-1.969 0-1.09.519-1.957.529-.879 1.45-1.376.931-.498 2.085-.498 1.153 0 2.074.498.92.497 1.45 1.376.53.867.53 1.957t-.53 1.969q-.53.868-1.45 1.365-.92.498-2.074.498zm0-1.46q.656 0 1.185-.297.53-.307.826-.847.306-.54.306-1.228 0-.687-.306-1.227-.297-.54-.826-.836-.53-.307-1.185-.307-.656 0-1.186.307-.529.296-.836.836-.296.54-.296 1.227 0 .688.296 1.228.307.54.836.847.53.296 1.186.296zm10.064 1.333-1.428-2.064h-1.577v2.064h-1.715v-7.409h3.207q.984 0 1.704.328.73.328 1.122.932.391.603.391 1.428 0 .826-.402 1.43-.391.592-1.122.91l1.662 2.38zm-.031-4.72q0-.625-.402-.953-.403-.339-1.175-.339h-1.397v2.583h1.397q.772 0 1.175-.339.402-.339.402-.953zm3.09-2.689h1.714v7.409h-1.714zm10.266 0v7.409h-1.408l-3.693-4.498v4.498h-1.694v-7.409h1.418l3.683 4.498v-4.498zm6.762 3.588h1.567v3.006q-.603.455-1.397.698-.794.244-1.598.244-1.154 0-2.075-.487-.92-.498-1.45-1.365-.518-.879-.518-1.98 0-1.1.518-1.968.53-.878 1.461-1.365.931-.498 2.095-.498.974 0 1.768.328t1.333.953l-1.1 1.016q-.794-.836-1.916-.836-.709 0-1.26.296-.55.296-.857.836-.306.54-.306 1.238 0 .688.306 1.228.307.54.847.847.55.296 1.249.296.74 0 1.333-.317z" aria-label="BORING" style="font-style:normal;font-variant:normal;font-weight:700;font-stretch:normal;font-family:Montserrat;-inkscape-font-specification:&quot;Montserrat Bold&quot;;fill:#f5dd00;fill-opacity:1"/></g></g></svg>