<svg xmlns="http://www.w3.org/2000/svg" width="200" height="200" viewBox="0 0 52.917 52.917"><defs><path id="a" d="M-28.812 30.683h57.436v17.493h-57.436z"/></defs><rect width="52.917" height="52.917" x="-249.804" y="91.409" rx="3.969" ry="3.969" style="fill:#222;fill-opacity:1;fill-rule:nonzero;stroke:none;stroke-width:.5;stroke-linecap:butt;stroke-linejoin:round;stroke-miterlimit:4;stroke-dasharray:none;stroke-dashoffset:0;stroke-opacity:.909449;paint-order:normal" transform="translate(249.804 -91.41)"/><g style="display:inline"><path d="M-200.307 94.829c.478.478.773 1.14.773 1.872v42.333a2.64 2.64 0 0 1-2.645 2.646h-42.334a2.64 2.64 0 0 1-2.646-2.646v-10.583z" style="fill:#003890;fill-opacity:1;fill-rule:nonzero;stroke:none;stroke-width:.5;stroke-linecap:butt;stroke-linejoin:round;stroke-miterlimit:4;stroke-dasharray:none;stroke-dashoffset:0;stroke-opacity:.909449;paint-order:normal" transform="translate(249.804 -91.41)"/><path d="M5.286 2.64h42.333c.733 0 1.395.295 1.873.773L2.64 37.036V5.286A2.64 2.64 0 0 1 5.286 2.64Z" style="fill:#fff;fill-opacity:1;fill-rule:nonzero;stroke:none;stroke-width:.5;stroke-linecap:butt;stroke-linejoin:round;stroke-miterlimit:4;stroke-dasharray:none;stroke-dashoffset:0;stroke-opacity:.909449;paint-order:normal"/><path d="M13.253 23.093h8.769v6.999h-8.769z" style="fill:#fff;fill-opacity:1;stroke-width:1.265;stroke-linecap:round;paint-order:stroke fill markers"/></g><g style="display:inline"><path d="M15.116 7.959c.908-.385 1.194 1.09 1.87 1.487 1.214 1.4 2.795 2.398 4.508 3.087.54.38-.747-1.602.62-1.074 2.669.925 5.425 1.9 7.557 3.826.675.391 1.209.91 1.776 1.439.651.818.928.826 1.415-.01.832.348.847 1.512 1.528 2.075 1.1 1.651 2.43 3.173 4.087 4.281-.007-.672.783-1.813 1.391-.566 1.107 1.865 2.723 3.336 3.983 5.084.85 1.309.822 2.894.989 4.39-.025 1.223-.748 2.295-1.293 3.346-.932 1.248-2.55 2.21-4.144 1.764-.876-.058-1.686-.625-2.485-.748-.418.978-1.723 1.131-2.66 1.03-.62-.612-.469-2.017-1.645-1.97-1.1.06-2.187.045-3.277-.111-2.662-.24-5.332-.193-7.993-.426-2.128-.091-4.25-.399-6.342-.792-.927-.082-1.706-.963-.714-1.642.86-.742 1.988-.516 3.02-.576 1.016-.39 1.386.66 2.083 1.132 1.067.597 2.602.226 3.3-.78.82.177 1.827.795 2.714.203.446-.77.273-1.835 1.62-1.573 1.127-.175 2.256-.152 3.389-.165 1.006-.125 2.033-.156 3.022-.362-.55-.31-1.036-1.077-1.282-1.62.282 1.214-.956 1.14-1.82 1.216-1.617-.088-3.237.123-4.835.351-.886.373-.273 2.244-1.75 1.459-.605-.28-1.327-1.789-1.726-.464-.083 1.28-2.207 1.72-2.69.468-.427-1.132-1.771-.555-2.672-.607-1.427-.254-3.341.295-3.684 1.872-.376 1.101.8 1.526 1.622 1.78.988.324 2.052.39 3.076.552 2.527.334 5.086.432 7.623.561 1.697.025 3.4.116 5.087.303-.445.764-1.316 1.328-2.157 1.683-1.254.839-2.832.645-4.261.883a66.08 66.08 0 0 1-5.162-.083c-1.673-.138-3.387-.117-4.978-.74-1.244-.306-2.382-.97-3.444-1.66-1.075-1.172-2.114-2.566-2.103-4.234-.236-1.711-.313-3.445.03-5.15.155-1.324.683-2.571 1.206-3.785.696-1.135 1.436-2.261 2.46-3.13 1.031-1.124 2.405-1.835 3.627-2.709-.292-.775-.922-1.476-1.435-2.16-.95-1.064-2.062-2.038-3.434-2.505-.512-.986 1.4-1.189 2.078-1.248.868-.09 2.247.37 2.808-.023-.297-1.063-.812-2.178-.571-3.29l.068-.07m2.662 20.882c1.13-.36 2.382-1.226 2.498-2.491-.15-.731.217-1.995-.707-2.271-1.122-.309-2.308.07-3.455.122-.882.265-2.138.251-2.602 1.181-.057 1.004.341 2.06.926 2.866.616.907 1.69.92 2.663.713.228-.022.458-.048.677-.12m10.445-.516c1.597-.53 2.264-2.538 1.724-4.04-.834-.43-1.88-.445-2.815-.629-1.07.035-2.335-.285-3.26.361-.627 1.2-.349 2.837.554 3.831 1.024.92 2.555.726 3.796.477m12.503 8.025c1.176-.458 2.276-1.291 2.652-2.55.631-1.017.753-2.217.53-3.377-.042-2.196-1.896-3.636-3.12-5.234-.455-.4-1.327-2.222-1.315-.675-.856.521-1.296-.761-1.943-1.105-1.668-1.255-3.057-2.853-4.133-4.638-.32-.408-.557 1.294-1.235.183-.558-1.072-1.457-1.911-2.37-2.677-1.202-.608-2.06-1.745-3.345-2.224-1.103-.595-2.282-1.104-3.497-1.388.668.688.33 1.693-.756 1.026-1.734-.682-3.467-1.463-4.846-2.752-.38-.154-1.265-1.483-1.151-.675.034.858 1.295 1.767.665 2.51-1.108-.274-2.203-.705-3.376-.595-.983-.186-1.793.137-.508.678 1.092.864 2.108 1.856 2.847 3.038.43.984 1.336 1.09 2.218.604a39.77 39.77 0 0 1 4.985-.562c1.085.126 2.16.332 3.111.895 1.127.522 1.92 1.538 2.723 2.446 1.107 1.197 1.494 2.815 2.179 4.256a18.07 18.07 0 0 1 .92 3.754c.398.782 1.767.802 1.829 1.796.077.942 1.287-.844 1.964.04.852.487 1.039 1.642 1.272 2.523.2 1.074.116 2.162.03 3.239.497 1.159 1.973 1.401 3.096 1.536a2.53 2.53 0 0 0 .575-.072" style="fill:#222;fill-opacity:1;stroke-width:1"/><path d="M1.455 37.042v8.334a5.544 5.544 0 0 0 5.556 5.556h38.894a5.544 5.544 0 0 0 5.556-5.556v-8.334z" style="fill:#222;fill-opacity:1;fill-rule:nonzero;stroke:none;stroke-width:.5;stroke-linecap:butt;stroke-linejoin:round;stroke-miterlimit:4;stroke-dasharray:none;stroke-dashoffset:0;stroke-opacity:.909449;paint-order:normal"/><g aria-label="CASUAL" style="font-style:normal;font-weight:400;font-size:10.5833px;line-height:1.25;font-family:sans-serif;white-space:pre;shape-inside:url(#a);fill:#000;fill-opacity:1;stroke:none" transform="translate(32.533 7.282)"><path d="M-24.389 40.536q-1.132 0-2.053-.487-.91-.498-1.44-1.365-.518-.879-.518-1.98 0-1.1.519-1.968.529-.878 1.44-1.365.92-.498 2.063-.498.963 0 1.736.339.783.339 1.312.974l-1.1 1.016q-.752-.868-1.863-.868-.688 0-1.228.307-.54.296-.847.836-.296.54-.296 1.228 0 .687.296 1.227.307.54.847.847.54.296 1.228.296 1.11 0 1.862-.878l1.1 1.016q-.528.645-1.311.984-.784.339-1.747.339zm8.943-1.715h-3.44l-.656 1.588h-1.756L-17.996 33h1.693l3.313 7.409h-1.8zm-.54-1.302-1.174-2.836-1.175 2.836zm6.202 3.017q-.878 0-1.704-.233-.815-.244-1.312-.625l.582-1.29q.476.349 1.132.56.657.212 1.313.212.73 0 1.08-.212.349-.222.349-.582 0-.264-.212-.434-.201-.18-.53-.286-.317-.105-.867-.232-.847-.201-1.387-.403-.54-.2-.93-.645-.382-.445-.382-1.185 0-.646.35-1.165.349-.529 1.047-.836.71-.307 1.725-.307.71 0 1.387.17.677.169 1.185.487l-.53 1.301q-1.026-.582-2.052-.582-.72 0-1.07.233-.338.233-.338.614 0 .38.392.571.402.18 1.217.36.846.201 1.386.402.54.201.92.635.392.434.392 1.175 0 .635-.36 1.164-.349.519-1.058.826-.709.307-1.725.307z" style="font-style:normal;font-variant:normal;font-weight:700;font-stretch:normal;font-family:Montserrat;-inkscape-font-specification:&quot;Montserrat Bold&quot;;fill:#fff;fill-opacity:1"/><path d="M-2.174 40.536q-1.588 0-2.477-.879-.878-.878-.878-2.508V33h1.714v4.086q0 1.99 1.651 1.99.805 0 1.228-.477.423-.487.423-1.513V33h1.694v4.149q0 1.63-.89 2.508-.878.879-2.465.879zm9.768-1.715h-3.44l-.656 1.588H1.741L5.043 33h1.694l3.312 7.409H8.25Zm-.54-1.302L5.88 34.683 4.705 37.52ZM10.822 33h1.714v6.012h3.715v1.397h-5.43z" style="font-style:normal;font-variant:normal;font-weight:700;font-stretch:normal;font-family:Montserrat;-inkscape-font-specification:&quot;Montserrat Bold&quot;;fill:#003890;fill-opacity:1"/></g></g></svg>