<svg xmlns="http://www.w3.org/2000/svg" width="200" height="200" viewBox="0 0 52.917 52.917"><defs><path id="a" d="M-60.193 25.665H55.298v41.01H-60.193z"/></defs><g transform="translate(249.804 -91.41)"><rect width="52.917" height="52.917" x="-249.804" y="91.409" rx="3.969" ry="3.969" style="fill:#222;fill-opacity:1;fill-rule:nonzero;stroke:none;stroke-width:.5;stroke-linecap:butt;stroke-linejoin:round;stroke-miterlimit:4;stroke-dasharray:none;stroke-dashoffset:0;stroke-opacity:.909449;paint-order:normal"/><path d="M-244.513 94.055h42.334a2.64 2.64 0 0 1 2.645 2.646v42.333a2.64 2.64 0 0 1-2.645 2.646h-42.334a2.64 2.64 0 0 1-2.646-2.646V96.701a2.64 2.64 0 0 1 2.646-2.646z" style="fill:#000;fill-opacity:1;fill-rule:nonzero;stroke:none;stroke-width:.5;stroke-linecap:butt;stroke-linejoin:round;stroke-miterlimit:4;stroke-dasharray:none;stroke-dashoffset:0;stroke-opacity:.909449;paint-order:normal"/><path d="M-244.513 94.055h42.334a2.64 2.64 0 0 1 2.645 2.646v25.4h-47.625v-25.4a2.64 2.64 0 0 1 2.646-2.646z" style="fill:#fff;fill-opacity:1;fill-rule:nonzero;stroke:none;stroke-width:.5;stroke-linecap:butt;stroke-linejoin:round;stroke-miterlimit:4;stroke-dasharray:none;stroke-dashoffset:0;stroke-opacity:.909449;paint-order:normal"/><path d="M-244.513 94.055h42.334a2.64 2.64 0 0 1 2.645 2.646v18.521h-47.625v-18.52a2.64 2.64 0 0 1 2.646-2.647z" style="fill:#000;fill-opacity:1;fill-rule:nonzero;stroke:none;stroke-width:.5;stroke-linecap:butt;stroke-linejoin:round;stroke-miterlimit:4;stroke-dasharray:none;stroke-dashoffset:0;stroke-opacity:.909449;paint-order:normal"/><path d="M-244.513 94.055h42.334a2.64 2.64 0 0 1 2.645 2.646v11.113h-47.625V96.7a2.64 2.64 0 0 1 2.646-2.646z" style="fill:#fff;fill-opacity:1;fill-rule:nonzero;stroke:none;stroke-width:.5;stroke-linecap:butt;stroke-linejoin:round;stroke-miterlimit:4;stroke-dasharray:none;stroke-dashoffset:0;stroke-opacity:.909449;paint-order:normal"/><path d="M-244.513 94.055h42.334a2.64 2.64 0 0 1 2.645 2.646v4.233h-47.625v-4.233a2.64 2.64 0 0 1 2.646-2.646z" style="fill:#000;fill-opacity:1;fill-rule:nonzero;stroke:none;stroke-width:.5;stroke-linecap:butt;stroke-linejoin:round;stroke-miterlimit:4;stroke-dasharray:none;stroke-dashoffset:0;stroke-opacity:.909449;paint-order:normal"/><path d="m-224.404 111.518-22.755 16.933v-31.75c0-.733.295-1.394.774-1.872z" style="fill:#32b5d4;fill-opacity:1;fill-rule:nonzero;stroke:none;stroke-width:.5;stroke-linecap:butt;stroke-linejoin:round;stroke-miterlimit:4;stroke-dasharray:none;stroke-dashoffset:0;stroke-opacity:.909449;paint-order:normal"/><path d="M-236.755 119.192h10.383v5.472h-10.383zm14.359-.234c3.942-1.172 7.72-.943 11.412 0v5.706h-11.412z" style="fill:#32b5d4;fill-opacity:1;stroke-width:1.265;stroke-linecap:round;paint-order:stroke fill markers"/></g><g style="display:inline"><g style="fill:#222;fill-opacity:1;stroke-width:.728058"><path d="M153.31 196.947c.89.083.04 1.727.654 2.374.27 1.49.113 3.025.149 4.536-.262 1.008-.31 2.634-.732 3.306h-25.532c.006-1.294-.063-2.596.21-3.867.104-1.063-.02-2.147.242-3.19-.366-1.67 1.98-.263 2.874-.639 1.61.05 3.241-.142 4.827.212 1.499.24 2.952-.221 4.443-.23 1.418-.396 2.877-.486 4.326-.711 1.263-.025 2.5-.237 3.734-.48 1.578-.523 3.192-.906 4.803-1.311m-16.841 6.692c1.363-.188 1.035-2.394-.123-2.686-1.153-.76-2.652-.808-3.829-.07-.947.521-1.684 2.496-.028 2.536 1.29.363 2.656.348 3.98.22m11.159-.007c.923-.58.1-2.386-.678-2.967-.914-.74-2.552-1.345-3.445-.27-.69.758-1.745 1.424-1.746 2.551.42 1.054 1.764.702 2.674.766 1.065-.025 2.139.067 3.195-.08" style="fill:#222;fill-opacity:1;stroke-width:.728057" transform="translate(-166.795 -247.333) scale(1.37352)"/><path d="M139.492 195.363c2.06-.247 4.148-.1 6.221-.14 1.535.01 3.11-.124 4.56.5.598.053 1.622.544.437.685-1.374.283-2.664.876-4.065 1.036-1.521.178-3.05.322-4.576.48-1.39.484-2.844.443-4.274.69-1.384.212-2.732-.342-4.122-.207-1.634-.033-3.283.117-4.893-.219-.534.091-1.604-.298-.513-.529 1.429-.803 3.156-.752 4.613-1.504 1.455-.314 2.937-.378 4.4-.638.74-.063 1.485.036 2.212-.155" style="fill:#222;fill-opacity:1;stroke-width:.728057" transform="translate(-166.795 -247.333) scale(1.37352)"/><path d="M135.855 185.835c1.378-.29 2.81-.116 4.213-.164.929.007 1.873-.061 2.77.226 1.498-.103 2.87.486 4.256.943 1.417.69 2.918 1.296 4.107 2.357 1.177.779 2.27 1.666 3.377 2.536.894.72 1.947 2.085.99 3.166-1.04.913-2.532.967-3.678.225-1.238-.418-2.483-1-3.816-.963-2.807.021-5.617-.044-8.42.035-1.489.271-3.005.29-4.503.493-1.383-.048-2.685.436-3.983.818-1.159.574-2.675.715-3.35-.64-.386-.947-2.254-1.909-1.052-2.93.62-.804 1.253-1.598 2.012-2.285.904-.981 1.914-1.863 3.122-2.454 1.07-.472 2.199-1.046 3.37-1.144.191-.082.386-.156.585-.219" style="fill:#222;fill-opacity:1;stroke-width:.728057" transform="translate(-166.795 -247.333) scale(1.37352)"/></g><path d="M-248.35 128.451v8.335a5.544 5.544 0 0 0 5.557 5.556h38.894a5.544 5.544 0 0 0 5.556-5.556v-8.335z" style="fill:#222;fill-opacity:1;fill-rule:nonzero;stroke:none;stroke-width:.5;stroke-linecap:butt;stroke-linejoin:round;stroke-miterlimit:4;stroke-dasharray:none;stroke-dashoffset:0;stroke-opacity:.909449;paint-order:normal" transform="translate(249.804 -91.41)"/><g aria-label="DISCRIMINATORY" style="font-style:normal;font-weight:400;font-size:4.93889px;line-height:1.25;font-family:sans-serif;white-space:pre;shape-inside:url(#a);fill:#32b5d4;fill-opacity:1;stroke:none" transform="translate(63.535 15.512)"><path d="M-59.783 26.746h1.57q.563 0 .993.217.434.213.672.603.242.39.242.909 0 .518-.242.909-.238.39-.672.607-.43.212-.993.212h-1.57zm1.53 2.8q.52 0 .825-.286.312-.291.312-.785 0-.494-.312-.78-.306-.292-.824-.292h-.731v2.143zm2.549-2.8h.8v3.457h-.8zm2.756 3.517q-.41 0-.795-.109-.38-.114-.613-.291l.272-.603q.222.163.528.262.307.099.613.099.34 0 .504-.1.163-.103.163-.27 0-.124-.1-.203-.093-.084-.246-.134-.148-.05-.405-.108-.395-.094-.647-.188t-.435-.301q-.177-.208-.177-.553 0-.302.163-.544.163-.247.488-.39.331-.143.806-.143.33 0 .647.079.316.079.553.227l-.247.608q-.48-.272-.958-.272-.336 0-.5.109-.157.108-.157.286t.182.267q.188.084.568.168.396.094.647.187.252.094.43.297.183.202.183.548 0 .296-.168.543-.163.242-.494.385-.33.144-.805.144zm3.67 0q-.529 0-.959-.228-.424-.232-.671-.637-.242-.41-.242-.923 0-.514.242-.919.247-.41.671-.637.43-.232.964-.232.449 0 .81.158.365.158.612.454l-.514.474q-.35-.405-.869-.405-.321 0-.573.144-.252.138-.395.39-.138.252-.138.573 0 .32.138.573.143.252.395.395.252.138.573.138.519 0 .87-.41l.513.474q-.247.302-.613.46-.365.158-.814.158zm4.168-.06-.667-.963h-.736v.963h-.8v-3.457h1.497q.459 0 .795.153.34.153.523.435.183.281.183.667 0 .385-.188.666-.182.277-.523.425l.775 1.111zm-.015-2.202q0-.292-.188-.445-.187-.158-.548-.158h-.652v1.205h.652q.36 0 .548-.158.188-.158.188-.444z" style="font-style:normal;font-variant:normal;font-weight:700;font-stretch:normal;font-size:4.93889px;font-family:Montserrat;-inkscape-font-specification:&quot;Montserrat Bold&quot;;fill:#32b5d4;fill-opacity:1"/><path d="M-43.683 26.746h.8v3.457h-.8z" style="font-style:normal;font-variant:normal;font-weight:700;font-stretch:normal;font-size:4.93889px;font-family:Montserrat;-inkscape-font-specification:&quot;Montserrat Bold&quot;;fill:#fff;fill-opacity:1"/><path d="m-38.917 30.203-.005-2.074-1.017 1.709h-.36l-1.013-1.665v2.03h-.75v-3.457h.661l1.294 2.149 1.274-2.149h.657l.01 3.457z" style="font-style:normal;font-variant:normal;font-weight:700;font-stretch:normal;font-size:4.93889px;font-family:Montserrat;-inkscape-font-specification:&quot;Montserrat Bold&quot;;fill:#32b5d4;fill-opacity:1"/><path d="M-37.346 26.746h.8v3.457h-.8z" style="font-style:normal;font-variant:normal;font-weight:700;font-stretch:normal;font-size:4.93889px;font-family:Montserrat;-inkscape-font-specification:&quot;Montserrat Bold&quot;;fill:#fff;fill-opacity:1"/><path d="M-32.555 26.746v3.457h-.657l-1.724-2.099v2.1h-.79v-3.458h.662l1.718 2.1v-2.1z" style="font-style:normal;font-variant:normal;font-weight:700;font-stretch:normal;font-size:4.93889px;font-family:Montserrat;-inkscape-font-specification:&quot;Montserrat Bold&quot;;fill:#32b5d4;fill-opacity:1"/><path d="M-29.459 29.463h-1.605l-.306.74h-.82l1.541-3.457h.79l1.546 3.457h-.84zm-.252-.608-.548-1.324-.548 1.324z" style="font-style:normal;font-variant:normal;font-weight:700;font-stretch:normal;font-size:4.93889px;font-family:Montserrat;-inkscape-font-specification:&quot;Montserrat Bold&quot;;fill:#fff;fill-opacity:1"/><path d="M-27.41 27.398h-1.105v-.652h3.012v.652h-1.106v2.805h-.8z" style="font-style:normal;font-variant:normal;font-weight:700;font-stretch:normal;font-size:4.93889px;font-family:Montserrat;-inkscape-font-specification:&quot;Montserrat Bold&quot;;fill:#32b5d4;fill-opacity:1"/><path d="M-23.448 30.263q-.538 0-.973-.232-.43-.233-.677-.638-.242-.41-.242-.918 0-.509.242-.914.247-.41.677-.642.435-.232.973-.232t.968.232q.43.232.677.642.247.405.247.914 0 .508-.247.918-.247.405-.677.638-.43.232-.968.232zm0-.682q.306 0 .553-.138.247-.143.385-.395.144-.252.144-.573 0-.321-.144-.573-.138-.252-.385-.39-.247-.144-.553-.144-.306 0-.553.144-.247.138-.39.39-.139.252-.139.573 0 .32.139.573.143.252.39.395.247.138.553.138z" style="font-style:normal;font-variant:normal;font-weight:700;font-stretch:normal;font-size:4.93889px;font-family:Montserrat;-inkscape-font-specification:&quot;Montserrat Bold&quot;;fill:#fff;fill-opacity:1"/><path d="m-18.751 30.203-.667-.963h-.736v.963h-.8v-3.457h1.497q.459 0 .795.153.34.153.523.435.183.281.183.667 0 .385-.188.666-.182.277-.523.425l.775 1.111zm-.015-2.202q0-.292-.188-.445-.187-.158-.548-.158h-.652v1.205h.652q.36 0 .548-.158.188-.158.188-.444z" style="font-style:normal;font-variant:normal;font-weight:700;font-stretch:normal;font-size:4.93889px;font-family:Montserrat;-inkscape-font-specification:&quot;Montserrat Bold&quot;;fill:#32b5d4;fill-opacity:1"/><path d="M-15.714 28.979v1.224h-.8V28.97l-1.338-2.223h.85l.923 1.536.923-1.536h.786z" style="font-style:normal;font-variant:normal;font-weight:700;font-stretch:normal;font-size:4.93889px;font-family:Montserrat;-inkscape-font-specification:&quot;Montserrat Bold&quot;;fill:#fff;fill-opacity:1"/></g></g></svg>