<svg xmlns="http://www.w3.org/2000/svg" width="200" height="200" viewBox="0 0 52.917 52.917"><defs><path id="a" d="M-55.959 18.918H0v25.665h-55.959z"/></defs><g style="display:inline"><path d="M-245.836 91.41h44.98a3.96 3.96 0 0 1 3.968 3.968v44.98a3.96 3.96 0 0 1-3.969 3.968h-44.979a3.96 3.96 0 0 1-3.968-3.969V95.378a3.96 3.96 0 0 1 3.968-3.969z" style="fill:#222;fill-opacity:1;fill-rule:nonzero;stroke:none;stroke-width:.5;stroke-linecap:butt;stroke-linejoin:round;stroke-miterlimit:4;stroke-dasharray:none;stroke-dashoffset:0;stroke-opacity:.909449;paint-order:normal" transform="translate(249.804 -91.41)"/><path d="M-244.513 94.055h42.334a2.64 2.64 0 0 1 2.645 2.646v42.333a2.64 2.64 0 0 1-2.645 2.646h-42.334a2.64 2.64 0 0 1-2.646-2.646V96.701a2.64 2.64 0 0 1 2.646-2.646z" style="display:inline;fill:#5bcffa;fill-opacity:1;fill-rule:nonzero;stroke:none;stroke-width:.5;stroke-linecap:butt;stroke-linejoin:round;stroke-miterlimit:4;stroke-dasharray:none;stroke-dashoffset:0;stroke-opacity:.909449;paint-order:normal" transform="translate(249.804 -91.41)"/><path d="M50.27 8.171V47.64a2.633 2.633 0 0 1-2.645 2.63H5.292a2.633 2.633 0 0 1-2.646-2.63V8.17Z" style="display:inline;fill:#f5abb9;fill-opacity:1;fill-rule:nonzero;stroke:none;stroke-width:.5;stroke-linecap:butt;stroke-linejoin:round;stroke-miterlimit:4;stroke-dasharray:none;stroke-dashoffset:0;stroke-opacity:.909449;paint-order:normal"/><path d="M50.27 9.168v38.208c0 1.604-1.18 2.895-2.645 2.895H5.292c-1.466 0-2.646-1.291-2.646-2.895V9.168Z" style="display:inline;fill:#fff;fill-opacity:1;fill-rule:nonzero;stroke:none;stroke-width:.5;stroke-linecap:butt;stroke-linejoin:round;stroke-miterlimit:4;stroke-dasharray:none;stroke-dashoffset:0;stroke-opacity:.909449;paint-order:normal"/><path d="M50.27 29.835v18.06c0 1.316-1.18 2.376-2.645 2.376H5.292c-1.466 0-2.646-1.06-2.646-2.376v-18.06Z" style="display:inline;fill:#f5abb9;fill-opacity:1;fill-rule:nonzero;stroke:none;stroke-width:.5;stroke-linecap:butt;stroke-linejoin:round;stroke-miterlimit:4;stroke-dasharray:none;stroke-dashoffset:0;stroke-opacity:.909449;paint-order:normal"/><path d="M50.27 30.856v16.56c0 1.581-1.18 2.855-2.645 2.855H5.292c-1.466 0-2.646-1.274-2.646-2.855v-16.56Z" style="display:inline;fill:#5bcffa;fill-opacity:1;fill-rule:nonzero;stroke:none;stroke-width:.5;stroke-linecap:butt;stroke-linejoin:round;stroke-miterlimit:4;stroke-dasharray:none;stroke-dashoffset:0;stroke-opacity:.909449;paint-order:normal"/><path d="M-248.35 128.451v8.335a5.544 5.544 0 0 0 5.557 5.556h38.894a5.544 5.544 0 0 0 5.556-5.556v-8.335z" style="display:inline;fill:#222;fill-opacity:1;fill-rule:nonzero;stroke:none;stroke-width:.5;stroke-linecap:butt;stroke-linejoin:round;stroke-miterlimit:4;stroke-dasharray:none;stroke-dashoffset:0;stroke-opacity:.909449;paint-order:normal" transform="translate(249.804 -91.41)"/><g aria-label="DISLIKED" style="font-style:normal;font-weight:400;font-size:9.87778px;line-height:1.25;font-family:sans-serif;white-space:pre;shape-inside:url(#a);fill:#000;fill-opacity:1;stroke:none" transform="translate(57.698 19.448)"><path d="M-55.14 21.082h3.142q1.126 0 1.985.435.87.424 1.344 1.205.484.78.484 1.817 0 1.038-.484 1.818-.474.78-1.344 1.215-.859.425-1.985.425h-3.141zm3.063 5.6q1.037 0 1.65-.572.622-.583.622-1.57 0-.988-.622-1.561-.613-.583-1.65-.583h-1.462v4.287z" style="font-style:normal;font-variant:normal;font-weight:700;font-stretch:normal;font-size:9.87778px;font-family:Montserrat;-inkscape-font-specification:&quot;Montserrat Bold&quot;;fill:#5bcffa;fill-opacity:1"/><path d="M-46.98 21.082h1.6v6.915h-1.6z" style="font-style:normal;font-variant:normal;font-weight:700;font-stretch:normal;font-size:9.87778px;font-family:Montserrat;-inkscape-font-specification:&quot;Montserrat Bold&quot;;fill:#f5abb9;fill-opacity:1"/><path d="M-41.468 28.115q-.82 0-1.59-.217-.761-.227-1.225-.583l.543-1.205q.444.326 1.057.523.612.198 1.225.198.681 0 1.007-.198.326-.207.326-.543 0-.247-.197-.405-.188-.168-.494-.267-.297-.098-.81-.217-.79-.188-1.294-.375-.504-.188-.87-.603-.355-.415-.355-1.106 0-.603.326-1.087.326-.493.978-.78.661-.286 1.61-.286.662 0 1.294.158t1.106.454l-.494 1.215q-.958-.543-1.916-.543-.672 0-.998.217-.316.217-.316.573t.366.533q.375.168 1.136.336.79.188 1.294.376.503.187.859.592.365.405.365 1.097 0 .592-.335 1.086-.326.484-.988.77-.662.287-1.61.287zm4.03-7.033h1.6v5.61h3.467v1.305h-5.067zm5.966 0h1.6v6.915h-1.6zm5.759 4.198-.929.968v1.749h-1.59v-6.915h1.59v3.23l3.062-3.23h1.778l-2.864 3.082 3.032 3.833H-23.5z" style="font-style:normal;font-variant:normal;font-weight:700;font-stretch:normal;font-size:9.87778px;font-family:Montserrat;-inkscape-font-specification:&quot;Montserrat Bold&quot;;fill:#fff;fill-opacity:1"/><path d="M-15.569 26.712v1.285h-5.354v-6.915h5.226v1.284h-3.635v1.502h3.21v1.244h-3.21v1.6z" style="font-style:normal;font-variant:normal;font-weight:700;font-stretch:normal;font-size:9.87778px;font-family:Montserrat;-inkscape-font-specification:&quot;Montserrat Bold&quot;;fill:#f5abb9;fill-opacity:1"/><path d="M-14.295 21.082h3.142q1.126 0 1.985.435.87.424 1.343 1.205.484.78.484 1.817 0 1.038-.484 1.818-.474.78-1.343 1.215-.86.425-1.985.425h-3.142zm3.063 5.6q1.037 0 1.65-.572.621-.583.621-1.57 0-.988-.622-1.561-.612-.583-1.65-.583h-1.461v4.287z" style="font-style:normal;font-variant:normal;font-weight:700;font-stretch:normal;font-size:9.87778px;font-family:Montserrat;-inkscape-font-specification:&quot;Montserrat Bold&quot;;fill:#5bcffa;fill-opacity:1"/></g><path d="M34.15 9.591a.52.52 0 0 0-.128.001c-.269.023-2.048 1.779-3.296 3.306-.443-.226-.892-.412-1.181-.467a14.896 14.896 0 0 0-4.404-.11c-1.892.328-3.784.583-5.531 1.566a12.701 12.701 0 0 0-3.312 2.948c-1.092 1.346-1.457 2.438-2.22 4.185-1.13 2.62-1.748 4.804-2.039 9.135-.145 2.548 0 4.986.728 7.28 1.349 1.147 17.785 1.24 24.967.81 2.73-.51 2.948-6.488 2.62-9.472-.181-1.82-.327-4.004-1.127-5.533a3.358 3.358 0 0 0-.112-.202l4.37-5.293c-.503-1.064-3.067-1.288-4.58-1.879a2.366 2.366 0 0 0-1.605-1.761c-.874-1.691-2.167-4.405-3.15-4.514Zm-2.785 9.137c.182 0 .364.036.51.072.29.037.582.146.873.328.4.255.728.582 1.02.982a6 6 0 0 1 .872 1.893c.146.437-.072.837-.509.983h-.037c-.29.036-.618.036-.873-.146-.145-.11-.291-.218-.437-.364a4.417 4.417 0 0 0-.51-.364 1.773 1.773 0 0 0-.4-.146c-.182-.036-.364-.036-.546-.036-.254-.036-.509.037-.764.146a3.449 3.449 0 0 0-.982.618.634.634 0 0 0-.182.146c-.291.182-.619.218-.91 0a.819.819 0 0 1-.328-.837c.073-.254.146-.473.255-.691.145-.4.327-.765.546-1.165.109-.219.254-.4.4-.583.328-.4.764-.618 1.238-.727.254-.073.509-.073.764-.11zm-10.3.654c.546 0 .983.146 1.347.474.364.291.655.655.837 1.055.255.51.437 1.02.546 1.529.036.145.072.29.072.4.037.255-.072.51-.29.692-.291.254-.728.218-1.02-.037l-.145-.145c-.255-.328-.546-.546-.874-.765a1.12 1.12 0 0 0-.436-.181c-.11-.037-.219 0-.328 0-.146.036-.327.072-.473.145a2.62 2.62 0 0 0-.765.437c-.109.072-.218.218-.29.327-.11.182-.219.291-.364.4a.767.767 0 0 1-.874 0 .741.741 0 0 1-.291-.837l.11-.327c.108-.29.254-.546.4-.8a7.344 7.344 0 0 1 1.091-1.53c.073-.072.182-.182.292-.254.436-.4.946-.583 1.455-.583z" style="display:inline;stroke-width:.264583;fill:#222;fill-opacity:1"/></g></svg>