<svg xmlns="http://www.w3.org/2000/svg" width="200" height="200" viewBox="0 0 52.917 52.917"><defs><path id="a" d="M-8.98 41.16h54.443v27.502H-8.98z"/></defs><g style="display:inline"><path d="M-245.836 91.41h44.98a3.96 3.96 0 0 1 3.968 3.968v44.98a3.96 3.96 0 0 1-3.969 3.968h-44.979a3.96 3.96 0 0 1-3.968-3.969V95.378a3.96 3.96 0 0 1 3.968-3.969z" style="fill:#222;fill-opacity:1;fill-rule:nonzero;stroke:none;stroke-width:.5;stroke-linecap:butt;stroke-linejoin:round;stroke-miterlimit:4;stroke-dasharray:none;stroke-dashoffset:0;stroke-opacity:.909449;paint-order:normal" transform="translate(249.804 -91.41)"/><path d="M-244.513 94.055h42.334a2.64 2.64 0 0 1 2.645 2.646v42.333a2.64 2.64 0 0 1-2.645 2.646h-42.334a2.64 2.64 0 0 1-2.646-2.646V96.701a2.64 2.64 0 0 1 2.646-2.646z" style="display:inline;fill:#ee2436;fill-opacity:1;fill-rule:nonzero;stroke:none;stroke-width:.5;stroke-linecap:butt;stroke-linejoin:round;stroke-miterlimit:4;stroke-dasharray:none;stroke-dashoffset:0;stroke-opacity:.909449;paint-order:normal" transform="translate(249.804 -91.41)"/><path d="M50.27 14.431v33.316c0 1.398-1.18 2.524-2.645 2.524H5.292c-1.466 0-2.646-1.126-2.646-2.524V14.43z" style="display:inline;fill:#fff;fill-opacity:1;fill-rule:nonzero;stroke:none;stroke-width:.5;stroke-linecap:butt;stroke-linejoin:round;stroke-miterlimit:4;stroke-dasharray:none;stroke-dashoffset:0;stroke-opacity:.909449;paint-order:normal"/><path d="M50.27 25.973v20.725c0 1.98-1.18 3.573-2.645 3.573H5.292c-1.466 0-2.646-1.594-2.646-3.573V25.973Z" style="display:inline;fill:#ee2436;fill-opacity:1;fill-rule:nonzero;stroke:none;stroke-width:.499999;stroke-linecap:butt;stroke-linejoin:round;stroke-miterlimit:4;stroke-dasharray:none;stroke-dashoffset:0;stroke-opacity:.909449;paint-order:normal"/><path d="M-248.35 128.451v8.335a5.544 5.544 0 0 0 5.557 5.556h38.894a5.544 5.544 0 0 0 5.556-5.556v-8.335z" style="display:inline;fill:#222;fill-opacity:1;fill-rule:nonzero;stroke:none;stroke-width:.5;stroke-linecap:butt;stroke-linejoin:round;stroke-miterlimit:4;stroke-dasharray:none;stroke-dashoffset:0;stroke-opacity:.909449;paint-order:normal" transform="translate(249.804 -91.41)"/><path d="m17.736 23.125 6.574.515-.467 5.851-5.593-.468z" style="fill:#fff;fill-opacity:1;stroke-width:1.265;stroke-linecap:round;paint-order:stroke fill markers"/><path d="m31.247 24.969 6.988 1.403v5.325c-4.568 1.13-7.687 1.48-7.409 0z" style="fill:#ee2436;fill-opacity:1;stroke-width:1.265;stroke-linecap:round;paint-order:stroke fill markers"/><g style="display:inline;stroke-width:1.23716;fill:#222;fill-opacity:1"><path d="M140.363 106.75c1.02.417 1.05 2.584-.02 3.072-1.124.694-3.19.497-1.34-.756.648-.653.987-1.502 1.36-2.317m-3.605-1.293c.925-.204 3.165.37 2.138 1.731-.541 1.184-1.624 2.025-2.566 2.883-1.363.672-3.063-.25-1.378-1.434.775-.957 1.254-2.095 1.806-3.18m-4.09-1.074c.89-.058 3.444-.038 2.591 1.436-.633 1.368-1.506 2.656-2.572 3.717-.93.024-3.397.334-3.448-.7 1.194-1.326 2.701-2.468 3.273-4.234l.085-.136.07-.083m-3.096-.21c1.348-.848 2.5.11 1.143 1.29-.375.89-2.207 2.732-1.608.523.147-.61.018-1.307.465-1.813m-8.788-12.24c1.17.19 2.192 1.102 3.024 1.938 1.379 1.17 2.43 2.861 2.247 4.734.196 1.33-.684 2.514-.67 3.796.32 1.409 1.001 2.755 2.108 3.698 1.101 1.452-.038 2.984-1.764 2.227-1.72-.662-3.135-1.993-4.218-3.45-.646-.851-.841-1.849-.742-2.898-.107-1.746 1.063-3.296.792-5.068-.082-1.506-.365-3.068-1.264-4.319.017-.277.299-.48.487-.658m5.645 15.365c.477-.586-1.35-1.506-1.362-2.489-.873-1.396-1.083-3.198-.336-4.696.481-1.416.287-2.998-.597-4.212-.428-.708-2.175-2.517-1.615-.547.167 1.849.247 3.768-.505 5.511-.51 1.506-.016 3.15 1.122 4.226.937.908 1.908 2.091 3.292 2.207" style="fill:#222;fill-opacity:1;stroke-width:1.23716" transform="translate(-90.862 -53.552) scale(.8083)"/><path d="M144.535 85.017c2.22-.261 4.476-.079 6.713-.133 1.546.045 3.119.359 4.438 1.215 1.02.632 2.297.916 3.162 1.745.728.978 1.843 1.537 2.466 2.61 1.437 2.032 2.663 4.283 2.959 6.795.61 2.52.287 5.13.368 7.698.048 2.502-.21 5.075-1.243 7.377-.919 1.523-2.292 2.938-4.078 3.353-1.366.562-2.824 1.037-4.326.923-1.335.07-2.644-.116-3.963-.254-1.673-.037-3.357.085-5-.26-2.935-.149-5.746-1.133-8.498-2.092-1.306-.9-3.065-1.382-3.91-2.796 1.29.135 2.613.468 3.948.144 1.567-.012 3.694.065 4.454-1.621.282-1.384.419-3.419-1.163-4.072a20.641 20.641 0 0 0-5.01-1.907c-.739-.911-2.163-1.48-2.186-2.86-1.517-1.164-.524 1.925-.875 2.145-2.032.313-1.59-1.56-1.342-2.887.175-1.688.444-3.373 1.11-4.955.637-2.171 1.98-4.059 3.67-5.542 1.307-1.39 2.727-2.781 4.614-3.323 1.173-.587 2.419-1 3.693-1.302m-4.664 17.238c1.73-.237 2.175-2.3 2.04-3.761.074-1.342-.723-2.735-2.143-2.911-2.61-.773-5.406 1.887-4.95 4.526.092 1.76 2.154 2.378 3.634 2.216.475.002.95.012 1.42-.07m17.55 6.07c.873-.039 2.694-1.69 1.249-2.145-.853.866-2.007 1.412-3.224 1.066-1.47 1.118 1.427 1.29 1.975 1.079m-.873-2.63c1.854-.299 3.088-2.217 2.805-4.035.315-1.489-.826-2.441-2.046-2.953-1.267-.473-2.97-.627-4.146.185-1.505.768-2.165 2.718-1.901 4.313.621 1.328 1.883 2.588 3.458 2.532.61.03 1.224.051 1.83-.042" style="fill:#222;fill-opacity:1;stroke-width:1.23716" transform="translate(-90.862 -53.552) scale(.8083)"/></g><g aria-label="EDGY" style="font-style:normal;font-weight:400;font-size:11.2889px;line-height:1.25;font-family:sans-serif;white-space:pre;shape-inside:url(#a);fill:#000;fill-opacity:1;stroke:none" transform="translate(18.268 -3.598)"><path d="M-1.925 50.068v1.468h-6.118v-7.903h5.971v1.468h-4.154v1.716h3.669v1.422h-3.669v1.83z" style="font-style:normal;font-variant:normal;font-weight:700;font-stretch:normal;font-size:11.2889px;font-family:Montserrat;-inkscape-font-specification:&quot;Montserrat Bold&quot;;fill:#ee2436;fill-opacity:1"/><path d="M-.469 43.633h3.59q1.287 0 2.27.497.993.486 1.535 1.377.553.892.553 2.078 0 1.185-.553 2.077-.542.892-1.536 1.388-.982.486-2.269.486h-3.59zm3.5 6.401q1.185 0 1.885-.654.711-.667.711-1.795 0-1.13-.71-1.784-.7-.666-1.886-.666H1.36v4.9zm11.165-2.574h1.67v3.206q-.643.486-1.49.746-.846.26-1.704.26-1.23 0-2.213-.52-.982-.53-1.547-1.456-.553-.937-.553-2.111 0-1.174.553-2.1.565-.937 1.558-1.456.994-.531 2.235-.531 1.04 0 1.886.35.846.35 1.422 1.016l-1.174 1.084q-.847-.892-2.043-.892-.757 0-1.344.316-.587.316-.914.892-.327.576-.327 1.32 0 .734.327 1.31.327.576.903.903.587.316 1.332.316.79 0 1.423-.338z" style="font-style:normal;font-variant:normal;font-weight:700;font-stretch:normal;font-size:11.2889px;font-family:Montserrat;-inkscape-font-specification:&quot;Montserrat Bold&quot;;fill:#fff;fill-opacity:1"/><path d="M21.353 48.736v2.8h-1.829v-2.823l-3.06-5.08h1.942l2.111 3.511 2.111-3.51h1.795z" style="font-style:normal;font-variant:normal;font-weight:700;font-stretch:normal;font-size:11.2889px;font-family:Montserrat;-inkscape-font-specification:&quot;Montserrat Bold&quot;;fill:#ee2436;fill-opacity:1"/></g></g></svg>