<svg xmlns="http://www.w3.org/2000/svg" width="200" height="200" viewBox="0 0 52.917 52.917"><defs><path id="a" d="M-45.463 26.286h43.311V48.83h-43.311z"/></defs><rect width="52.917" height="52.917" x="-249.804" y="91.409" rx="3.969" ry="3.969" style="fill:#222;fill-opacity:1;fill-rule:nonzero;stroke:none;stroke-width:.5;stroke-linecap:butt;stroke-linejoin:round;stroke-miterlimit:4;stroke-dasharray:none;stroke-dashoffset:0;stroke-opacity:.909449;paint-order:normal" transform="translate(249.804 -91.41)"/><g style="display:inline"><path d="M-231.804 94.055h7v17.354h25.27v7h-25.27v23.271h-7v-23.27h-15.355v-7h15.355z" style="fill:#fff;fill-opacity:1;fill-rule:nonzero;stroke:none;stroke-width:.5;stroke-linecap:butt;stroke-linejoin:round;stroke-miterlimit:4;stroke-dasharray:none;stroke-dashoffset:0;stroke-opacity:.909449;paint-order:normal" transform="translate(249.804 -91.41)"/><path d="M-244.513 94.055h12.709v17.354h-15.355V96.701a2.64 2.64 0 0 1 2.646-2.646zm12.709 24.355v23.27h-12.709a2.64 2.64 0 0 1-2.646-2.646V118.41zm7-24.355h22.625a2.64 2.64 0 0 1 2.645 2.646v14.708h-25.27zm25.27 24.355v20.624a2.64 2.64 0 0 1-2.645 2.646h-22.625v-23.27z" style="fill:#000;fill-opacity:1;fill-rule:nonzero;stroke:none;stroke-width:.5;stroke-linecap:butt;stroke-linejoin:round;stroke-miterlimit:4;stroke-dasharray:none;stroke-dashoffset:0;stroke-opacity:.909449;paint-order:normal" transform="translate(249.804 -91.41)"/><path d="M36.81 24.275h7.43v6.681l-8.179-.608z" style="display:inline;fill:#fff;fill-opacity:1;stroke-width:1.265;stroke-linecap:round;paint-order:stroke fill markers"/></g><g style="display:inline"><path d="M-248.35 128.451v8.335a5.544 5.544 0 0 0 5.557 5.556h38.894a5.544 5.544 0 0 0 5.556-5.556v-8.335z" style="fill:#222;fill-opacity:1;fill-rule:nonzero;stroke:none;stroke-width:.5;stroke-linecap:butt;stroke-linejoin:round;stroke-miterlimit:4;stroke-dasharray:none;stroke-dashoffset:0;stroke-opacity:.909449;paint-order:normal" transform="translate(249.804 -91.41)"/><g style="fill:#222;fill-opacity:1;stroke-width:1.26015"><path d="M127.503 162.024c2.223-.349 4.445.038 6.654.228 1.876.249 3.632 1.101 5.188 2.142 1.602 1.528 3.116 3.21 4.116 5.19.79 1.934 1.815 3.804 2.03 5.924.702 2.424.562 4.989.245 7.453-.044 2.95-1.69 5.95-4.422 7.218-1.864.92-4.017 1.076-6.048 1.369-2.989-.052-5.99.112-8.97-.096-1.748-.384-3.699-.362-5.306-1.08.85-.645 2.141-1.536 1.815-2.759-.329-.936-1.449-1.442-1.748-2.3 1.644-.215 3.317-.013 4.949-.364 1.606.409 1.245-1.35 2.42-1.795-.033-1.024-1.166-1.575-1.763-2.327-.53-.844-2.374-1.873-.685-2.607 1.215-.858 2.602-1.556 3.665-2.577.07-1.111.862-2.375-.566-3.013-.006-.846 1.784-1.174 1.965-2.257.038-1.282-1.848-1.426-2.706-2.07-1.3-.67-2.663-1.278-4.128-1.449a32.801 32.801 0 0 0 1.216-3.388c-.305-1.508 1.068-1.007 2.079-1.442m15.184 21.981c1.283-.029 1.177-3.335-.046-2.07.046 2.066-1.883-.186-2.496.869.032.879 1.8 1.384 2.542 1.202m-1.309-2.854c.712-1.046.378-2.77.06-4.004-.522-1.4-2.32-1.542-3.572-1.902-2.097-.157-4.644.968-5.035 3.245-1.006 1.93 1.823.223 2.707.66 2.067.297 4.001 1.026 5.839 2.001" style="fill:#222;fill-opacity:1;stroke-width:1.26015" transform="rotate(3 2244.377 -1228.947) scale(.79356)"/><path d="M119.516 156.222c2.038-.262 4.25-.36 6.069.775 1.48.566 2.496 1.962 3.042 3.378-1.439.67-3.148.844-4.659 1.391-.03 1.058-.499 2.24-.141 3.323-.824.745-1.671 2.298-.083 2.727 2.1.303 3.984 1.322 5.822 2.316-.12 1.06-2.45 1.215-1.691 2.753.654.774.855 2.354-.255 2.833-1.149 1.176-1.682-.686-2.572-1.187-1.714-1.087-4.294-1.044-5.664.605-1.158 1.05-2.242 2.43-1.987 4.099-.74 1.754 1.26 1.483 2.383 1.46 1.683-.07 3.345.194 5.002.409 1.04.136 2.434 1.597 1.08 2.349-1.784 1.208-4.091.344-6.044.847-1.104.881.569 1.963 1.114 2.71 1.262.822-.064 2.049-.9 2.57-1.065.787-2.2-.486-3.255-.586.515 1.815 2.776 2.238 3.73 3.773 1.043 1.439 2.534 3.15 2.046 5.014-1.154-1.493-2.312-3.183-4.161-3.897-1.582-.927-3.604-1.093-4.832-2.6-1.135-1.07-.82-2.733-1.023-4.085-1.535 1.133-3.09 2.785-5.2 2.497-1.85.013-3.754-.342-5.277-1.45-1.852-1.109-3.336-2.739-5.211-3.801-.813-.387-3.757-.197-1.91-1.455 1.253-1.07 3.13-1.77 4.624-.743 1.503 1.119 2.9 2.897 4.996 2.676 1.322.046 3.096.137 3.923-1.032-1.633.01-3.451.139-4.716-1.111-2.507-2.429-2.91-6.075-4.003-9.218-.418-1.658-2.002-2.763-3.701-2.657-1.922-.08-1.005-1.67.407-1.682 1.734-.24 3.647.169 5.036 1.283 1.42 1.365 2.51 3.106 2.925 5.04.506 1.186.378 2.743 1.275 3.7 1.696.502 1.714-1.866 1.94-2.958.297-1.822.552-3.652.492-5.507.23-1.675.357-3.365.856-4.995.76-2.06 1.742-4.113 3.24-5.738 1.683-1.408 3.347-3.118 5.618-3.484.547-.15 1.11-.223 1.663-.34" style="fill:#222;fill-opacity:1;stroke-width:1.26015" transform="rotate(3 2244.377 -1228.947) scale(.79356)"/></g><g style="font-style:normal;font-weight:400;font-size:10.5833px;line-height:1.25;font-family:sans-serif;white-space:pre;shape-inside:url(#a);fill:#fff;fill-opacity:1;stroke:none" transform="translate(50.919 11.679)"><path d="M-37.79 28.604v7.408h-1.714v-3.037h-3.366v3.037h-1.714v-7.408h1.714v2.92h3.366v-2.92zm5.345 7.536q-1.154 0-2.085-.498-.921-.498-1.45-1.365-.519-.879-.519-1.969t.519-1.958q.529-.878 1.45-1.376.931-.497 2.085-.497 1.153 0 2.074.497.92.498 1.45 1.376.529.868.529 1.958 0 1.09-.53 1.969-.528.867-1.45 1.365-.92.497-2.073.497zm0-1.461q.656 0 1.185-.297.529-.307.825-.846.307-.54.307-1.228t-.307-1.228q-.296-.54-.825-.836-.53-.307-1.185-.307-.657 0-1.186.307-.529.297-.836.836-.296.54-.296 1.228t.296 1.228q.307.54.836.846.53.297 1.186.297zm10.065 1.333-1.43-2.064h-1.576v2.064h-1.715v-7.408h3.207q.984 0 1.704.328.73.328 1.122.931.391.604.391 1.429 0 .826-.402 1.429-.392.592-1.122.91l1.662 2.381zm-.032-4.72q0-.624-.403-.952-.402-.34-1.174-.34h-1.397v2.583h1.397q.772 0 1.174-.338.403-.34.403-.953zm9.884-2.688v7.408h-1.407l-3.694-4.498v4.498h-1.693v-7.408h1.418l3.683 4.498v-4.498zm5.313 4.784v2.624h-1.714v-2.646l-2.868-4.762h1.82l1.979 3.291 1.979-3.291h1.683z" aria-label="HORNY" style="font-style:normal;font-variant:normal;font-weight:700;font-stretch:normal;font-family:Montserrat;-inkscape-font-specification:&quot;Montserrat Bold&quot;;fill:#fff"/></g></g></svg>