<svg xmlns="http://www.w3.org/2000/svg" width="200" height="200" viewBox="0 0 52.917 52.917"><defs><path id="a" d="M-73.152-5.8h68.474V9.728h-68.474z"/></defs><g transform="translate(249.804 -91.41)"><rect width="52.917" height="52.917" x="-249.804" y="91.409" rx="3.969" ry="3.969" style="fill:#222;fill-opacity:1;fill-rule:nonzero;stroke:none;stroke-width:.5;stroke-linecap:butt;stroke-linejoin:round;stroke-miterlimit:4;stroke-dasharray:none;stroke-dashoffset:0;stroke-opacity:.909449;paint-order:normal"/><path d="M-244.513 94.055h42.334a2.64 2.64 0 0 1 2.645 2.646v42.333a2.64 2.64 0 0 1-2.645 2.646h-42.334a2.64 2.64 0 0 1-2.646-2.646V96.701a2.64 2.64 0 0 1 2.646-2.646z" style="fill:red;fill-opacity:1;fill-rule:nonzero;stroke:none;stroke-width:.5;stroke-linecap:butt;stroke-linejoin:round;stroke-miterlimit:4;stroke-dasharray:none;stroke-dashoffset:0;stroke-opacity:.909449;paint-order:normal"/><path d="M-201.148 94.263a2.64 2.64 0 0 1 1.407 1.406l-46.095 32.782h-1.322v-1.323z" style="fill:#ffd42a;fill-opacity:1;fill-rule:nonzero;stroke:none;stroke-width:.5;stroke-linecap:butt;stroke-linejoin:round;stroke-miterlimit:4;stroke-dasharray:none;stroke-dashoffset:0;stroke-opacity:.909449;paint-order:normal"/><path d="m-245.53 94.243 7.28 5.2 2.821-3.986 10.588 7.497-2.852 4.03 13.127 9.422-1.067 1.507-1.818 2.568 7.625 5.398 1.806-2.552 1.078-1.521v-.002l5.132 3.633-.016.023 2.307 1.648v1.323h-1.323l-5.698-4.052-2.854 4.03-10.588-7.496 2.87-4.053-13.198-9.386 1.12-1.559.02.013 1.799-2.542-7.625-5.398-1.777 2.51.002.001-1.12 1.584-9.046-6.434a2.64 2.64 0 0 1 1.407-1.406z" style="fill:#ffd42a;fill-opacity:1;stroke-width:1.265;stroke-linecap:round;paint-order:stroke fill markers"/><path d="M-233.808 115.544h9.495v7.577h-9.495z" style="fill:red;fill-opacity:1;stroke-width:1.26501;stroke-linecap:round;paint-order:stroke fill markers"/><path d="M-218.233 116.54h7.858v5.973h-7.858z" style="fill:red;fill-opacity:1;stroke-width:1.265;stroke-linecap:round;paint-order:stroke fill markers"/></g><g style="display:inline"><path d="M137.364 190.747c1.078.056 2.164.644 3.299.659 1.47.278 2.946.493 4.444.541 1.825.447 3.744-.062 5.569.392 2.285.155 4.583-.01 6.868.104.461.518-.009 1.594.12 2.356-.024 1.543.104 3.101-.241 4.62-.172 1.245-.408 2.472-.874 3.641-.052.695-.754.379-1.206.448h-23.587c-.117-1.147.578-2.166.541-3.308.471-2.539 1.865-4.766 3.023-7.036.63-.836 1.138-1.842 2.044-2.418m6.678 7.39c.954-.841.139-2.678-.449-3.7-.932-1-2.644-.768-3.78-.214-1.198.592-2.175 2.076-1.463 3.386.822.8 1.564-.005 1.546-.934.446-.933 2.383-2.062 2.685-.488.362.762.156 2.248 1.462 1.95m7.39-.012c.621-.594.518-3.065 2.056-2.218 1.014.421.63 2.616 2.195 1.862.396-1.209-.015-2.513-1.066-3.227-1.213-.847-3.285-.763-3.936.751-.52.795-.82 3.143.75 2.831m-6.679-17.85c.98-.5 2.146-.228 3.217-.294 1.72-.073 3.377.48 5.085.562 1.445.289 2.945.175 4.357.654 1.111.316 2.912.725 2.59 2.271-.388 1.323-.389 2.716-.83 4.018-.507 1.188-.337 2.79-1.203 3.725-1.611.247-3.26.096-4.89.138a16.85 16.85 0 0 1-3.498-.26c-1.504-.027-3.02.093-4.5-.241-1.212.02-2.404-.193-3.595-.376-1-1.009.167-2.49.438-3.61.48-2.31 1.63-4.394 2.728-6.458l.1-.13m-2.194-.151c1.588-.287-.21 1.809-.367 2.517-.743 1.339-1.078 2.833-1.513 4.284-.736.93-.273 3.03-1.794 3.028-1.74.071-1.188-1.991-.914-3.045.231-1.724.988-3.316 1.39-5 .19-1.527 1.794-1.688 3.018-1.742l.18-.042" style="fill:#222;fill-opacity:1;stroke-width:.776937" transform="translate(-161.32 -224.378) scale(1.2871)"/><path d="M-248.35 128.451v8.335a5.544 5.544 0 0 0 5.557 5.556h38.894a5.544 5.544 0 0 0 5.556-5.556v-8.335z" style="fill:#222;fill-opacity:1;fill-rule:nonzero;stroke:none;stroke-width:.5;stroke-linecap:butt;stroke-linejoin:round;stroke-miterlimit:4;stroke-dasharray:none;stroke-dashoffset:0;stroke-opacity:.909449;paint-order:normal" transform="translate(249.804 -91.41)"/><g aria-label="INCLUSIVE" style="font-style:normal;font-weight:400;font-size:8.46667px;line-height:1.25;font-family:sans-serif;white-space:pre;shape-inside:url(#a);fill:#000;fill-opacity:1;stroke:none" transform="translate(75.68 44.967)"><path d="M-72.45-3.944h1.372v5.927h-1.372zm8.213 0v5.927h-1.126l-2.955-3.599v3.599h-1.355v-5.927h1.135l2.946 3.598v-3.598Z" style="font-style:normal;font-variant:normal;font-weight:700;font-stretch:normal;font-size:8.46667px;font-family:Montserrat;-inkscape-font-specification:&quot;Montserrat Bold&quot;;fill:red;fill-opacity:1"/><path d="M-59.995 2.084q-.906 0-1.643-.389-.728-.398-1.151-1.092-.415-.703-.415-1.584 0-.88.415-1.574.423-.703 1.151-1.093.737-.397 1.651-.397.77 0 1.389.27.626.271 1.05.78l-.88.812q-.602-.694-1.491-.694-.55 0-.982.245-.432.238-.677.67-.237.431-.237.981t.237.983q.245.431.677.677.432.237.982.237.889 0 1.49-.703l.88.813q-.423.517-1.05.788-.626.27-1.396.27z" style="font-style:normal;font-variant:normal;font-weight:700;font-stretch:normal;font-size:8.46667px;font-family:Montserrat;-inkscape-font-specification:&quot;Montserrat Bold&quot;;fill:#ffd42a;fill-opacity:1"/><path d="M-56.625-3.944h1.371v4.81h2.972v1.117h-4.343zm7.67 6.028q-1.27 0-1.98-.702-.704-.703-.704-2.007v-3.319h1.372v3.268q0 1.592 1.32 1.592.644 0 .983-.381.339-.39.339-1.21v-3.269h1.354v3.32q0 1.303-.71 2.006-.704.702-1.974.702zm5.986 0q-.702 0-1.363-.186-.652-.195-1.05-.5l.466-1.032q.38.28.906.448.525.17 1.05.17.584 0 .863-.17.28-.177.28-.465 0-.212-.17-.347-.16-.144-.423-.229-.254-.085-.694-.186-.678-.161-1.11-.322-.431-.16-.744-.516-.305-.356-.305-.949 0-.516.28-.931.279-.423.837-.669.568-.245 1.38-.245.568 0 1.11.135.541.135.948.39l-.423 1.04q-.822-.465-1.643-.465-.576 0-.855.186-.271.187-.271.492 0 .304.313.457.322.144.974.288.677.16 1.109.321.432.161.737.508.313.347.313.94 0 .508-.288.931-.28.415-.847.66-.567.246-1.38.246z" style="font-style:normal;font-variant:normal;font-weight:700;font-stretch:normal;font-size:8.46667px;font-family:Montserrat;-inkscape-font-specification:&quot;Montserrat Bold&quot;;fill:red;fill-opacity:1"/><path d="M-39.514-3.944h1.371v5.927h-1.371z" style="font-style:normal;font-variant:normal;font-weight:700;font-stretch:normal;font-size:8.46667px;font-family:Montserrat;-inkscape-font-specification:&quot;Montserrat Bold&quot;;fill:#ffd42a;fill-opacity:1"/><path d="m-31.073-3.944-2.565 5.927h-1.355l-2.557-5.927h1.482L-34.265.29l1.829-4.233zm5.08 4.826v1.1h-4.589v-5.926h4.479v1.1h-3.116v1.288h2.752V-.49h-2.752V.882z" style="font-style:normal;font-variant:normal;font-weight:700;font-stretch:normal;font-size:8.46667px;font-family:Montserrat;-inkscape-font-specification:&quot;Montserrat Bold&quot;;fill:red;fill-opacity:1"/></g></g></svg>