<svg xmlns="http://www.w3.org/2000/svg" width="200" height="200" viewBox="0 0 52.917 52.917"><rect width="52.917" height="52.917" x="-249.804" y="91.409" rx="3.969" ry="3.969" style="fill:#222;fill-opacity:1;fill-rule:nonzero;stroke:none;stroke-width:.5;stroke-linecap:butt;stroke-linejoin:round;stroke-miterlimit:4;stroke-dasharray:none;stroke-dashoffset:0;stroke-opacity:.909449;paint-order:normal" transform="translate(249.804 -91.41)"/><g style="display:inline"><path d="M-244.513 94.055h42.334a2.64 2.64 0 0 1 2.645 2.646v42.333a2.64 2.64 0 0 1-2.645 2.646h-42.334a2.64 2.64 0 0 1-2.646-2.646V96.701a2.64 2.64 0 0 1 2.646-2.646z" style="fill:#00f;fill-opacity:1;fill-rule:nonzero;stroke:none;stroke-width:.5;stroke-linecap:butt;stroke-linejoin:round;stroke-miterlimit:4;stroke-dasharray:none;stroke-dashoffset:0;stroke-opacity:.909449;paint-order:normal" transform="translate(249.804 -91.41)"/><path d="M-244.513 94.055h42.334c.732 0 1.394.295 1.872.774l-46.852 33.622v-31.75a2.64 2.64 0 0 1 2.646-2.646z" style="fill:#fdfd00;fill-opacity:1;fill-rule:nonzero;stroke:none;stroke-width:.5;stroke-linecap:butt;stroke-linejoin:round;stroke-miterlimit:4;stroke-dasharray:none;stroke-dashoffset:0;stroke-opacity:.909449;paint-order:normal" transform="translate(249.804 -91.41)"/><path d="m23.515 22.423 6.35.761-1.158 4.399-6.482.264c-.352-2.82.144-4.543 1.29-5.424z" style="fill:#fdfd00;fill-opacity:1;stroke:none;stroke-width:4.99999;stroke-linecap:round;stroke-miterlimit:5.15;paint-order:stroke fill markers"/></g><g style="display:inline"><path d="M1.455 37.042v8.334a5.544 5.544 0 0 0 5.556 5.556h38.894a5.544 5.544 0 0 0 5.556-5.556v-8.334z" style="fill:#222;fill-opacity:1;fill-rule:nonzero;stroke:none;stroke-width:.5;stroke-linecap:butt;stroke-linejoin:round;stroke-miterlimit:4;stroke-dasharray:none;stroke-dashoffset:0;stroke-opacity:.909449;paint-order:normal"/><g style="fill:#222;fill-opacity:1"><path d="M20.09 33.742q.032-.053.133-.074.101-.021.22-.055.118-.033.268-.034l.299-.003q.148-.003.272.008.123.01.248.037.124.027.186.033.062.006.17.032.106.026.23.045.122.019.201.025l.238.015.283.017q.125.007.252.01l.263.01q.137.005.252.015.115.01.227.034.112.023.243.062.13.04.21.056l.18.036q.1.02.233.034.132.013.26.023.127.01.267.031.14.021.27.045.13.023.215.052.085.028.139.042.053.015.163.04.11.026.257.043.147.016.276.02l.248.002q.119 0 .283.03.165.028.234.043.07.014.14.037t.173.045q.103.023.222.047l.277.054q.158.03.263.058l.212.054q.108.027.179.04.07.015.192.045.12.031.22.033.098.002.247.012.15.01.29.037l.282.054.22.042q.077.015.192.042.115.027.139.03l.165.014q.142.013.299.033.156.021.263.038.106.017.243.047t.227.053l.19.05q.1.026.21.04.11.016.267.032.158.016.254.024.097.008.225.026.127.017.268.043.142.026.216.044l.156.037q.08.02.2.056l.24.07q.12.033.258.06.138.028.209.046.07.02.173.044.104.025.23.053.126.027.215.05l.21.056q.123.031.203.054.08.022.183.06.103.036.191.06.088.022.234.05l.275.056q.13.027.2.056.069.028.174.057l.157.045q.053.015.189.063.136.047.233.085.097.037.2.083.104.046.203.095.098.05.184.087.086.038.15.064.065.026.167.072l.212.095q.11.049.166.084.056.034.159.117.103.083.14.138.038.055.061.137.022.083.069.21.046.127.047.23 0 .104-.014.217-.014.112-.038.271l-.035.224q-.01.064-.032.153l-.043.196-.051.248q-.03.14-.06.259l-.056.217q-.027.098-.045.156-.018.057-.043.145-.025.088-.065.218-.039.13-.078.247-.038.118-.087.214-.049.095-.088.179l-.064.14q-.025.056-.076.16-.05.105-.079.186l-.082.228q-.054.147-.084.212-.03.065-.079.155-.048.09-.082.144-.035.054-.102.167l-.123.207q-.056.095-.102.162l-.114.163q-.068.096-.112.17-.045.073-.08.137-.035.063-.104.146-.068.083-.104.138-.036.055-.116.143-.08.089-.135.132-.055.044-.112.085-.057.04-.164.104-.108.063-.215.117-.107.055-.193.068-.085.013-.206.02-.121.009-.266.022-.146.013-.275.02l-.249.008q-.119.003-.26.004h-1.337q-.136-.001-.267-.016-.13-.014-.23-.032-.1-.018-.23-.047-.132-.029-.211-.05-.08-.02-.126-.029l-.209-.04q-.163-.033-.293-.067-.13-.033-.242-.067-.112-.034-.17-.057-.056-.023-.135-.072-.08-.05-.182-.11-.104-.061-.188-.12-.084-.057-.169-.124t-.128-.108q-.043-.042-.118-.096l-.15-.112q-.075-.057-.157-.108-.082-.05-.158-.112-.075-.062-.14-.123-.065-.061-.123-.13-.059-.07-.115-.142l-.14-.18q-.082-.107-.13-.18-.05-.073-.09-.14l-.065-.115q-.024-.047-.055-.118l-.104-.233q-.073-.163-.103-.24-.03-.077-.048-.156-.02-.078-.058-.212-.038-.134-.061-.227-.024-.092-.077-.222l-.088-.208q-.033-.078-.1-.134-.065-.056-.176-.134-.11-.078-.159-.098-.048-.02-.115-.01-.066.012-.125.055t-.123.1l-.135.12q-.07.062-.132.125l-.13.13-.132.132-.133.133-.14.138-.122.116-.13.12q-.082.074-.148.117-.066.044-.176.102-.111.058-.19.105-.078.047-.147.082l-.164.085-.17.088-.173.089q-.1.051-.198.098l-.21.101q-.113.054-.18.075-.066.022-.149.038-.082.016-.197.05l-.25.073q-.134.038-.209.067-.074.029-.22.069-.145.04-.221.05-.077.011-.212.022-.134.01-.275.018-.14.007-.233.008-.093 0-.24.006-.148.004-.28.004-.133 0-.265-.007t-.282-.034q-.15-.027-.192-.039-.041-.012-.148-.036-.106-.024-.196-.047l-.225-.056q-.137-.032-.27-.076-.132-.045-.212-.083-.08-.039-.166-.089-.086-.05-.143-.091-.057-.041-.118-.1-.06-.057-.147-.13-.087-.073-.153-.14l-.132-.132-.133-.133-.132-.132-.133-.132q-.066-.067-.143-.149-.078-.082-.134-.162-.057-.08-.112-.141-.054-.062-.084-.148-.03-.087-.07-.213-.04-.126-.073-.218-.032-.092-.045-.14-.013-.049-.033-.172-.02-.123-.035-.246-.014-.124-.022-.257l-.018-.302-.016-.27q-.006-.098-.008-.23l-.001-.266v-.265q0-.132.008-.277l.017-.285q.01-.141.03-.244.02-.103.047-.2l.056-.198q.028-.1.065-.222.038-.121.064-.198l.055-.163q.027-.086.067-.19.04-.105.065-.196.026-.09.066-.21l.084-.256q.042-.135.062-.181l.059-.135q.038-.09.094-.17.055-.08.11-.154l.118-.163q.063-.089.107-.159l.1-.163.089-.146m.382 5.774q.122-.007.19-.06.069-.052.083-.112.015-.06.033-.155.018-.096.032-.24.014-.146.022-.25.007-.103.01-.244.004-.14.015-.284l.021-.255q.01-.11.03-.29.02-.178.04-.258.02-.08.035-.13l.06-.18q.043-.131.07-.195.027-.064.077-.15.05-.087.135-.193.086-.107.15-.169.064-.062.127-.075.064-.013.173-.023.11-.01.228-.018.118-.01.274-.01.156-.001.288-.004.132-.003.255.002t.244.02q.121.016.237.038.117.022.238.052.122.03.185.036.064.006.223.028.16.021.288.035.129.014.236.02.106.007.227.031.122.025.24.045.116.02.241.05l.165.039q.04.009.182.03.142.02.268.03.126.008.247-.002.12-.01.266-.035.144-.026.184-.037.04-.01.051-.083.012-.072.011-.152-.001-.08-.011-.143-.01-.063-.07-.128-.062-.064-.156-.152-.095-.088-.193-.143l-.147-.081-.173-.09q-.123-.064-.214-.098t-.183-.054q-.091-.019-.213-.034-.123-.014-.27-.024-.145-.01-.257-.015l-.231-.01q-.119-.003-.248-.022-.129-.018-.215-.037-.087-.018-.186-.044-.1-.025-.2-.039-.1-.014-.193-.025-.095-.01-.24-.028-.146-.018-.315-.035-.17-.018-.273-.02-.104-.004-.25-.007-.145-.003-.267-.002l-.263.004q-.141.003-.292.02-.15.019-.229.051-.079.033-.23.081-.15.048-.212.092-.062.043-.13.094-.068.05-.115.089-.047.039-.137.129-.09.09-.126.136-.035.046-.076.122-.04.075-.075.154-.035.078-.086.213-.05.134-.066.183l-.058.182q-.042.133-.062.254-.02.12-.038.21-.02.09-.035.257-.016.167-.018.275l-.004.24q-.003.132-.003.277 0 .146.003.26.003.113.01.243.006.131.024.252.018.121.068.21.05.09.118.19.068.098.091.118.024.02.133.035.11.015.232.008m10.314 2.124q.142.007.185-.024.043-.032.069-.126l.05-.177q.025-.083.019-.221-.006-.139-.024-.243-.018-.104-.039-.203l-.039-.198q-.018-.098-.03-.183l-.026-.207q-.014-.123-.022-.275-.007-.152-.008-.277 0-.125-.006-.26-.005-.137-.005-.27 0-.132.007-.288.007-.155.018-.256.01-.101.046-.28.035-.178.053-.219.017-.041.082-.056t.185-.026q.12-.012.277-.018.156-.007.273.014.116.021.2.043l.167.041q.08.02.184.043l.224.05q.121.025.284.069l.262.07q.097.026.144.036l.116.022q.069.014.231.027l.28.022q.12.01.29.018.172.008.28.01l.235.009q.125.004.262.006.138.002.263-.003t.261-.017q.136-.012.273-.035.137-.024.208-.049.07-.024.083-.104.012-.079.015-.158.003-.08-.01-.2-.015-.12-.089-.162-.074-.042-.18-.082-.104-.04-.164-.061-.059-.022-.19-.082-.133-.059-.216-.06-.083 0-.246-.011-.163-.012-.292-.016-.129-.004-.25-.01-.123-.008-.241-.025-.119-.018-.277-.052-.157-.034-.258-.059-.1-.025-.153-.034-.052-.01-.179-.03-.126-.022-.267-.049l-.226-.045q-.086-.017-.2-.057-.116-.04-.171-.063-.055-.023-.19-.058-.136-.034-.24-.05-.105-.015-.218-.034-.113-.018-.285-.05-.171-.03-.24-.044-.069-.013-.142-.02-.073-.008-.155-.001t-.202.028q-.12.022-.176.059-.055.036-.127.093-.071.056-.145.12-.074.065-.124.106-.05.041-.116.129-.067.087-.099.155t-.055.177q-.022.109-.036.212l-.033.229q-.02.125-.033.293l-.021.26q-.007.094-.011.263l-.005.281v.774q0 .133.006.25.007.115.022.236.014.121.036.275.022.155.044.24.02.085.06.192l.065.184q.028.077.1.168.074.091.124.136.049.046.125.106t.143.068q.067.008.21.015" style="fill:#222;fill-opacity:1;stroke-width:.999999" transform="translate(2.698 -12.16)"/><path d="m20.314 27.354.197-.051q.114-.03.237-.042l.233-.024q.11-.013.24-.022t.27-.013l.278-.008q.137-.003.27-.003H27.6q.132 0 .282.008l.278.014q.127.007.21.025l.188.04q.106.022.227.05.121.026.216.058.094.033.213.068.118.036.185.069.066.033.16.067.092.035.218.097.127.062.216.097l.128.05q.038.016.16.062l.274.104q.153.057.227.087.075.03.152.058.077.028.17.069.092.04.165.075l.149.072.17.085.192.097q.098.049.19.102.09.053.184.105.093.053.159.085l.17.086q.103.053.175.087.071.034.168.085.096.051.202.1l.18.087q.077.037.159.092.082.056.17.111.089.056.153.102.064.046.153.102l.173.11.156.103q.07.048.158.112.087.063.145.11.057.047.106.09.05.042.143.133l.16.157.132.132.132.133.132.132.133.132.132.133.133.132.132.133.133.132.132.133q.066.066.105.122.038.056.115.155.077.1.117.165.039.065.1.178l.087.156q.025.044.081.164l.103.212.082.17q.037.075.095.184l.103.191q.044.082.096.184.051.103.086.179.035.075.07.158.036.082.069.152.033.07.071.173l.09.243q.05.142.073.214.022.072.04.15.017.076.03.184l.027.241.019.18q.004.044-.047.051-.05.007-.137-.013l-.174-.04q-.087-.02-.225-.066-.139-.046-.255-.08l-.171-.05q-.056-.017-.17-.055-.113-.037-.237-.073l-.186-.055q-.063-.019-.164-.042-.102-.024-.192-.042l-.235-.042-.283-.05q-.139-.025-.249-.052l-.204-.05-.165-.045q-.069-.02-.16-.037-.09-.018-.228-.043-.138-.025-.27-.07-.131-.044-.224-.078-.093-.035-.197-.057-.103-.023-.179-.036l-.227-.04q-.153-.026-.287-.044-.134-.019-.233-.038-.1-.018-.211-.045l-.193-.045q-.082-.017-.162-.037-.08-.019-.246-.035-.166-.015-.282-.029-.115-.014-.24-.035-.125-.02-.252-.045-.128-.024-.217-.044-.09-.02-.158-.038-.068-.017-.193-.038-.125-.02-.273-.04-.147-.018-.265-.03l-.224-.022q-.106-.01-.27-.042-.166-.031-.256-.06l-.149-.045q-.058-.017-.134-.026-.076-.008-.2-.025-.126-.017-.31-.038-.185-.02-.275-.04-.09-.02-.273-.065-.183-.044-.243-.057l-.134-.027q-.074-.016-.157-.028t-.251-.032l-.306-.036q-.138-.015-.27-.045l-.184-.043q-.054-.013-.14-.029-.086-.015-.167-.036-.082-.02-.211-.04-.13-.022-.28-.045-.15-.023-.26-.045l-.269-.052q-.16-.032-.283-.062-.123-.03-.177-.04-.055-.011-.171-.03-.117-.02-.237-.029l-.244-.017-.26-.015q-.138-.007-.278-.01l-.254-.006q-.115-.003-.282-.024-.167-.02-.276-.042-.11-.02-.189-.039l-.182-.041-.144-.032q-.04-.01-.202-.025l-.277-.025q-.116-.01-.295-.018l-.281-.014q-.102-.006-.235-.006l-.263.001q-.131.001-.26.02-.129.018-.278.035-.15.016-.242.047-.092.03-.156.078-.065.048-.12.1-.056.053-.116.115-.061.06-.123.148-.062.086-.12.185l-.098.167q-.04.067-.077.14-.037.074-.117.216-.08.142-.115.209t-.068.116q-.033.049-.075.117-.042.069-.092.183-.05.114-.081.19-.03.077-.088.213-.057.136-.097.22-.04.084-.067.145-.027.061-.06.171l-.073.255q-.042.145-.065.218-.023.072-.066.185-.042.114-.052.17-.01.056-.025.194-.016.139-.02.267-.005.128-.013.258-.009.131-.011.283l-.004.28-.002.234v.254l-.001.28v1.06q0 .133.015.246l.037.244q.021.132.06.242l.074.203q.035.093.063.16.028.069.079.172.05.103.078.165.028.062.092.194t.108.21q.044.076.106.153.06.077.112.137.05.06.14.155l.126.133.102.102.132.133q.066.066.147.142l.118.109q.038.033.143.117.105.084.193.146l.126.09.167.125q.129.096.18.128.051.032.148.085.098.052.141.065.044.012.164.053.12.04.24.076l.224.067q.105.03.216.067.112.037.186.052l.16.033q.087.018.231.033.145.015.293.026.149.011.274.014.125.003.228.008l.248.013q.146.007.278.007h.265q.133 0 .281-.004.149-.004.297-.012.148-.007.229-.029l.212-.061.201-.062.14-.044.21-.071q.138-.048.222-.074l.216-.07q.132-.044.175-.056.042-.011.18-.054l.237-.075q.1-.033.169-.06.068-.028.17-.073.104-.046.236-.111.133-.065.171-.086l.17-.097q.133-.076.189-.114.056-.039.112-.082.055-.043.13-.111.073-.068.162-.142l.142-.118q.054-.045.104-.057.05-.013.132.004.083.016.091.03l.067.152.085.203q.026.067.079.159.053.091.106.178l.082.137.11.18q.079.13.117.182l.092.125q.054.073.107.138.054.064.125.129.072.065.141.117l.165.121q.096.07.176.122.079.053.16.119.083.066.171.141l.132.112.1.084q.056.047.128.099.072.052.207.13l.208.124q.074.043.158.084.084.04.155.07.072.03.175.082.102.051.186.077l.174.055q.092.03.232.068l.234.065.208.056q.116.03.202.05.085.02.189.037.104.017.243.031.138.015.245.03.106.017.235.019l.277.005.28.002h1.855q.133 0 .265-.01.132-.008.278-.021.146-.013.232-.027.087-.014.22-.048t.184-.055q.05-.022.15-.074.1-.053.192-.097.093-.044.147-.09.054-.048.133-.111.08-.064.155-.129.076-.064.139-.126.063-.061.137-.144.074-.082.123-.17.05-.089.102-.17.053-.08.108-.15.055-.07.117-.158.063-.088.086-.129.024-.042.08-.126.056-.084.112-.163.056-.08.14-.185.085-.105.16-.186.076-.081.094-.094.018-.013.07-.027.052-.014.067.083.014.098.022.228.008.13.022.25l.027.222q.012.1.013.24v2.394q0 .133-.005.254l-.013.279q-.007.156-.023.251-.016.096-.049.217l-.066.243q-.033.123-.057.19l-.064.18-.071.201q-.032.087-.057.17l-.058.18-.075.226q-.043.128-.07.215-.029.088-.044.168l-.033.171q-.018.09-.04.24-.023.15-.046.27l-.023.12H9.723l-.037-.085q-.037-.086-.077-.169-.04-.083-.082-.181-.043-.098-.089-.195-.046-.098-.073-.15-.026-.052-.083-.148-.057-.097-.126-.238-.07-.14-.09-.192-.02-.053-.04-.146-.018-.094-.035-.198-.018-.104-.04-.26-.023-.156-.048-.287-.026-.132-.052-.24-.027-.11-.032-.14-.005-.032-.044-.166-.04-.134-.066-.258-.027-.123-.05-.257l-.051-.28q-.027-.146-.05-.227-.022-.082-.038-.133-.016-.052-.036-.169-.02-.117-.04-.27-.018-.155-.021-.262-.003-.108-.01-.258-.007-.15-.008-.26 0-.109-.003-.25-.003-.142-.003-.275V40.83q0-.132.002-.243.003-.112.018-.29.016-.177.034-.265l.04-.2q.023-.112.044-.182l.047-.162q.028-.092.078-.219.05-.126.094-.258.045-.132.07-.195.023-.064.079-.166.056-.102.085-.17.03-.068.072-.181.043-.113.068-.186.025-.072.058-.183.033-.11.079-.246l.058-.177.056-.162q.043-.122.082-.22.04-.098.07-.19.032-.09.065-.212l.053-.199q.02-.077.077-.213.056-.136.085-.24.03-.105.06-.173.03-.068.066-.141.035-.073.08-.153t.095-.174q.05-.093.099-.193.05-.1.1-.173l.108-.16.1-.154q.042-.066.085-.129.043-.063.11-.18.066-.117.105-.19.039-.072.068-.132l.084-.17q.054-.11.103-.205.049-.097.101-.188l.094-.161.085-.141q.042-.071.112-.167.07-.097.116-.155l.125-.156q.08-.097.15-.168.07-.07.126-.129.055-.058.122-.124.066-.066.122-.131.057-.065.105-.143.049-.078.114-.17l.121-.165.092-.12.117-.15q.081-.103.148-.179.067-.076.133-.144.065-.068.12-.129.053-.06.12-.126l.132-.132.132-.133.133-.132.132-.133.133-.132.132-.133.132-.132.133-.132.132-.133.133-.132q.066-.066.143-.13l.149-.121q.07-.059.13-.098.06-.04.122-.085l.17-.122q.106-.077.189-.144.082-.067.13-.09.047-.022.175-.087l.195-.099q.068-.034.178-.072.111-.038.253-.092l.196-.077q.053-.022.146-.069l.191-.093q.099-.046.162-.067.062-.02.15-.055t.205-.07q.117-.037.235-.082l.173-.066q.055-.02.14-.039.084-.019.276-.068.19-.05.309-.075.118-.025.189-.047.071-.023.13-.035l.16-.033q.103-.022.262-.045l.283-.04q.123-.018.247-.034.123-.016.221-.04.098-.023.182-.046" style="fill:#222;fill-opacity:1;stroke-width:.999999" transform="translate(2.698 -12.16)"/></g><g aria-label="IRONY" style="font-weight:700;font-size:11.2889px;line-height:1.25;font-family:Montserrat;-inkscape-font-specification:&quot;Montserrat Bold&quot;;fill:#fff;stroke-width:.264583"><path d="M7.702 40.036H9.53v7.902H7.7Zm8.738 7.902-1.525-2.201h-1.682v2.201h-1.828v-7.902h3.42q1.05 0 1.818.35.779.35 1.196.993.418.644.418 1.524t-.429 1.524q-.418.632-1.197.971l1.773 2.54zm-.034-5.035q0-.666-.43-1.016-.428-.361-1.252-.361h-1.49v2.754h1.49q.824 0 1.253-.36.429-.362.429-1.017zm7.123 5.171q-1.23 0-2.224-.531-.982-.53-1.547-1.456-.553-.937-.553-2.1t.553-2.088q.565-.937 1.547-1.468.993-.53 2.224-.53 1.23 0 2.212.53.983.53 1.547 1.468.565.925.565 2.088t-.565 2.1q-.564.925-1.547 1.456-.982.53-2.212.53zm0-1.558q.7 0 1.264-.316.565-.328.88-.904.328-.575.328-1.309t-.327-1.31q-.316-.575-.88-.891-.565-.328-1.265-.328t-1.264.328q-.565.316-.892.891-.316.576-.316 1.31 0 .734.316 1.31.327.575.892.903.564.316 1.264.316z" style="font-size:11.2889px;fill:#fdfd00;stroke-width:.264583;fill-opacity:1"/><path d="M36.477 40.036v7.902h-1.501l-3.94-4.798v4.798H29.23v-7.902h1.512l3.929 4.798v-4.798zm5.667 5.102v2.8h-1.829v-2.822l-3.059-5.08h1.942l2.11 3.51 2.112-3.51h1.795z" style="font-size:11.2889px;fill:#00f;stroke-width:.264583;fill-opacity:1"/></g></g></svg>