<svg xmlns="http://www.w3.org/2000/svg" width="200" height="200" viewBox="0 0 52.917 52.917"><rect width="52.917" height="52.917" x="-249.804" y="91.409" rx="3.969" ry="3.969" style="fill:#222;fill-opacity:1;fill-rule:nonzero;stroke:none;stroke-width:.5;stroke-linecap:butt;stroke-linejoin:round;stroke-miterlimit:4;stroke-dasharray:none;stroke-dashoffset:0;stroke-opacity:.909449;paint-order:normal" transform="translate(249.804 -91.41)"/><g style="display:inline"><path d="M-244.513 94.055h42.334a2.64 2.64 0 0 1 2.645 2.646v42.333a2.64 2.64 0 0 1-2.645 2.646h-42.334a2.64 2.64 0 0 1-2.646-2.646V96.701a2.64 2.64 0 0 1 2.646-2.646z" style="fill:#ad39df;fill-opacity:1;fill-rule:nonzero;stroke:none;stroke-width:.5;stroke-linecap:butt;stroke-linejoin:round;stroke-miterlimit:4;stroke-dasharray:none;stroke-dashoffset:0;stroke-opacity:.909449;paint-order:normal" transform="translate(249.804 -91.41)"/><path d="M-244.513 94.055h42.334c.732 0 1.394.295 1.872.774l-46.852 33.622v-31.75a2.64 2.64 0 0 1 2.646-2.646z" style="fill:#ff0;fill-opacity:1;fill-rule:nonzero;stroke:none;stroke-width:.5;stroke-linecap:butt;stroke-linejoin:round;stroke-miterlimit:4;stroke-dasharray:none;stroke-dashoffset:0;stroke-opacity:.909449;paint-order:normal" transform="translate(249.804 -91.41)"/><path d="M15.346 23.746h8.599v7.276h-8.599z" style="fill:#ff0;fill-opacity:1;stroke:none;stroke-width:1.265;stroke-linecap:round;paint-order:stroke fill markers"/></g><g style="display:inline"><path d="M-248.35 128.451v8.335a5.544 5.544 0 0 0 5.557 5.556h38.894a5.544 5.544 0 0 0 5.556-5.556v-8.335z" style="fill:#222;fill-opacity:1;fill-rule:nonzero;stroke:none;stroke-width:.5;stroke-linecap:butt;stroke-linejoin:round;stroke-miterlimit:4;stroke-dasharray:none;stroke-dashoffset:0;stroke-opacity:.909449;paint-order:normal" transform="translate(249.804 -91.41)"/><g aria-label="JANNYPHOBE" style="font-weight:700;font-size:6.35px;line-height:1.25;font-family:Montserrat;-inkscape-font-specification:&quot;Montserrat Bold&quot;;fill:#eee;fill-opacity:1;stroke-width:.264583"><path d="M4.548 46.286q-.451 0-.832-.165-.375-.172-.616-.483l.571-.686q.362.49.826.49.629 0 .629-.737V42.59H3.563v-.826h2.585v2.883q0 .82-.406 1.232-.407.407-1.194.407zm5.448-1.029H7.932l-.393.952H6.484l1.982-4.445h1.016l1.987 4.445h-1.08zm-.324-.781-.705-1.702-.705 1.702zm6.338-2.712v4.445h-.845l-2.216-2.698v2.698h-1.016v-4.445h.85l2.21 2.7v-2.7zm5.13 0v4.445h-.844l-2.216-2.698v2.698h-1.016v-4.445h.85l2.21 2.7v-2.7zm3.188 2.871v1.574h-1.029v-1.587l-1.72-2.858h1.092l1.187 1.975 1.187-1.975h1.01z" style="font-size:6.35px;fill:#ff0;fill-opacity:1;stroke-width:.264583"/><path d="M28.366 41.764q.591 0 1.023.197.438.197.673.56.235.361.235.856 0 .49-.235.858-.235.362-.673.558-.432.19-1.023.19h-.895v1.226h-1.029v-4.445zm-.057 2.382q.464 0 .705-.197.241-.203.241-.572 0-.374-.24-.571-.242-.203-.706-.203h-.838v1.543zm6.795-2.382v4.445h-1.029v-1.822h-2.02v1.822h-1.028v-4.445h1.029v1.753h2.02v-1.753zm3.206 4.522q-.692 0-1.25-.299-.553-.298-.87-.819-.311-.527-.311-1.181t.31-1.175q.318-.527.87-.825.56-.299 1.252-.299t1.244.299q.553.298.87.825.318.52.318 1.175 0 .654-.318 1.181-.317.52-.87.82-.552.298-1.244.298zm0-.877q.394 0 .712-.177.317-.185.495-.508.184-.324.184-.737t-.184-.737q-.178-.323-.495-.501-.318-.184-.711-.184-.394 0-.712.184-.317.178-.501.501-.178.324-.178.737t.178.737q.184.323.501.508.318.177.712.177zm6.471-1.511q.381.12.597.406.216.28.216.693 0 .584-.457.901-.451.311-1.321.311h-2.299v-4.445h2.172q.813 0 1.245.312.438.31.438.844 0 .324-.159.578-.152.254-.432.4zM42.54 42.54v1.048h1.022q.381 0 .578-.133.197-.134.197-.394t-.197-.387q-.197-.134-.578-.134zm1.2 2.896q.406 0 .61-.134.209-.133.209-.412 0-.553-.82-.553h-1.2v1.099zm6.077-.052v.825h-3.442v-4.445h3.36v.826h-2.338v.965h2.064v.8h-2.064v1.029z" style="font-size:6.35px;fill:#ad39df;fill-opacity:1;stroke-width:.264583"/></g><path d="M13.895 6.494q.144-.043.217-.054l.168-.023q.095-.012.177-.015l.215-.01.251-.01q.119-.007.21-.007l.205-.001h2.664q.11 0 .217.008l.21.016q.104.008.184.022.08.014.208.048.128.033.184.06.056.026.126.064l.158.084q.087.046.127.077l.105.079q.064.047.129.107l.126.118q.062.059.108.1.046.043.101.098.055.055.103.123l.076.108.076.112q.047.07.093.15l.09.158q.043.076.092.171l.077.149q.029.054.046.09l.063.135.094.194.071.145q.023.048.073.145l.078.152q.029.055.053.128l.057.165.069.197.054.158q.017.05.03.099l.041.158q.029.11.054.217l.05.205q.023.098.05.18l.046.143.054.164q.033.1.059.213.026.113.05.194l.053.178q.029.097.049.176.02.079.04.17l.042.174q.02.081.052.176l.053.16q.02.068.036.155.016.087.029.18.013.094.034.187.02.092.054.217t.048.184q.014.058.067.064l.17.017.225.018q.11.006.213.007t.193-.028q.09-.028.146-.042l.129-.032q.074-.018.19-.038t.259-.057q.143-.036.192-.053.05-.017.125-.03.075-.011.132-.027.058-.016.176-.033t.226-.03q.108-.013.222-.015l.228-.003q.114 0 .214-.002h1.96q.098 0 .2.008.102.007.228.03.125.022.215.041.09.019.134.034.043.014.12.035.078.02.193.037.116.016.243.038.127.021.24.045.112.023.174.034l.128.024.182.04.192.042q.077.017.166.046l.194.062.157.049.115.034.18.058.204.068.16.051.153.049q.081.026.196.068.115.04.165.059.049.018.136.033.087.015.17.02l.16.009q.079.004.125-.051.046-.056.065-.097l.05-.108.077-.178q.048-.11.076-.2.027-.09.056-.165.03-.074.056-.15l.062-.189.058-.17.046-.13.057-.16.065-.181q.035-.094.066-.171.03-.078.05-.151.019-.074.047-.164l.067-.215q.04-.125.054-.16.013-.034.036-.124.024-.091.051-.172l.069-.204q.042-.124.068-.182.025-.058.059-.125.034-.068.073-.132.04-.063.091-.153.052-.09.079-.132.026-.042.068-.118.041-.075.077-.137.035-.062.085-.139.05-.077.102-.147.052-.07.11-.143.058-.073.097-.118l.087-.102q.047-.057.074-.096l.074-.108.102-.147.1-.146q.047-.068.085-.116.04-.049.09-.09.05-.04.137-.12.088-.079.13-.114.043-.036.106-.082l.135-.103q.072-.056.127-.096.054-.04.12-.082l.129-.082q.065-.04.128-.076.063-.035.15-.079.087-.043.169-.09l.145-.082q.065-.036.16-.08l.136-.066.154-.078q.112-.057.161-.08.05-.022.11-.043.06-.02.185-.067l.196-.071.147-.053.142-.051.134-.047.189-.066q.123-.044.206-.07.083-.027.133-.035.05-.007.153-.017.103-.01.216.002.114.011.182.022l.133.02q.064.01.165.038.101.028.182.06.08.03.165.057l.117.035.123.03q.088.02.206.042.118.02.227.047.109.026.193.049l.145.039.134.033q.073.018.191.044l.209.047q.09.022.192.056l.152.05q.05.018.147.066l.15.074.136.067.156.08q.073.039.17.088l.15.072q.054.024.124.062.07.037.148.075l.161.08q.084.041.131.07.048.03.133.088.085.059.148.11l.12.1.115.095q.06.05.114.101l.095.09.108.103.122.12.11.11.11.11.11.11.11.11q.056.056.12.124.062.069.106.131l.058.084.067.098q.052.077.093.156.042.079.092.167l.102.174q.051.088.086.136l.091.126.083.115q.027.037.06.112.032.075.062.136.03.061.07.182.04.121.073.21.032.089.045.15l.032.143q.019.083.027.164.008.082-.01.168-.017.087-.045.167-.028.08-.072.09-.045.01-.168.043-.122.032-.178.034-.056.003-.158-.02-.1-.024-.177-.076-.076-.052-.114-.082-.037-.03-.098-.085-.061-.056-.126-.112-.065-.057-.12-.112-.055-.055-.106-.1l-.13-.114q-.08-.068-.129-.1-.05-.03-.101-.072-.052-.042-.138-.104-.086-.06-.16-.118-.075-.057-.137-.108-.062-.05-.117-.099-.055-.048-.1-.084-.046-.036-.1-.074l-.152-.108q-.1-.069-.136-.09l-.106-.063q-.07-.04-.124-.064-.055-.023-.153-.08-.099-.057-.186-.097l-.172-.08-.123-.056-.137-.06q-.099-.044-.138-.054l-.11-.03q-.072-.021-.206-.042-.134-.02-.201-.01-.068.01-.073.075l-.018.193q-.013.128-.02.22l-.016.21q-.009.117-.026.216-.018.099-.035.207-.017.109-.038.187-.022.079-.041.159-.02.08-.024.158t-.017.184q-.014.105-.024.214-.01.11-.016.235-.005.125-.005.22-.001.095-.01.187-.007.092-.023.237l-.027.228q-.009.083-.027.172-.018.088-.039.176l-.031.14q-.01.05-.026.166-.014.116-.02.212l-.01.208-.011.243q-.005.131-.005.233v.211q0 .11-.01.221l-.016.22q-.007.107-.026.212-.019.104-.036.178l-.028.126-.036.162q-.025.11-.037.209-.012.099-.021.212l-.019.225-.017.212q-.008.098-.03.195l-.033.164-.028.157q-.016.088-.026.161-.01.074-.023.216l-.021.222q-.007.08-.016.216-.009.138-.011.24l-.005.205q-.003.101-.003.212v1.541q0 .11-.008.23-.01.118-.016.231l-.012.212q-.007.099-.02.17-.012.07-.041.12-.029.051-.044.133-.016.082.018.127.034.044.05.133.017.089.022.158.005.068.012.212l.015.244.015.245q.007.144.008.231v1.959q0 .11-.008.205-.008.094-.028.204-.02.111-.038.185-.018.073-.035.18-.017.108-.033.164-.017.057-.028.159-.012.102.007.215.02.112.033.175l.027.135q.014.072.025.172l.022.19q.01.092.016.22l.012.237.012.209.009.213q.004.115.005.223.002.108.002.218v2.643l-.002.233q-.001.123-.007.209-.007.086-.022.212-.015.127-.034.195l-.037.132-.033.116q-.015.053-.026.152l-.026.248q-.016.15-.022.251l-.014.236q-.008.132-.025.252l-.028.21q-.011.088-.032.176-.022.087-.041.15-.02.062-.03.132-.012.071-.037.18l-.057.242q-.032.132-.057.2l-.052.145q-.028.078-.057.144l-.057.128q-.027.063-.055.134l-.06.147-.074.185q-.043.109-.069.192-.025.084-.049.146-.023.063-.04.12-.017.058-.053.164-.035.105-.067.192l-.06.166q-.03.077-.066.158-.036.08-.078.166l-.068.138-.072.147q-.045.094-.088.174l-.065.121q-.023.04-.083.134l-.094.15-.075.115q-.04.06-.098.128t-.104.125q-.047.057-.1.111l-.103.106q-.05.052-.106.107l-.11.11-.11.11-.11.11-.11.11q-.055.055-.123.109-.067.053-.133.088l-.126.07q-.06.037-.132.076-.071.04-.158.086-.087.046-.157.08-.07.036-.13.063-.061.027-.138.058-.077.03-.172.057l-.172.05q-.079.023-.2.055-.12.032-.199.06-.08.027-.117.035l-.16.03q-.122.024-.22.05-.097.025-.175.048l-.19.059q-.11.035-.161.044-.052.01-.147.022l-.173.026q-.077.012-.2.014-.124.002-.23.01l-.23.015q-.122.007-.232.007-.11 0-.207.002-.096.003-.227.022-.13.02-.218.029-.088.01-.168.036-.08.027-.14.036l-.156.022q-.098.013-.197.023-.1.01-.21.018-.11.007-.25.013l-.223.009-.2.006q-.117.003-.227.003h-.208q-.097 0-.215.012l-.232.025q-.114.014-.216.03-.102.015-.21.034l-.137.026-.113.02q-.082.013-.224.029-.141.016-.21.02l-.182.009-.223.009-.236.005-.237.001h-.22q-.11 0-.224-.006-.113-.006-.195-.013-.082-.007-.2-.03-.118-.022-.228-.048-.11-.027-.145-.033-.036-.007-.117-.017l-.215-.025q-.133-.015-.233-.023-.1-.009-.188-.012l-.21-.005-.246-.004-.228-.003q-.104-.002-.214-.002h-.219q-.108 0-.22-.007-.114-.008-.22-.035-.108-.028-.185-.044-.077-.017-.159-.042t-.124-.032q-.042-.008-.184-.015-.142-.008-.234-.02-.092-.013-.213-.014l-.232-.005-.218-.005-.215-.001q-.11 0-.204-.002-.094-.002-.2-.009-.106-.007-.211-.025-.105-.017-.204-.038l-.17-.035q-.068-.015-.131-.024l-.208-.03q-.145-.022-.225-.03-.08-.009-.232-.037-.151-.027-.212-.043l-.154-.038q-.093-.024-.135-.033l-.137-.026q-.094-.016-.183-.027-.088-.011-.253-.036-.164-.025-.232-.047t-.158-.045l-.153-.036q-.062-.014-.116-.023-.054-.008-.193-.036-.139-.027-.237-.039-.1-.012-.238-.055-.14-.042-.2-.054-.061-.011-.134-.029-.072-.017-.155-.039t-.172-.053l-.149-.05-.18-.056q-.12-.038-.167-.051l-.167-.052-.168-.054-.163-.056-.161-.055-.166-.05q-.12-.037-.204-.065l-.146-.047-.14-.044-.176-.057q-.097-.032-.179-.069l-.139-.062q-.057-.025-.157-.075-.1-.05-.137-.079-.037-.028-.1-.072l-.135-.093q-.072-.049-.13-.085l-.142-.089q-.087-.052-.16-.108-.072-.056-.131-.117-.059-.06-.1-.106-.04-.045-.088-.119-.048-.074-.09-.13l-.099-.129q-.055-.073-.097-.133-.042-.06-.064-.098l-.078-.13q-.056-.091-.102-.17l-.075-.132-.075-.138q-.045-.084-.079-.155-.034-.072-.068-.153-.035-.082-.063-.14l-.06-.121q-.032-.064-.06-.139l-.067-.173q-.04-.098-.071-.181l-.061-.16q-.03-.077-.058-.179l-.05-.167-.052-.185q-.032-.119-.065-.203-.033-.084-.058-.168t-.036-.14q-.01-.057-.022-.16-.01-.1-.023-.196-.013-.095-.026-.22-.014-.126-.034-.239-.02-.113-.037-.174l-.032-.122q-.016-.061-.031-.14-.015-.077-.02-.16l-.013-.218q-.007-.134-.02-.246-.014-.111-.018-.239-.004-.128-.005-.23v-4.176q0-.111.007-.224t.011-.211q.005-.1.018-.213.014-.114.038-.206l.042-.154q.018-.062.033-.142.016-.08.026-.181l.021-.2q.011-.097.016-.206l.011-.245q.005-.136.023-.208.017-.072.047-.186.03-.115.039-.163l.028-.146q.019-.099.032-.197.013-.098.03-.207.018-.11.04-.202.023-.093.045-.171.022-.079.043-.168.022-.088.035-.172.013-.084.021-.172.008-.087.014-.207l.011-.232q.006-.112.01-.233.005-.122.007-.235l.007-.208q.003-.096.004-.202v-1.317q0-.11.004-.23.003-.12.016-.235.012-.115.03-.2.016-.083.03-.174.014-.092.03-.16.016-.067.031-.165t.022-.162l.02-.18q.014-.117.019-.225l.01-.246.007-.237q.003-.1.003-.21v-.88q0-.11.006-.217t.016-.223q.011-.116.03-.187l.041-.168q.024-.097.035-.165l.023-.171q.012-.103.02-.204.01-.1.019-.212.01-.112.015-.236l.01-.209q.004-.085.005-.203 0-.118.004-.217.003-.098.032-.218.028-.119.052-.21l.043-.17.03-.135q.011-.058.027-.204l.019-.195q.003-.048.006-.191.004-.144.005-.242.003-.098.012-.192.01-.094.034-.186l.054-.207q.029-.116.043-.18.014-.065.025-.149.012-.083.02-.175l.018-.229q.01-.136.013-.236.002-.1.014-.213l.019-.182q.007-.068.036-.17.028-.102.056-.192.027-.089.037-.136l.033-.161q.023-.115.055-.225l.05-.184.038-.134q.018-.06.042-.15.024-.091.058-.188.034-.096.067-.204.034-.109.033-.158l-.002-.15q0-.1-.003-.15-.003-.048-.06-.044-.058.003-.136.024-.077.021-.135.034l-.133.031-.176.047q-.102.029-.172.055-.07.027-.157.034-.088.006-.11.005-.02-.002-.097 0-.076.003-.113.017l-.097.034q-.06.021-.146.059-.086.038-.171.086-.085.049-.138.088-.054.04-.107.087-.053.047-.111.095-.059.048-.113.098-.053.05-.1.11-.045.06-.093.128l-.098.138q-.05.07-.089.117l-.112.146q-.074.099-.116.15-.041.052-.092.109-.05.056-.084.112-.033.055-.068.107t-.09.143q-.056.092-.076.128l-.086.163q-.068.125-.093.168-.025.043-.091.128-.067.084-.101.132-.035.048-.07.07-.037.023-.135.053t-.156.034q-.057.004-.172-.038-.114-.043-.143-.065-.028-.022-.062-.066-.034-.045-.065-.108-.032-.063-.02-.151.01-.088.047-.179l.05-.126q.014-.034.057-.128.043-.094.066-.151.023-.057.052-.16.03-.104.067-.205.038-.1.063-.178.025-.078.06-.166l.046-.119q.012-.03.073-.156.062-.125.086-.202l.041-.123q.016-.047.063-.144.046-.096.078-.152.032-.056.071-.13l.078-.14.08-.136.09-.147q.05-.081.088-.134.039-.054.105-.139.067-.085.101-.122l.082-.091q.047-.054.102-.112.054-.059.117-.122l.11-.114q.046-.05.113-.117l.114-.116.102-.103.11-.11.11-.11.11-.11.11-.11.113-.109q.058-.053.114-.1.056-.046.133-.1.077-.055.131-.088.054-.032.126-.07.071-.04.12-.06l.146-.057.197-.075q.1-.038.138-.048l.182-.054m1.403 11.33q.018.044.032.042.014-.001.057-.021.043-.02.142-.078.098-.058.158-.101.06-.044.113-.09l.105-.09q.052-.043.103-.092l.114-.11.118-.118.11-.11.11-.11.11-.11.11-.11.11-.11.11-.11.111-.11q.055-.056.108-.1.052-.044.123-.099.07-.054.132-.092.063-.039.136-.092l.133-.098.13-.1q.071-.056.135-.103.064-.047.116-.08.053-.033.102-.066.048-.033.122-.08.073-.048.17-.107.097-.06.136-.08.038-.02.126-.072.089-.051.166-.101.077-.05.138-.092l.12-.08.14-.092q.082-.055.148-.095.065-.04.124-.07l.123-.062q.064-.032.137-.08.072-.05.135-.088.064-.038.11-.088.048-.05.097-.128.048-.08.068-.135.02-.055.007-.127-.014-.071-.029-.136-.015-.064-.031-.147-.016-.082-.041-.157-.025-.074-.058-.155-.033-.082-.065-.172-.033-.09-.053-.163l-.054-.19q-.033-.118-.063-.203l-.041-.12-.042-.129q-.029-.092-.071-.204-.042-.112-.071-.2-.029-.089-.044-.121-.016-.032-.062-.136l-.083-.182-.068-.14-.068-.133q-.037-.072-.074-.15l-.067-.14-.071-.151-.085-.184q-.043-.097-.07-.164l-.05-.133-.056-.148q-.03-.082-.069-.168l-.07-.16q-.03-.075-.074-.163l-.077-.157-.066-.138q-.033-.07-.069-.131-.036-.061-.084-.132-.048-.07-.103-.13-.054-.059-.088-.072-.034-.014-.134-.072-.1-.059-.178-.067l-.176-.016q-.1-.01-.24-.017-.14-.007-.239-.01-.098-.002-.195 0l-.215.005q-.118.002-.236.023-.118.021-.213.051-.095.03-.164.057-.07.027-.12.085l-.081.098q-.033.039-.056.106l-.055.156q-.031.088-.078.204-.047.116-.066.169l-.04.115q-.02.062-.033.153-.014.09-.039.203-.024.112-.04.2l-.042.2-.045.217q-.022.105-.033.149-.012.044-.031.153-.02.11-.03.194-.011.084-.04.221l-.057.256-.043.189q-.017.07-.03.14-.013.07-.018.144-.005.073-.023.17-.018.098-.026.193-.009.095-.013.216l-.011.221q-.006.1-.007.218v3.091l.002.227.007.229q.003.113.019.2.015.089.048.19.033.102.04.128.008.025.033.126.024.1.063.193l.057.136m5.994 11.856q.122-.022.174-.039.052-.016.146-.051.093-.036.167-.074.074-.04.142-.087.068-.049.13-.09.062-.042.11-.078.047-.035.108-.113.06-.077.115-.142.053-.065.089-.123.036-.058.076-.127.04-.068.065-.124.024-.056.044-.135.021-.08.035-.2.015-.119.025-.22.01-.103.008-.208l-.003-.238q-.002-.133-.014-.238l-.022-.204q-.01-.1-.026-.172-.015-.073-.036-.155l-.036-.148q-.015-.067-.022-.188-.007-.122-.015-.207l-.017-.213q-.01-.127-.016-.229l-.016-.231q-.01-.13-.031-.233l-.04-.184q-.019-.081-.053-.145-.035-.063-.066-.106-.03-.043-.1-.13-.068-.088-.11-.123-.042-.035-.11-.08-.068-.047-.167-.09-.098-.044-.161-.062l-.16-.05-.167-.055-.137-.046q-.066-.023-.128-.037-.063-.013-.201-.03l-.245-.026q-.107-.011-.216-.02-.109-.008-.212-.011-.104-.004-.214-.004t-.242.012q-.132.012-.211.03l-.185.046q-.105.028-.13.031l-.122.016-.2.027q-.105.014-.232.038-.128.023-.254.05-.125.026-.18.04l-.108.031q-.054.016-.148.037-.095.022-.204.039-.108.016-.197.027-.09.011-.188.045-.099.033-.196.075-.097.042-.155.089l-.136.108q-.078.063-.14.106-.06.043-.086.066-.027.022-.088.078t-.118.12q-.057.065-.086.12-.03.053-.06.113-.03.06-.072.167-.042.105-.047.165-.004.06-.023.193l-.032.246q-.014.114-.014.211l-.001.207v.44q0 .11.007.221.006.111.015.212.008.1.018.197.009.096.041.167.032.07.085.158.053.088.078.125.025.037.082.095t.126.133q.069.075.115.111.047.036.124.09l.13.09q.053.035.127.089.073.053.126.087l.136.086.155.097.127.08q.055.035.12.06.066.023.138.059.073.036.14.064.068.029.166.068.098.039.177.068.079.028.18.058.102.03.134.036.032.007.17.03.137.023.258.033.122.01.226.011l.204.004.22.003.23.002h.66q.11 0 .22-.009.11-.008.208-.009.098 0 .22-.023m13.662 1.511q.088-.01.18-.027.093-.018.13-.028.036-.01.128-.046t.183-.078q.09-.042.163-.072.072-.03.15-.081.076-.05.142-.09.065-.04.09-.07.025-.03.102-.102l.145-.141q.069-.068.113-.133.045-.065.078-.116.034-.05.08-.152l.068-.145.044-.1q.023-.054.066-.179.043-.124.073-.196.03-.072.047-.162.016-.09.033-.163.017-.072.03-.182.012-.11.02-.206.01-.097.015-.198.006-.101.011-.225.004-.124.001-.238-.003-.115-.015-.225t-.018-.21q-.006-.1-.026-.23l-.032-.203q-.012-.072-.026-.106-.013-.035-.055-.123-.042-.089-.087-.16-.046-.07-.095-.124-.049-.055-.107-.09-.058-.037-.147-.075t-.174-.057q-.085-.018-.193-.036l-.238-.042q-.13-.023-.214-.047-.084-.024-.127-.033-.042-.009-.112-.032t-.207-.064l-.19-.058q-.052-.016-.129-.047l-.13-.054q-.055-.023-.164-.06-.11-.037-.221-.077-.112-.041-.137-.046l-.157-.033-.213-.045-.19-.046q-.108-.028-.198-.06-.09-.034-.157-.056-.067-.023-.147-.037-.08-.014-.186-.03-.106-.017-.2-.037-.095-.02-.181-.036l-.171-.033q-.085-.016-.159-.024-.073-.008-.174 0-.1.006-.152.017l-.105.023-.154.031q-.1.02-.2.05-.102.031-.181.075-.08.043-.126.094-.046.05-.09.104-.044.054-.088.115-.045.062-.087.173l-.071.189q-.028.076-.042.13l-.039.153q-.024.099-.037.183-.012.084-.04.18l-.062.208q-.033.11-.047.167-.015.058-.044.14-.03.083-.065.173-.036.09-.065.173l-.054.146q-.025.064-.046.132-.02.067-.062.184l-.067.195q-.025.078-.043.16-.018.081-.026.143l-.019.172-.024.234q-.013.123-.014.22l-.004.225-.003.217q-.002.088.033.204.035.116.06.188.026.073.078.125.051.052.093.091.041.039.107.085.066.047.122.083.056.036.14.082.083.046.165.086.082.04.173.082l.136.06q.044.017.114.033l.208.045q.138.029.222.045.085.016.22.038.134.021.194.038.06.016.15.035l.162.035q.074.015.17.025.095.01.236.02.14.012.225.017l.187.01q.102.005.212.005h.661q.11 0 .222-.005.111-.005.231-.013.12-.007.226-.026.106-.018.195-.028m2.145-12.673q.073.047.096.067.024.02.032-.022l.038-.175.05-.222.033-.142.043-.167q.03-.112.05-.18.02-.07.052-.165.032-.096.06-.171.028-.076.05-.154l.044-.178q.024-.1.038-.2.014-.099.032-.203.018-.105.035-.188.017-.082.04-.177l.037-.16.029-.143q.015-.076.032-.192t.038-.21q.02-.094.05-.221.03-.128.05-.19.018-.064.03-.142.012-.08.025-.152.013-.073.033-.21.02-.137.025-.214.006-.077.032-.208.025-.131.055-.219l.043-.13q.012-.042.034-.153.022-.11.04-.191l.045-.183q.026-.103.054-.205l.05-.179.033-.125q.012-.049.037-.175.024-.126.041-.23.017-.102.041-.205l.037-.155.036-.145q.022-.092.032-.175l.02-.196.018-.21q.009-.096.014-.205.006-.108.007-.212 0-.104.003-.225.003-.122.003-.232v-.22q0-.11-.019-.225-.018-.116-.038-.199t-.052-.127q-.034-.044-.071-.085-.038-.04-.133-.057-.094-.016-.231-.046t-.224-.054l-.165-.045q-.077-.021-.15-.037-.072-.016-.16-.022-.089-.007-.206-.025-.118-.017-.213-.014-.096.002-.182.013-.087.012-.158.047-.07.035-.145.07-.074.035-.113.067-.04.031-.098.07-.058.04-.148.117l-.14.122q-.052.044-.107.1l-.11.11q-.056.055-.106.109-.05.054-.103.125-.054.07-.093.125-.04.055-.103.155-.062.1-.099.156-.037.057-.072.134l-.06.132q-.025.055-.06.12l-.07.135-.069.13q-.031.062-.068.142l-.074.157-.07.145q-.033.068-.076.149l-.083.16-.08.154q-.038.072-.073.147l-.075.164q-.04.089-.08.165-.037.077-.07.138l-.07.131-.072.132q-.034.063-.068.136-.034.073-.067.137-.033.063-.07.141-.039.078-.073.155-.035.077-.064.179-.03.102-.054.163l-.062.16q-.037.098-.058.164-.02.066-.035.136-.015.07-.016.128 0 .057.02.168.02.111.03.148.012.036.074.097.062.06.124.11.062.049.13.095l.121.084q.054.038.121.094t.11.099l.118.11.102.095.12.106q.09.08.141.116l.118.083q.066.047.139.104.073.058.127.104.055.047.123.131.069.085.106.146l.064.1q.026.04.08.096.055.056.116.125.06.07.098.128.038.059.087.12.048.06.086.112.038.052.09.13.051.076.102.147.051.07.08.116l.085.124.104.153q.05.075.084.13l.09.136q.055.083.092.127.037.045.11.106.075.062.125.09l.122.075" style="display:inline;fill:#222;fill-opacity:1;stroke-width:1"/></g></svg>