<svg xmlns="http://www.w3.org/2000/svg" width="200" height="200" viewBox="0 0 52.917 52.917"><g style="display:inline"><path d="M-245.836 91.41h44.98a3.96 3.96 0 0 1 3.968 3.968v44.98a3.96 3.96 0 0 1-3.969 3.968h-44.979a3.96 3.96 0 0 1-3.968-3.969V95.378a3.96 3.96 0 0 1 3.968-3.969z" style="fill:#222;fill-opacity:1;fill-rule:nonzero;stroke:none;stroke-width:.5;stroke-linecap:butt;stroke-linejoin:round;stroke-miterlimit:4;stroke-dasharray:none;stroke-dashoffset:0;stroke-opacity:.909449;paint-order:normal" transform="translate(249.804 -91.41)"/><path d="M-244.513 94.055h42.334a2.64 2.64 0 0 1 2.645 2.646v42.333a2.64 2.64 0 0 1-2.645 2.646h-42.334a2.64 2.64 0 0 1-2.646-2.646V96.701a2.64 2.64 0 0 1 2.646-2.646z" style="display:inline;fill:#d061a6;fill-opacity:1;fill-rule:nonzero;stroke:none;stroke-width:.5;stroke-linecap:butt;stroke-linejoin:round;stroke-miterlimit:4;stroke-dasharray:none;stroke-dashoffset:0;stroke-opacity:.909449;paint-order:normal" transform="translate(249.804 -91.41)"/><path d="M-199.534 99.347v39.687a2.64 2.64 0 0 1-2.645 2.646h-42.334a2.64 2.64 0 0 1-2.646-2.646V99.347Z" style="display:inline;fill:#e4adcd;fill-opacity:1;fill-rule:nonzero;stroke:none;stroke-width:.5;stroke-linecap:butt;stroke-linejoin:round;stroke-miterlimit:4;stroke-dasharray:none;stroke-dashoffset:0;stroke-opacity:.909449;paint-order:normal" transform="translate(249.804 -91.41)"/><path d="M-199.534 104.11v34.924a2.64 2.64 0 0 1-2.645 2.646h-42.334a2.64 2.64 0 0 1-2.646-2.646V104.11z" style="display:inline;fill:#fff;fill-opacity:1;fill-rule:nonzero;stroke:none;stroke-width:.5;stroke-linecap:butt;stroke-linejoin:round;stroke-miterlimit:4;stroke-dasharray:none;stroke-dashoffset:0;stroke-opacity:.909449;paint-order:normal" transform="translate(249.804 -91.41)"/><path d="M-199.534 108.872v30.162a2.64 2.64 0 0 1-2.645 2.646h-42.334a2.64 2.64 0 0 1-2.646-2.646v-30.162z" style="display:inline;fill:#57cef8;fill-opacity:1;fill-rule:nonzero;stroke:none;stroke-width:.5;stroke-linecap:butt;stroke-linejoin:round;stroke-miterlimit:4;stroke-dasharray:none;stroke-dashoffset:0;stroke-opacity:.909449;paint-order:normal" transform="translate(249.804 -91.41)"/><path d="M-199.534 113.634v25.4a2.64 2.64 0 0 1-2.645 2.646h-42.334a2.64 2.64 0 0 1-2.646-2.646v-25.4z" style="display:inline;fill:#fff;fill-opacity:1;fill-rule:nonzero;stroke:none;stroke-width:.5;stroke-linecap:butt;stroke-linejoin:round;stroke-miterlimit:4;stroke-dasharray:none;stroke-dashoffset:0;stroke-opacity:.909449;paint-order:normal" transform="translate(249.804 -91.41)"/><path d="M-199.534 118.926v20.108a2.64 2.64 0 0 1-2.645 2.646h-42.334a2.64 2.64 0 0 1-2.646-2.646v-20.108z" style="display:inline;fill:#e4adcd;fill-opacity:1;fill-rule:nonzero;stroke:none;stroke-width:.5;stroke-linecap:butt;stroke-linejoin:round;stroke-miterlimit:4;stroke-dasharray:none;stroke-dashoffset:0;stroke-opacity:.909449;paint-order:normal" transform="translate(249.804 -91.41)"/><path d="M-199.534 123.689v15.345a2.64 2.64 0 0 1-2.645 2.646h-42.334a2.64 2.64 0 0 1-2.646-2.646V123.69z" style="display:inline;fill:#d061a6;fill-opacity:1;fill-rule:nonzero;stroke:none;stroke-width:.5;stroke-linecap:butt;stroke-linejoin:round;stroke-miterlimit:4;stroke-dasharray:none;stroke-dashoffset:0;stroke-opacity:.909449;paint-order:normal" transform="translate(249.804 -91.41)"/><path d="M-248.35 128.451v8.335a5.544 5.544 0 0 0 5.557 5.556h38.894a5.544 5.544 0 0 0 5.556-5.556v-8.335z" style="display:inline;fill:#222;fill-opacity:1;fill-rule:nonzero;stroke:none;stroke-width:.5;stroke-linecap:butt;stroke-linejoin:round;stroke-miterlimit:4;stroke-dasharray:none;stroke-dashoffset:0;stroke-opacity:.909449;paint-order:normal" transform="translate(249.804 -91.41)"/><g aria-label="JANNYPHILE" style="font-style:normal;font-weight:400;font-size:7.05556px;line-height:1.25;font-family:sans-serif;fill:#eee;fill-opacity:1;stroke:none;stroke-width:.264583"><path d="M4.501 46.499q-.5 0-.924-.184-.416-.19-.684-.536l.635-.762q.402.543.917.543.699 0 .699-.818v-2.35H3.408v-.917h2.871v3.203q0 .91-.451 1.37-.452.45-1.327.45z" style="font-style:normal;font-variant:normal;font-weight:700;font-stretch:normal;font-size:7.05556px;font-family:Montserrat;-inkscape-font-specification:&quot;Montserrat Bold&quot;;fill:#d061a6;fill-opacity:1;stroke-width:.264583"/><path d="M10.555 45.356H8.262l-.437 1.058H6.653l2.202-4.939h1.129l2.208 4.94h-1.2zm-.36-.868-.783-1.891-.783 1.89zm7.042-3.013v4.94h-.939l-2.462-3v3h-1.129v-4.94h.946l2.455 2.999v-2.999z" style="font-style:normal;font-variant:normal;font-weight:700;font-stretch:normal;font-size:7.05556px;font-family:Montserrat;-inkscape-font-specification:&quot;Montserrat Bold&quot;;fill:#e4adcd;fill-opacity:1;stroke-width:.264583"/><path d="M22.938 41.475v4.94h-.939l-2.462-3v3h-1.129v-4.94h.945l2.456 2.999v-2.999z" style="font-style:normal;font-variant:normal;font-weight:700;font-stretch:normal;font-size:7.05556px;font-family:Montserrat;-inkscape-font-specification:&quot;Montserrat Bold&quot;;fill:#fff;fill-opacity:1;stroke-width:.264583"/><path d="M26.48 44.664v1.75h-1.143V44.65l-1.913-3.175h1.214l1.32 2.194 1.319-2.194h1.122zm4.487-3.189q.656 0 1.136.219.487.219.748.62.26.403.26.953 0 .544-.26.953-.261.402-.748.62-.48.212-1.136.212h-.995v1.362h-1.143v-4.939zm-.064 2.646q.515 0 .783-.219.269-.225.269-.635 0-.416-.269-.635-.268-.225-.783-.225h-.931v1.714z" style="font-style:normal;font-variant:normal;font-weight:700;font-stretch:normal;font-size:7.05556px;font-family:Montserrat;-inkscape-font-specification:&quot;Montserrat Bold&quot;;fill:#57cef8;fill-opacity:1;stroke-width:.264583"/><path d="M38.453 41.475v4.94H37.31v-2.026h-2.244v2.025h-1.143v-4.939h1.143v1.948h2.244v-1.948z" style="font-style:normal;font-variant:normal;font-weight:700;font-stretch:normal;font-size:7.05556px;font-family:Montserrat;-inkscape-font-specification:&quot;Montserrat Bold&quot;;fill:#eee;fill-opacity:1;stroke-width:.264583"/><path d="M39.624 41.475h1.143v4.94h-1.143zm2.314 0h1.143v4.008h2.477v.931h-3.62Z" style="font-style:normal;font-variant:normal;font-weight:700;font-stretch:normal;font-size:7.05556px;font-family:Montserrat;-inkscape-font-specification:&quot;Montserrat Bold&quot;;fill:#e4adcd;fill-opacity:1;stroke-width:.264583"/><path d="M50.024 45.497v.917H46.2v-4.939h3.732v.917h-2.596v1.073h2.293v.889h-2.293v1.143z" style="font-style:normal;font-variant:normal;font-weight:700;font-stretch:normal;font-size:7.05556px;font-family:Montserrat;-inkscape-font-specification:&quot;Montserrat Bold&quot;;fill:#d061a6;fill-opacity:1;stroke-width:.264583"/></g><path d="M17.363 23.813h7.276v6.085h-7.276z" style="fill:#d061a6;fill-opacity:1;stroke-width:1.265;stroke-linecap:round;paint-order:stroke fill markers"/><path d="M27.55 25.102h7.408v5.325H27.55z" style="fill:#57cef8;fill-opacity:1;stroke-width:1.265;stroke-linecap:round;paint-order:stroke fill markers"/><g style="display:inline;fill:#222;fill-opacity:1;stroke-width:1.55198"><path d="M157.843 159.787q.103-.024.2-.038.099-.013.173-.02.073-.005.256-.025.182-.02.288-.023l.233-.007q.127-.005.275-.006l.281-.001h1.323q.133 0 .267.005.135.005.245.015.11.01.276.039l.25.043.161.03q.076.016.173.027.097.01.245.031.148.021.271.033.124.012.228.018.104.006.249.01.144.005.29.008.147.002.26.006.113.003.227.012.113.009.258.036.145.027.257.057.112.03.2.041l.17.025.231.036.288.045q.14.02.227.042.087.022.176.053l.184.066q.095.034.207.088.113.053.187.09.073.038.153.074t.161.077q.08.042.156.088.075.047.174.112.1.065.159.095l.2.102q.14.07.198.093.057.022.169.07.111.05.229.095.117.046.171.064.054.017.122.036.069.018.235.07.167.05.26.089l.138.056.164.07q.12.05.211.092.092.042.156.077.063.035.189.11.125.075.202.119.077.044.141.093.064.05.165.119l.157.106.144.095q.09.058.17.115l.144.101q.065.046.149.1l.152.096q.07.043.167.097l.168.091q.07.037.157.089.086.05.203.127.117.075.185.115.068.04.138.088.069.049.159.106.09.057.154.095.066.038.147.089.082.05.183.12.1.068.184.133.084.064.134.11l.127.12.143.132q.067.06.128.12l.127.126.133.132q.066.066.138.149.072.082.11.13.038.048.113.154l.115.16.11.153q.07.1.111.162l.1.153q.059.09.106.168l.102.169q.056.09.098.164l.084.15q.042.075.088.164.046.09.093.188.047.1.08.175l.084.189.088.193q.038.082.095.186l.089.162.077.142q.046.086.086.17.04.084.071.177l.066.195.065.199q.03.096.06.185.03.09.058.182.028.092.076.23.049.14.091.271l.07.22.05.16.055.191q.034.119.068.188.034.068.112.067.078-.002.177-.016.1-.015.167-.055.068-.04.127-.09.058-.05.134-.112l.149-.124q.073-.062.14-.125.067-.063.133-.129l.132-.132.133-.133.132-.132.132-.132q.066-.066.126-.122.06-.056.15-.134.089-.078.14-.113.05-.036.141-.086.09-.05.188-.097l.162-.078q.064-.03.174-.088.11-.057.203-.103l.17-.083q.077-.038.163-.087.086-.05.17-.095l.173-.089q.088-.044.194-.1.106-.056.187-.09l.184-.08q.103-.044.162-.066l.21-.075.235-.081q.08-.028.16-.046l.17-.038q.093-.02.22-.031.127-.012.24-.027.114-.016.27-.023.155-.007.306-.011l.273-.007q.124-.002.256-.002h.265q.132 0 .269.004.136.004.267.017.13.014.247.039.117.024.213.05.097.025.188.064l.162.071q.07.032.193.084l.185.078q.062.025.16.072l.207.1.182.09q.071.036.145.07.073.034.17.085l.205.109q.109.057.149.081.04.024.145.1.105.076.174.123.069.047.146.113l.181.151q.105.087.127.11l.105.099q.083.076.149.142l.132.132.132.133.133.132q.066.066.123.132l.124.143q.066.077.12.164l.099.16q.044.072.105.159l.11.16.1.151.113.17q.062.094.112.16t.112.157q.062.091.11.154.049.064.108.148l.109.157.092.136.104.158.109.17q.048.075.099.147.05.072.101.152.052.08.1.164.05.084.097.187.049.104.083.166.034.062.083.157l.097.19.088.178q.041.082.082.17l.088.18.1.202.089.179q.034.069.09.174l.104.194q.046.09.076.153.03.064.077.172.048.107.085.197l.065.16q.028.07.077.21l.076.21q.027.07.052.163.025.091.053.215l.055.236q.026.111.065.251l.07.244q.03.104.048.157.017.053.044.182.028.13.04.212l.035.236q.022.155.045.26.023.105.044.185.02.08.04.193.02.112.041.203.02.091.047.249.026.158.04.228.013.07.055.232l.064.25q.023.088.032.163.009.075.036.22.027.144.03.255.003.112.017.244.014.133.018.257.004.124.012.256.008.133.013.278.006.146.006.26 0 .113.007.252t.033.276l.044.239.034.18.033.179.042.231q.024.13.036.245.012.117.013.25l.002.274.001.246q0 .106.003.25l.004.278v2.383l-.001.26q-.002.129-.019.268-.016.139-.037.264-.022.124-.044.21l-.05.181q-.028.096-.049.196l-.044.217q-.024.116-.057.25l-.054.215q-.02.083-.048.177-.027.094-.045.196l-.033.192q-.016.09-.054.238-.04.148-.082.27-.043.12-.07.184-.026.063-.073.144l-.108.178q-.06.097-.12.142-.06.046-.146.093-.086.048-.147.08-.061.03-.197.058-.136.029-.273.042-.136.014-.27.014-.135 0-.264-.012-.128-.012-.21-.029-.082-.016-.187-.06-.105-.046-.17-.087-.065-.04-.132-.095l-.134-.106q-.067-.053-.103-.118-.037-.065-.077-.148-.041-.082-.104-.22-.063-.139-.097-.219-.034-.08-.054-.16l-.053-.212q-.034-.133-.06-.256-.025-.123-.054-.251-.03-.129-.047-.175-.016-.047-.067-.05-.05-.003-.076.07l-.072.21-.086.242-.06.156q-.02.05-.065.122l-.08.128q-.035.056-.11.142-.074.085-.156.127-.081.041-.167.076-.087.035-.22.071-.135.036-.26.045-.124.01-.245.016-.12.007-.257-.005-.136-.012-.251-.03-.116-.018-.188-.045-.07-.027-.161-.083-.09-.055-.178-.118-.087-.063-.125-.106-.037-.042-.088-.116l-.13-.194q-.079-.121-.135-.22-.055-.097-.083-.154l-.072-.138-.087-.166q-.044-.084-.093-.186-.049-.101-.086-.182-.037-.082-.096-.19-.058-.107-.098-.187t-.08-.177q-.04-.097-.082-.117-.043-.02-.086-.03-.044-.012-.069.058l-.067.187-.068.187q-.026.072-.058.17-.032.099-.06.174l-.098.25q-.069.175-.126.276-.058.102-.1.148-.04.047-.087.085-.046.039-.122.052-.076.014-.184.028-.107.015-.238.021l-.292.012q-.162.006-.302-.011l-.27-.034q-.131-.016-.198-.049-.066-.032-.097-.05-.031-.02-.118-.108-.088-.09-.14-.167-.052-.078-.097-.172-.044-.094-.066-.157-.023-.064-.046-.15-.024-.088-.06-.206l-.085-.288q-.05-.171-.069-.227-.019-.055-.042-.141-.024-.087-.056-.228-.033-.14-.051-.273-.019-.133-.045-.2-.025-.069-.096-.157-.071-.088-.152-.108-.08-.021-.037.06.044.082.015.18-.028.097-.078.214-.05.116-.082.199-.033.082-.07.163-.039.08-.1.18-.06.1-.097.145-.036.046-.12.146-.082.1-.13.151-.049.052-.12.11-.072.057-.156.11-.084.055-.167.096-.082.042-.168.069-.085.027-.222.067-.137.04-.219.049-.081.008-.237-.012-.155-.02-.302-.049-.146-.029-.216-.057-.07-.027-.146-.072-.075-.044-.149-.111-.073-.068-.114-.112-.04-.045-.07-.111l-.071-.167q-.043-.1-.049-.185-.006-.084-.029-.229-.023-.145-.027-.276-.004-.131-.006-.29-.002-.16-.014-.299l-.022-.242-.02-.225q-.008-.12-.001-.194.007-.074-.065-.085-.072-.01-.092.086-.02.097-.033.185-.013.089-.035.216-.021.128-.042.233-.02.106-.059.234-.038.128-.065.21-.027.083-.045.173-.019.09-.061.215-.042.125-.064.204-.022.078-.049.155-.027.077-.062.193-.034.116-.072.233-.039.116-.08.217l-.065.163q-.024.061-.057.131l-.098.209q-.065.138-.104.212-.04.073-.115.197-.076.124-.125.195l-.095.14q-.046.07-.082.132-.035.063-.084.142-.048.079-.11.174l-.106.156q-.042.061-.127.147-.084.086-.14.138-.057.053-.147.115-.09.063-.16.116-.068.052-.132.096-.065.044-.139.097-.074.053-.187.119-.112.065-.195.11-.082.045-.163.087-.081.042-.126.07-.045.027-.152.078l-.228.11q-.121.058-.155.067-.035.008-.151.04-.117.033-.246.066-.129.034-.262.062-.133.027-.222.054-.088.027-.173.051l-.195.054q-.112.03-.219.038t-.229.032q-.122.024-.25.054t-.228.067q-.1.036-.215.067-.116.031-.194.048t-.208.022l-.279.012-.266.013-.264.012-.261.01q-.115.004-.22.027l-.208.045q-.102.024-.206.059-.104.035-.19.052-.086.017-.207.028-.12.01-.286.017-.166.006-.293.013-.128.008-.245.011-.118.003-.25.003h-3.44q-.132 0-.256-.008l-.263-.018q-.138-.01-.253-.027-.114-.017-.214-.038l-.182-.039q-.081-.017-.164-.03-.084-.012-.241-.038-.158-.027-.287-.036-.13-.01-.268-.015l-.262-.01q-.123-.005-.256-.005h-.793q-.133 0-.27-.004l-.251-.007q-.114-.003-.295-.025-.18-.022-.25-.036l-.17-.033q-.1-.02-.185-.044-.084-.023-.2-.037-.118-.013-.227-.021-.109-.008-.275-.015-.166-.007-.308-.01l-.233-.008-.23-.01q-.138-.003-.29-.01-.151-.005-.27-.005-.118 0-.245-.008t-.25-.023q-.122-.014-.27-.038-.148-.024-.275-.048-.127-.025-.155-.029l-.154-.027q-.128-.023-.266-.038-.139-.015-.236-.02l-.233-.01-.284-.015-.284-.013q-.135-.006-.27-.028-.135-.023-.258-.047t-.228-.048l-.157-.036-.168-.037q-.115-.026-.24-.037l-.235-.019q-.108-.008-.274-.017-.165-.01-.267-.033-.101-.023-.21-.05l-.181-.046q-.072-.02-.15-.03-.077-.012-.245-.033-.169-.022-.29-.032-.12-.01-.25-.037-.13-.026-.25-.058-.12-.033-.231-.057-.11-.025-.18-.044l-.14-.042-.197-.06q-.125-.038-.243-.078l-.232-.081q-.115-.041-.174-.058l-.184-.055q-.126-.038-.202-.064-.077-.026-.199-.06-.121-.033-.192-.05-.071-.015-.242-.057-.17-.041-.287-.073l-.209-.058q-.093-.026-.165-.051-.072-.025-.136-.06-.064-.035-.173-.085-.108-.05-.19-.09l-.15-.072q-.068-.03-.194-.091l-.221-.106q-.096-.047-.152-.082-.057-.035-.159-.106l-.162-.111-.14-.093q-.078-.052-.174-.103-.095-.052-.189-.11-.094-.06-.167-.115-.074-.056-.14-.11-.067-.055-.135-.116-.068-.06-.13-.12-.062-.061-.137-.147-.075-.085-.108-.14-.034-.054-.106-.149-.071-.095-.12-.165-.05-.07-.11-.159-.062-.088-.097-.128l-.125-.142q-.09-.102-.145-.16-.055-.059-.113-.136-.058-.078-.107-.149-.048-.071-.094-.145t-.116-.207l-.092-.178-.076-.143q-.053-.099-.1-.197l-.087-.175q-.038-.075-.074-.152l-.08-.17q-.045-.094-.074-.177-.03-.083-.06-.187-.032-.104-.075-.207t-.072-.203q-.028-.1-.067-.074-.038.026-.112.127-.073.101-.107.142-.035.04-.078.071-.043.031-.133.102-.09.07-.18.096-.087.026-.227.034-.14.01-.24.012-.102.003-.23-.013-.13-.017-.245-.03-.116-.012-.19-.034-.074-.02-.17-.035-.095-.013-.143.02-.049.032-.074.106-.025.074-.075.202-.051.127-.089.245l-.071.222q-.034.105-.078.19-.045.084-.093.192l-.083.186q-.035.078-.078.167-.044.09-.076.146-.033.058-.096.156-.064.1-.139.2-.074.1-.124.143l-.112.094q-.061.051-.127.083-.066.032-.187.074-.12.042-.244.054-.124.013-.213.007-.09-.005-.198-.06l-.171-.086q-.062-.031-.126-.086-.063-.055-.13-.108-.069-.053-.149-.133-.08-.081-.13-.143-.05-.061-.113-.152-.063-.09-.111-.163-.048-.072-.1-.146-.052-.075-.101-.137-.048-.063-.095-.13-.047-.068-.094-.144-.047-.075-.084-.188-.037-.113-.049-.225-.01-.113-.018-.26-.007-.147-.01-.272-.003-.125-.009-.266-.006-.142-.016-.28l-.018-.264q-.008-.128-.038-.195-.03-.066-.08-.07-.05-.004-.053.066-.003.07-.02.234-.018.164-.035.271-.017.107-.046.214-.03.107-.055.22t-.053.19q-.027.078-.066.203l-.07.22-.065.189q-.034.093-.066.172-.032.079-.088.185-.056.107-.1.204-.045.097-.083.17-.038.074-.083.167l-.102.206-.089.18q-.033.065-.085.143-.051.078-.114.16l-.109.146q-.046.062-.1.099-.055.036-.141.078-.086.043-.2.062-.113.02-.244.035-.131.016-.254-.004t-.316-.06q-.193-.041-.234-.067-.041-.026-.127-.076t-.153-.103q-.066-.054-.112-.14-.046-.087-.081-.163-.035-.075-.055-.134-.02-.058-.045-.171-.025-.113-.051-.26-.027-.147-.051-.243-.025-.096-.071-.23-.047-.133-.094-.228-.048-.095-.09-.187-.04-.093-.064-.102-.023-.009-.076.015t-.09.068q-.036.043-.093.136-.057.093-.088.16-.031.068-.054.141l-.069.218q-.046.145-.073.208l-.073.171q-.046.11-.096.185-.05.076-.103.14-.052.063-.12.107-.069.045-.2.055l-.278.022q-.148.011-.269.007l-.242-.012q-.121-.007-.292-.013-.17-.006-.25-.036-.08-.03-.13-.071-.048-.04-.125-.109-.076-.067-.137-.132-.062-.065-.105-.138-.043-.073-.065-.171-.022-.098-.042-.224l-.038-.245-.035-.228q-.016-.109-.053-.298-.037-.19-.057-.25-.019-.062-.034-.145-.015-.083-.033-.207-.018-.123-.035-.217-.016-.093-.028-.23-.011-.138-.03-.242l-.054-.292-.048-.265-.025-.144q-.012-.068-.024-.163l-.036-.242q-.022-.148-.033-.259l-.02-.23q-.008-.12-.024-.262-.016-.143-.038-.268l-.04-.208q-.017-.085-.04-.222-.025-.136-.014-.173.01-.036.015-.096.004-.06.028-.19.024-.128.031-.223l.019-.23q.011-.133.019-.257.007-.125.012-.262.005-.138.012-.26.006-.124.006-.27v-4.248q0-.132.013-.255l.028-.276q.016-.153.033-.27.018-.116.04-.214.024-.098.04-.175l.036-.215q.021-.138.028-.222.007-.084.014-.212l.015-.265q.008-.139.02-.288.012-.149.043-.285l.05-.22.033-.135.039-.172q.026-.12.046-.255.02-.134.046-.251l.058-.27q.033-.154.061-.27l.045-.174q.016-.058.05-.17l.057-.19q.024-.075.075-.208l.076-.192q.025-.058.058-.173.033-.116.057-.191.023-.076.078-.227l.08-.216q.024-.065.079-.17l.09-.177q.035-.072.075-.141.04-.07.099-.179.058-.108.103-.208.044-.1.077-.19.034-.09.055-.167.022-.076.05-.163l.075-.228q.044-.14.076-.204l.08-.162q.05-.099.093-.157.043-.058.1-.157.058-.1.1-.169.041-.068.088-.14l.116-.174q.069-.105.111-.177.043-.072.097-.18l.099-.187q.043-.081.093-.159.05-.077.105-.15.054-.075.105-.131.05-.057.139-.153l.15-.165q.061-.07.109-.117l.117-.119.136-.136.132-.132.133-.133.132-.132.132-.132.133-.132.132-.133q.066-.066.145-.128.08-.062.168-.125.089-.062.13-.094l.124-.093.171-.13.148-.112q.06-.046.151-.105.091-.06.174-.09.084-.03.17-.054.087-.023.241-.042.155-.018.217-.022t.26-.023q.197-.02.29-.02.094 0 .217-.008.123-.009.28-.01.157-.002.29.01.135.013.278.022.144.009.25.024.105.016.21.053.104.036.166.06.063.025.176.05.112.027.262.075.15.049.234.073.084.025.183.066.099.042.149.066l.143.067.196.094.184.091q.081.04.184.094l.17.089.15.08q.082.044.197.118l.152.095q.037.023.119.089.081.066.16.134.08.068.149.123.069.055.145.104l.149.098.183.122q.109.073.178.13l.15.127q.079.069.128.115l.107.102.133.132.141.14.132.133.133.132.132.133.132.132.132.132.133.133.132.132.132.132.133.132.132.133.132.132.133.132.132.133.132.132.132.132q.067.066.126.138.06.072.13.164.069.092.1.137l.11.168q.08.121.103.15.024.029.068.01.044-.02.093-.079.049-.06.093-.127t.091-.16q.048-.091.077-.15.03-.058.104-.211l.094-.193.066-.128.104-.19q.057-.104.098-.186l.089-.178.09-.179q.042-.082.085-.172l.09-.187q.046-.097.107-.193.06-.097.098-.154l.098-.153.115-.18q.053-.083.108-.16l.102-.143.094-.132q.047-.067.091-.134l.099-.147.103-.154q.05-.074.11-.156.062-.082.129-.161.067-.08.141-.174.074-.095.126-.154.052-.06.12-.132l.127-.138q.06-.064.126-.13l.132-.133.132-.132.132-.132.133-.133.132-.132.132-.132.133-.132.132-.133q.066-.066.12-.116.055-.05.128-.12.074-.07.176-.15.102-.08.192-.146l.119-.088.134-.09q.105-.069.187-.132l.127-.098q.044-.035.119-.08l.162-.098.194-.122q.107-.068.187-.123l.135-.091q.054-.036.14-.087l.178-.11q.092-.06.173-.118.08-.058.15-.113.07-.055.134-.1.063-.044.136-.08.073-.038.163-.07.089-.03.236-.094.146-.064.251-.102.105-.037.185-.057l.15-.038q.07-.018.247-.04l.261-.032q.085-.01.2-.032l.294-.058q.178-.036.246-.054.069-.018.15-.032.08-.015.211-.03.132-.016.234-.026l.218-.023.261-.03q.146-.015.268-.043.122-.029.202-.054.08-.026.18-.048.101-.023.18-.027.079-.004.22-.036.14-.03.283-.054.143-.023.283-.052.14-.03.219-.049l.182-.044m2.776 30.762q.065-.005.156-.03.09-.024.144-.11.054-.086.107-.187.053-.102.078-.167.026-.065.065-.174.04-.109.045-.208l.013-.231q.008-.133.02-.282l.021-.279q.01-.129.049-.25.039-.122.08-.17.041-.05.107-.108.066-.058.204-.082.138-.023.221-.04.083-.016.182-.077.1-.062.163-.097.064-.036.115-.09.05-.054.083-.193.033-.138.057-.264.025-.126.042-.202.017-.076.066-.22.05-.145.082-.213t.08-.11q.047-.042.21-.058.162-.016.27-.033.109-.016.24-.052.13-.037.228-.06.096-.022.162-.041.065-.02.168-.039.103-.02.237-.037.133-.017.27-.027.136-.01.242-.032.106-.021.248-.044.142-.023.2-.04.059-.017.187-.045.128-.029.215-.041.086-.013.237-.03.152-.016.265-.03.114-.012.222-.032l.245-.045q.138-.027.22-.045l.173-.04q.091-.023.206-.055.115-.031.23-.057.115-.026.275-.068.16-.042.24-.06l.177-.038q.098-.02.173-.031.076-.01.225-.035.15-.024.254-.043.105-.018.25-.051.146-.033.227-.049l.12-.024.19-.039.295-.06q.144-.029.241-.044.097-.014.217-.039.119-.024.237-.057.119-.034.208-.057.09-.024.197-.04.108-.015.216-.034l.253-.044q.144-.025.286-.057.14-.033.209-.054l.143-.044q.075-.023.158-.04l.236-.049q.154-.031.255-.054l.225-.051.193-.044.165-.037.22-.046q.124-.025.283-.08.159-.057.233-.079l.166-.05q.092-.026.193-.047l.212-.046q.111-.024.229-.047.117-.023.242-.055l.185-.05.176-.046q.115-.03.223-.07l.2-.076q.092-.038.19-.074.097-.036.197-.069l.209-.066.204-.066q.097-.031.172-.05l.181-.044q.107-.026.254-.068.147-.043.255-.082.108-.04.161-.094l.106-.105q.053-.052.06-.195.007-.142.003-.223-.004-.082-.029-.24-.024-.158-.061-.222t-.082-.11q-.045-.044-.17.003t-.177.065l-.11.036-.231.08q-.173.06-.259.086-.086.025-.146.038l-.206.046-.253.054q-.106.022-.216.056t-.2.058q-.089.023-.18.056-.092.032-.193.062-.102.03-.207.066-.105.036-.211.07l-.22.07-.172.052q-.06.017-.191.041-.132.024-.27.054-.137.03-.255.073-.117.044-.146.053-.03.009-.133.03l-.235.047-.28.061q-.147.033-.217.055-.07.023-.143.044l-.189.053q-.115.032-.262.067-.147.034-.254.063l-.19.05-.18.042q-.096.022-.209.038-.112.015-.239.04t-.262.049q-.136.023-.232.043-.096.02-.23.053l-.184.047q-.051.013-.15.03l-.23.04q-.132.023-.25.046t-.245.052q-.127.028-.28.068-.155.04-.23.056-.075.017-.163.032-.088.014-.188.027t-.225.032q-.127.019-.255.051l-.208.05-.188.046q-.108.027-.183.044-.074.018-.237.05-.163.033-.262.05-.1.016-.217.057-.117.04-.2.058-.082.018-.16.039-.08.02-.203.036-.124.016-.273.028l-.247.018q-.097.007-.253.028t-.261.059q-.105.038-.191.063-.086.026-.182.049-.097.022-.237.04-.14.017-.267.026-.128.01-.237.016-.11.007-.206.034l-.247.07q-.15.042-.23.062-.082.02-.155.031t-.24.028l-.262.025-.224.02q-.132.012-.27.037-.14.025-.24.05l-.197.05q-.095.026-.177.054-.082.027-.11-.014-.028-.04-.067-.125-.04-.085-.075-.237-.034-.151-.045-.231-.01-.08-.037-.23-.026-.15-.052-.272l-.043-.202q-.016-.08-.081-.12l-.166-.1q-.1-.062-.153-.089-.052-.027-.192-.062t-.277-.04q-.137-.005-.241 0-.104.003-.204.017-.1.013-.22.04-.119.028-.18.063-.06.035-.132.101-.07.066-.137.15-.067.083-.1.137-.033.053-.057.138-.023.085-.052.22-.028.137-.057.254-.029.117-.076.279-.048.162-.086.193-.038.03-.103.076t-.126.034q-.061-.012-.128-.03t-.197-.047q-.13-.03-.228-.045-.099-.015-.283-.05-.184-.036-.32-.066-.138-.03-.208-.053-.07-.023-.155-.042-.085-.02-.165-.035-.08-.015-.195-.042-.116-.028-.23-.06-.113-.033-.246-.067-.133-.035-.23-.064-.098-.03-.151-.043-.053-.014-.244-.073l-.226-.07q-.036-.011-.121-.042-.086-.031-.161-.056-.076-.024-.196-.065-.12-.041-.274-.098-.154-.056-.194-.075l-.145-.073q-.105-.054-.186-.091l-.195-.088q-.112-.05-.177-.096l-.111-.078-.156-.106q-.108-.074-.17-.109l-.162-.097q-.1-.062-.192-.106l-.177-.088q-.084-.042-.158-.082-.073-.04-.17-.096-.096-.056-.171-.104-.076-.049-.168-.113l-.155-.11q-.063-.046-.132-.086l-.17-.096q-.1-.057-.21-.116l-.17-.094q-.06-.034-.15-.093l-.195-.124q-.104-.065-.179-.116-.075-.052-.139-.093l-.138-.087q-.075-.046-.158-.09l-.179-.098-.17-.095q-.074-.043-.16-.08-.085-.038-.198-.092-.112-.053-.19-.112l-.132-.102-.105-.081q-.052-.04-.143-.095l-.21-.13q-.118-.076-.187-.131l-.14-.113q-.072-.056-.137-.103-.066-.046-.161-.105l-.177-.11q-.081-.051-.159-.111-.077-.06-.128-.095-.05-.035-.163-.096-.112-.06-.199-.114-.087-.053-.17-.11l-.15-.103-.108-.071-.174-.109q-.133-.082-.219-.14l-.139-.1q-.054-.04-.15-.12l-.164-.135q-.07-.056-.116-.1-.048-.045-.124-.1l-.135-.1q-.058-.046-.168-.117l-.192-.127q-.082-.055-.151-.113l-.14-.119-.13-.108q-.057-.049-.14-.114-.083-.066-.19-.13-.106-.066-.168-.11l-.169-.121q-.107-.078-.157-.112t-.108-.063q-.059-.03-.16-.068-.1-.039-.2-.074-.1-.034-.149.001-.049.036-.093.089-.045.052-.04.155.004.103.018.258.013.156.025.275.01.12.057.182t.104.12q.058.056.147.147.09.09.131.125l.121.101q.08.066.157.123.078.058.169.12l.137.096.156.11.175.124q.066.048.119.095.052.047.147.127t.178.146q.083.067.15.112l.136.087.136.087q.067.045.175.124l.163.12q.056.043.13.093l.173.117q.1.066.17.115.071.05.167.114.096.063.167.112.07.048.17.113l.134.088.119.076q.084.054.178.118l.155.108q.061.045.153.118.09.072.172.125.08.052.165.099.085.047.186.107l.119.072q.018.011.128.087.111.075.2.132.09.057.19.111t.197.113l.179.104q.08.045.13.08.05.036.157.095.107.058.176.11.07.053.158.114l.157.107q.068.045.15.09.08.046.175.094.094.049.178.09.084.043.17.09.087.047.167.102.08.054.181.129.102.074.152.1.05.025.107.06.056.036.177.104.122.067.218.116l.157.082q.06.033.164.086.103.053.19.1l.189.1q.101.054.174.096.073.042.108.064.035.021.145.095.11.074.188.137.078.063.137.097l.158.09q.1.057.237.128.136.071.181.096l.154.079q.11.054.165.074.056.019.13.05.074.03.162.06l.254.088q.168.056.237.082.07.025.188.062l.184.058q.065.02.217.075.151.054.233.08.082.026.156.045.074.018.171.047l.24.07q.142.04.252.073.11.032.19.062l.178.066q.096.036.18.095.085.06.178.133.093.075.107.12.014.044.046.16l.067.244q.035.128.094.216.058.087.133.162.075.075.104.1.03.026.078.038.049.012.241.053l.273.057q.08.016.21.046.132.03.201.054.07.022.1.145.029.122.052.259.023.137.033.224.01.087.02.248t.015.276l.01.252q.007.137.016.252.01.114.037.245.026.13.06.196t.098.176q.065.11.118.164.053.055.14.075.086.02.25.034.163.013.261.015.099 0 .232-.01.133-.012.293-.023l.225-.015m9.24-11.1q.134-.016.254-.05.12-.033.176-.077l.098-.08q.044-.037.113-.082.07-.045.189-.109.12-.063.219-.131l.167-.117q.068-.047.127-.1.059-.054.144-.106l.18-.111q.095-.059.173-.112.079-.053.155-.123t.098-.094q.023-.023.08-.134l.116-.216q.058-.105.09-.177.031-.072.07-.169l.083-.211q.045-.114.067-.181.022-.067.06-.192.04-.125.077-.227.038-.102.079-.226.04-.125.081-.242.041-.117.05-.152.01-.035.017-.108l.023-.225q.014-.153.026-.265.011-.112.018-.253.006-.14.01-.282l.008-.29q.004-.149.003-.265 0-.116-.013-.22-.013-.105-.036-.244-.023-.14-.07-.203-.046-.062-.111-.107-.066-.045-.153-.061t-.203.032q-.117.048-.17.072-.054.024-.091.1-.037.076-.057.15-.02.074-.055.239-.035.165-.047.275l-.028.241q-.015.132-.036.274-.02.143-.049.272-.028.129-.05.211l-.04.148-.053.205q-.036.14-.057.213l-.059.21q-.038.134-.047.16l-.068.172q-.06.146-.113.267l-.082.188q-.027.067-.083.157-.055.09-.1.152-.044.061-.12.145-.077.085-.146.154-.069.07-.133.12-.064.052-.126.087-.062.036-.161.106-.1.07-.19.137-.092.068-.156.113-.065.046-.15.11-.085.062-.125.08-.04.018-.163.048-.123.03-.23.054-.106.024-.246.029l-.27.01q-.133.007-.266.01l-.27.003h-.27q-.132 0-.252-.007-.12-.008-.287-.028-.168-.02-.302-.059-.135-.039-.199-.072-.064-.033-.116-.07-.053-.039-.11-.093-.056-.055-.12-.153-.063-.099-.109-.167-.045-.068-.074-.156-.03-.09-.05-.17-.02-.082-.037-.235-.016-.153-.022-.25l-.013-.235-.013-.266q-.007-.125-.01-.265-.005-.14-.005-.293v-1.053q0-.132-.015-.292-.014-.16-.042-.241-.028-.08-.086-.163-.058-.083-.13-.099-.071-.015-.163-.01-.091.005-.175.031-.085.026-.147.077-.063.051-.121.104-.06.052-.077.129-.018.076-.035.196-.017.12-.026.263l-.016.273-.013.28-.01.264q-.003.114-.003.247v1.058q0 .132.007.236.007.104.022.28.015.176.029.293.014.116.035.207.021.09.057.161.035.07.09.16l.1.168q.047.08.1.152l.132.18q.078.107.116.15.039.042.122.124.084.082.154.133l.124.09q.054.039.143.064.089.024.21.045.123.021.268.034.145.014.283.017.138.004.263.012.126.008.258.008h1.323q.132 0 .28-.01.146-.01.259-.022l.246-.03m-14.814-2.373q.148-.026.25-.062.101-.036.156-.053.056-.016.19-.091.133-.075.191-.11.058-.033.112-.07.053-.036.171-.134l.148-.124q.03-.025.113-.104l.14-.135.123-.122q.066-.066.11-.128l.066-.091q.021-.03.084-.146.063-.116.123-.237.06-.121.096-.216.036-.096.072-.17.035-.076.084-.195.049-.12.094-.225l.08-.188q.036-.083.069-.148.033-.065.072-.154.04-.088.055-.153.016-.064.054-.242l.06-.27q.022-.094.03-.212.006-.117.005-.239 0-.12-.02-.212t-.12-.12q-.1-.03-.229-.032-.13-.003-.192.027-.062.031-.143.104l-.12.108q-.036.034-.076.104-.04.069-.096.157-.055.088-.142.238-.086.149-.106.194-.019.046-.076.165-.058.119-.081.18l-.063.166q-.039.104-.093.237l-.077.191q-.022.059-.081.165-.059.106-.101.188l-.113.21q-.07.127-.104.175-.033.05-.071.092-.038.043-.114.11-.075.067-.123.101l-.15.105q-.102.07-.181.107-.08.038-.184.072-.105.034-.195.056-.09.022-.222.041l-.257.038q-.124.017-.268.023-.144.005-.26.003-.118-.002-.262 0-.144.001-.277-.008-.133-.009-.276-.022-.142-.013-.239-.042l-.157-.047q-.06-.018-.147-.038l-.238-.055q-.151-.035-.271-.06-.12-.024-.232-.065-.112-.041-.148-.057-.037-.016-.16-.085l-.197-.11q-.073-.038-.148-.084l-.135-.082q-.061-.037-.144-.095-.082-.059-.197-.147-.114-.089-.159-.138l-.087-.096q-.043-.047-.108-.17-.066-.124-.113-.192-.047-.07-.098-.158-.051-.09-.097-.18-.046-.09-.065-.164-.02-.075-.036-.155-.017-.08-.038-.212-.022-.133-.04-.267-.018-.134-.006-.264.012-.13.017-.255.005-.125.027-.24.02-.115.04-.163.019-.047.068-.185t.086-.236q.037-.098.073-.226l.045-.165.052-.193q.043-.156.03-.22-.012-.065-.056-.14-.043-.074-.088-.14-.044-.065-.153-.122-.108-.057-.224-.094t-.146-.023q-.031.014-.09.06t-.132.108q-.074.062-.095.092-.021.03-.084.137-.063.107-.098.183-.034.076-.095.22-.061.143-.087.215-.026.071-.048.158-.022.086-.04.173-.016.087-.042.248-.026.162-.033.28-.007.117-.007.236 0 .118-.006.257-.006.138.005.28.01.141.011.278 0 .136.002.243.001.106.022.204.021.098.05.193.03.095.063.208.033.113.086.227.052.113.107.197.054.085.098.144.043.058.1.118.055.06.114.128.058.07.126.145.068.075.129.139l.134.14.14.14q.065.066.127.122.062.055.125.107.064.053.12.093l.161.116q.107.076.194.125.087.048.171.092.085.043.191.1.106.056.205.105.098.048.19.077l.14.047q.048.017.177.044.129.028.258.06.13.033.244.064.115.032.203.052.088.02.185.035.096.014.209.028.112.014.257.022.146.008.298.013.153.005.275.007.121.003.248.004l.259.004.278.003q.146 0 .262.002.117.001.238-.013.12-.013.27-.039m-2.779-28.945q.085-.023.216-.044.132-.021.248-.029.117-.008.217-.012.1-.005.253-.01.153-.007.274-.01.121-.003.254-.003h.793q.133 0 .25.007.116.007.272.03.156.022.281.037.125.014.203.032l.147.035q.07.017.214.043.145.026.228.037.083.012.244.02l.323.013.257.008q.095.003.227.003h1.852q.133 0 .28.008l.263.013q.114.005.214.03l.21.053q.109.027.239.05l.215.035q.084.014.226.034.141.02.213.021.072.001.223.01.151.007.27.017.119.009.26.035.14.027.222.04.081.015.186.038.105.024.175.036l.226.038.287.047q.13.022.242.037.112.016.247.052.136.037.194.05.058.014.132.029.074.014.229.034.154.02.266.042.112.022.252.041l.307.043q.168.023.232.038.063.015.132.045.07.03.207.048.138.017.262.04.123.024.233.05.11.027.248.056.138.03.187.043l.166.042q.118.03.222.049.105.02.212.03.108.012.264.038.156.027.263.053.107.026.224.06.118.033.214.066.096.032.16.05.063.016.183.052l.223.068.147.046.178.056q.133.043.26.082.129.04.2.068.072.028.196.073.123.045.199.069.076.023.175.058l.197.069.183.063q.084.03.196.066l.213.07q.101.032.213.073l.224.082q.112.043.18.074l.169.08q.1.05.166.086l.143.078q.077.042.189.098t.177.084q.064.027.159.058l.202.067q.108.036.25.086.141.05.202.077.06.026.155.073.094.046.205.097l.184.088q.073.036.175.09.102.053.189.094l.191.09.175.086q.07.036.17.08.099.045.164.078l.15.075.182.087q.097.046.156.077.058.03.157.099.098.068.199.127.1.058.178.117.077.06.143.115.066.056.147.13l.14.127q.06.052.12.111l.126.126.132.132.132.132.132.133.133.132q.066.066.139.146.072.08.118.165.046.084.082.139.035.054.076.135.04.081.096.209.055.127.082.214.026.088.039.217.012.13.017.28.005.15-.004.238-.009.087-.028.23l-.04.284q-.022.142-.037.211-.015.07-.036.145l-.05.174q-.028.1-.073.233-.044.134-.07.202-.025.068-.073.188-.047.12-.084.19-.037.069-.102.174-.065.105-.113.174-.047.068-.117.149-.07.08-.121.145-.052.065-.116.135-.065.07-.123.129-.058.058-.109.104-.051.045-.161.121-.11.076-.151.107-.042.031-.145.094-.103.064-.188.102-.086.039-.2.082-.115.042-.163.062-.049.02-.19.036-.143.017-.27.03-.127.013-.273.022l-.268.017-.247.017q-.125.008-.267.034-.143.025-.219.049-.075.023-.19.051-.116.029-.204.048-.089.018-.19.026l-.238.016q-.135.008-.293.015l-.28.011q-.123.004-.25.005l-.258.001h-1.852q-.132 0-.258-.007-.125-.007-.25-.011-.125-.004-.289-.033-.164-.03-.238-.049-.075-.02-.143-.036-.069-.016-.228-.045-.159-.03-.26-.042-.103-.014-.192-.02l-.236-.011q-.146-.007-.283-.01h-.534l-.271-.001q-.14-.001-.245-.02-.104-.02-.235-.042-.13-.022-.221-.034-.09-.012-.186-.03-.096-.016-.204-.031-.108-.015-.204-.026-.096-.01-.236-.02-.14-.011-.285-.03-.145-.018-.325-.043-.179-.024-.225-.036-.046-.01-.19-.05-.142-.037-.204-.05l-.143-.027q-.082-.015-.232-.053l-.33-.082-.247-.06-.157-.042q-.09-.024-.139-.031l-.199-.027q-.151-.02-.265-.027l-.276-.015q-.162-.007-.284-.01l-.253-.004q-.132-.003-.273-.011l-.27-.017q-.129-.008-.235-.032l-.22-.053-.199-.048q-.086-.02-.177-.032-.092-.012-.223-.033-.132-.02-.26-.045-.128-.025-.255-.06-.126-.034-.189-.046l-.138-.028-.235-.048q-.16-.033-.263-.057l-.232-.057q-.128-.032-.232-.063-.103-.03-.165-.044-.062-.015-.173-.036-.111-.022-.232-.043-.12-.021-.234-.047-.114-.027-.231-.062t-.177-.044l-.148-.024-.233-.042q-.147-.025-.275-.053-.127-.028-.236-.059-.108-.03-.215-.062-.108-.031-.205-.049-.098-.017-.214-.04-.117-.023-.215-.032l-.248-.027q-.151-.016-.29-.033-.138-.016-.227-.033-.09-.018-.248-.063t-.24-.066q-.083-.021-.163-.037-.08-.015-.192-.032t-.2-.04q-.087-.021-.18-.049l-.23-.065q-.138-.037-.188-.048l-.246-.06q-.195-.05-.306-.084-.111-.034-.195-.076-.084-.042-.153-.088-.069-.045-.122-.084-.054-.04-.114-.108-.06-.069-.089-.157-.028-.089-.032-.143-.004-.054.03-.094l.095-.11q.06-.067.138-.137.078-.07.128-.106.05-.036.153-.07.103-.033.218-.049t.192.018q.077.034.14.055.063.02.223.054.16.033.245.041.084.008.258.02.174.013.283.019.11.006.248.016.14.011.25.038.111.027.222.05.11.024.174.04.064.015.176.034.113.02.24.04t.25.034q.124.014.262.016l.267.003q.127.001.271.005.144.004.237.02.094.016.28.038.188.022.25.034l.156.032q.094.02.179.034l.227.038q.142.023.286.04.144.016.268.035.124.019.254.042.13.022.216.042.086.02.163.035.077.016.18.034l.208.038q.103.02.238.032t.291.035q.156.023.288.04.132.015.188.036.056.021.19.06.134.038.256.063t.214.034q.092.008.19.021l.273.038q.173.024.254.048.08.023.164.052.083.028.174.04l.212.03q.12.02.247.03l.262.02q.135.012.268.012h1.043q.116.001.278.006.162.005.27.025.11.019.238.05l.182.048q.053.015.188.035.136.019.261.032l.225.024q.098.01.2.018.101.008.28.013l.288.01.245.003h1.593q.133 0 .305.023l.245.034q.073.012.162.033.09.022.19.04.1.02.212.038.112.018.246.036.133.019.25.028.115.01.229.017.113.008.271.01.158.004.281.005h.52q.132 0 .282.019.15.017.258.039.108.022.23.043.12.021.204.038l.174.035q.09.018.211.033.12.014.258.021.137.007.269.007t.23-.02l.168-.035.183-.044q.115-.028.228-.07.113-.04.229-.07.116-.031.192-.057.076-.027.161-.062.086-.035.196-.088.11-.054.17-.096.06-.043.164-.128.104-.084.167-.141.063-.057.128-.104.065-.047.125-.137.06-.09.076-.212.016-.12.018-.221.002-.1-.017-.188-.02-.088-.06-.176-.039-.09-.097-.201-.058-.112-.083-.148-.024-.036-.094-.116l-.136-.154q-.066-.073-.128-.136-.063-.063-.145-.149l-.12-.124-.12-.12-.146-.148-.133-.132-.132-.133-.132-.132-.132-.132q-.067-.066-.14-.127l-.158-.126q-.084-.065-.14-.102-.055-.036-.16-.098-.105-.062-.169-.093-.063-.032-.174-.093l-.206-.112q-.095-.05-.18-.097-.087-.046-.155-.076-.069-.03-.172-.07l-.232-.09q-.13-.05-.19-.068l-.158-.046-.18-.05q-.084-.024-.224-.075-.14-.05-.24-.082-.1-.031-.182-.05-.082-.017-.172-.046-.09-.03-.22-.066-.13-.037-.21-.063l-.162-.054q-.082-.028-.189-.07l-.241-.092q-.134-.051-.204-.076-.07-.025-.164-.047l-.199-.048-.222-.052-.24-.057q-.125-.03-.215-.058-.09-.028-.187-.055-.097-.028-.173-.043l-.203-.041q-.127-.025-.236-.055-.109-.03-.22-.065t-.215-.06l-.181-.044-.225-.057-.267-.068q-.121-.03-.23-.062-.109-.032-.162-.043l-.2-.04q-.144-.03-.262-.045l-.217-.031-.23-.036q-.13-.02-.233-.052-.103-.032-.184-.06-.081-.028-.191-.05-.11-.023-.207-.036-.097-.012-.271-.04-.175-.029-.319-.066-.145-.038-.202-.055-.057-.016-.15-.037-.093-.02-.19-.03-.098-.009-.229-.03-.13-.02-.245-.047-.115-.027-.272-.06l-.214-.046-.127-.026q-.07-.014-.202-.032-.132-.02-.225-.031l-.267-.033q-.175-.02-.299-.025l-.244-.012q-.12-.007-.253-.007h-.264q-.133 0-.254-.005-.122-.005-.274-.023-.152-.018-.274-.04-.122-.023-.211-.044-.09-.02-.163-.032-.073-.012-.164-.022l-.229-.023-.277-.025-.264-.026q-.126-.012-.271-.014l-.267-.004-.261-.004-.269-.003h-1.849q-.133 0-.274.007-.142.008-.248.022-.106.014-.25.042-.145.027-.264.046l-.173.026q-.053.008-.138.028-.086.019-.217.032-.132.012-.276.02l-.279.017q-.135.008-.29.024-.155.015-.259.03-.103.015-.246.032-.142.017-.206.034-.064.018-.175.045-.11.027-.18.04-.07.012-.218.026-.148.015-.267.024-.118.01-.262.016-.143.007-.251.02-.109.012-.275.047-.165.034-.213.046l-.16.043-.21.057q-.098.026-.238.056-.141.03-.247.059l-.208.056-.178.048-.146.037q-.07.017-.221.045-.15.028-.296.072l-.228.068-.186.059q-.104.033-.143.055l-.158.09q-.118.066-.199.138-.08.073-.096.105-.016.033-.03.126-.014.093-.007.154.007.062.058.088.05.026.172.046.12.02.263.04.143.02.245.03l.238.029q.136.016.284.047.148.031.258.064.111.033.19.052.077.019.144.046.066.027.168.074.102.047.2.097.099.05.181.095.082.045.17.123.09.078.162.132.072.053.119.12t.082.135q.035.069.091.186.056.118.093.191.036.073.05.133.016.059.031.185l.032.271.03.281q.015.137.018.271.003.134.003.267v.264q0 .132-.006.27-.006.137-.02.262-.012.125-.058.239-.045.114-.077.19-.032.075-.075.139l-.092.136q-.048.073-.123.147t-.137.11q-.061.034-.178.095-.117.062-.187.071-.07.01-.223.024l-.284.025q-.13.011-.245.003-.116-.008-.256-.026-.14-.019-.29-.043-.15-.025-.235-.046l-.173-.041q-.088-.02-.187-.046l-.235-.062q-.137-.035-.197-.056-.06-.02-.153-.065-.094-.045-.17-.086l-.18-.094q-.103-.053-.183-.092l-.175-.083q-.095-.045-.204-.092-.109-.048-.182-.083-.074-.035-.162-.092-.088-.057-.126-.085l-.136-.102q-.097-.072-.181-.141-.084-.07-.15-.12-.066-.051-.097-.115-.032-.064-.105-.176-.073-.113-.112-.186-.04-.074-.082-.184t-.064-.198q-.021-.088-.04-.201-.02-.113-.031-.259-.011-.145-.026-.26-.016-.114-.042-.234-.027-.12-.057-.202-.03-.082-.084-.159-.054-.077-.101-.169-.048-.092-.086-.18-.039-.09-.05-.154-.01-.064-.022-.193l-.024-.283q-.014-.154-.02-.27-.004-.114-.003-.249 0-.134.028-.271.027-.137.043-.203.016-.066.077-.143l.134-.167.137-.166q.063-.075.107-.137.045-.061.11-.127l.133-.133.132-.132q.067-.066.143-.137.076-.07.127-.103.052-.032.138-.1.086-.07.19-.13.103-.062.203-.116.1-.055.19-.089.09-.034.148-.051.058-.018.177-.064t.213-.08l.188-.068q.094-.032.171-.054.077-.02.19-.058.114-.038.23-.08.115-.041.172-.057l.164-.046q.107-.03.229-.058.121-.028.288-.072l.275-.074q.11-.029.164-.04l.15-.035.21-.051q.114-.029.3-.065.186-.037.234-.054l.122-.042q.074-.024.178-.042.105-.018.25-.034.146-.016.285-.026.139-.01.212-.018.074-.01.232-.035.158-.025.26-.058.103-.033.197-.051l.185-.036.19-.039q.099-.021.243-.025.143-.004.287-.014.145-.009.269-.028.124-.019.241-.044.118-.025.226-.05.107-.026.193-.05m-5.421 7.985q.116-.013.193-.045.077-.033.162-.077.084-.044.11-.083.025-.04.066-.117.04-.077.04-.162 0-.086-.067-.08-.067.005-.198.022-.131.018-.186.023-.055.006-.168-.002-.113-.008-.151-.037l-.103-.081-.136-.11q-.071-.059-.171-.06-.1-.002-.175.018-.074.02-.077.082-.003.062.02.18.024.118.064.193.04.074.091.16.052.085.13.123.077.038.146.056.07.017.182.014.111-.004.228-.017m-.72-1.868q.04.028.149.002.11-.026.18-.068.072-.041.086-.088l.03-.117q.017-.07.007-.166-.01-.096-.07-.189-.06-.092-.102-.122-.043-.031-.15-.042-.108-.011-.159-.01-.05.003-.107.057-.058.054-.123.123-.064.07-.054.133.01.062.022.155.013.092.053.137.04.045.12.106l.119.09m2.126.819q.087.041.165 0 .08-.04.13-.083.05-.042.097-.094.048-.052.06-.116.014-.064-.011-.166-.026-.102-.08-.188-.056-.086-.113-.115-.057-.029-.113-.04-.057-.012-.117-.001-.06.01-.168.078-.109.069-.144.112-.035.042-.048.12-.014.078-.01.156.005.078.087.153.082.075.13.109.049.034.135.075" style="fill:#222;fill-opacity:1;stroke-width:1.55198" transform="rotate(-3.002 -1572.47 1552.737) scale(.64434)"/></g></g></svg>