<svg xmlns="http://www.w3.org/2000/svg" width="200" height="200" viewBox="0 0 52.917 52.917"><defs><path id="a" d="M-310.17 126.781h57.004v44.726h-57.004z"/></defs><g transform="translate(249.804 -91.41)"><rect width="52.917" height="52.917" x="-249.804" y="91.409" rx="3.969" ry="3.969" style="fill:#222;fill-opacity:1;fill-rule:nonzero;stroke:none;stroke-width:.5;stroke-linecap:butt;stroke-linejoin:round;stroke-miterlimit:4;stroke-dasharray:none;stroke-dashoffset:0;stroke-opacity:.909449;paint-order:normal"/><rect width="47.625" height="47.625" x="-247.159" y="94.055" rx="2.646" ry="2.646" style="fill:#52ce3c;fill-opacity:1;fill-rule:nonzero;stroke:none;stroke-width:.5;stroke-linecap:butt;stroke-linejoin:round;stroke-miterlimit:4;stroke-dasharray:none;stroke-dashoffset:0;stroke-opacity:.909449;paint-order:normal"/><path d="M-248.35 128.451v8.335a5.544 5.544 0 0 0 5.557 5.556h38.894a5.544 5.544 0 0 0 5.556-5.556v-8.335z" style="fill:#222;fill-opacity:1;fill-rule:nonzero;stroke:none;stroke-width:.5;stroke-linecap:butt;stroke-linejoin:round;stroke-miterlimit:4;stroke-dasharray:none;stroke-dashoffset:0;stroke-opacity:.909449;paint-order:normal"/><g style="stroke-width:.803442;fill:#222;fill-opacity:1"><path d="M148.21 217.452c1.453-.434.96 1.416 1.045 2.302-.067 1.138.29 2.24.264 3.378h-8.991c.338-1.27.243-2.608.68-3.865.04-1.707 2.313-1.184 3.473-1.664 1.173-.092 2.368.086 3.529-.152m-29.3-2.547c1.232-.104 2.552.54 3.804.76 1.847.41 3.736.6 5.513 1.28 1.173.51 3.025.178 3.76 1.258.106 1.638.196 3.318-.186 4.93h-14.81c.718-1.897 1.264-3.868 1.408-5.896.204-.773.386-1.542.511-2.332m29.833-1.65c1.054-.09.333 2.054.405 2.78-1.584.565-3.355.461-5.042.508-.84.22-3.147.718-1.403-.415 1.85-1.279 3.905-2.185 6.04-2.874m-28.268-2.352c1.276-.305 2.493.726 3.768.923 2.532.807 4.827 2.185 7.207 3.34 1.875.98-.62 1.81-1.59 1.017-1.378-.165-2.626-.839-4.006-.992-2.168-.386-4.332-.858-6.423-1.523-.117-.718.565-2.05 1.045-2.765" style="fill:#222;fill-opacity:1;stroke-width:.803441" transform="translate(-389.202 -148.93) scale(1.24464)"/><path d="M128.584 200.805c1.375-.454 2.673.229 3.742 1.026.994 1.162 2.37.544 3.662.858 1.359.639 2.48-.054 3.626-.7 1.274-.44 2.689-.974 4.034-.598 1.117.492 2.438.83 3.124 1.917 1.22 1.085 1.849 2.742 1.695 4.37.291 1.345.337 2.745.18 4.113-1.215.968-2.892 1.073-4.18 1.937-1.236.757-2.685 1.318-3.627 2.456-.519 1.42-.801 2.934-1.057 4.424-.384.678.277 2.651-.805 2.524h-5.854c.047-1.905-.134-3.828.19-5.71 0-1.149.29-2.774-1.218-3.126-2.994-1.499-5.94-3.148-9.188-4.043-1.861-.192-.623-1.982-.137-2.922.653-1.293 1.517-2.471 2.497-3.536.92-1.19 1.69-2.678 3.317-2.99m.213 7.405c1.136-.399 2.116-1.087 3.002-1.888 1.301-1.027-.294-2.609-1.318-1.3-.643.81-1.594 1.223-2.346 1.88-.452.512-.292 1.768.662 1.308m17.659.315c1.094-.58-.547-1.948-1.277-2.628-.73-.68-2.865-1.471-2.29.227.685.933 1.679 1.69 2.665 2.279.291.088.598.119.901.122" style="fill:#222;fill-opacity:1;stroke-width:.803441" transform="translate(-389.202 -148.93) scale(1.24464)"/></g><g style="font-style:normal;font-weight:400;font-size:11.2889px;line-height:1.25;font-family:sans-serif;white-space:pre;shape-inside:url(#a);fill:#52ce3c;fill-opacity:1;stroke:none" transform="translate(68.688 2.19)"><path d="M-309.233 129.255h1.829v6.412h3.962v1.49h-5.79zm6.819 0h1.828v7.902h-1.828zm6.581 4.797-1.061 1.107v1.998h-1.818v-7.902h1.818v3.691l3.5-3.691h2.031l-3.273 3.522 3.465 4.38h-2.133zm11.593 1.638v1.467h-6.118v-7.902h5.972v1.467h-4.154v1.716h3.668v1.422h-3.668v1.83zm1.457-6.435h3.59q1.287 0 2.269.496.993.486 1.535 1.378.553.891.553 2.077 0 1.185-.553 2.077-.542.892-1.535 1.388-.982.486-2.27.486h-3.59zm3.5 6.4q1.185 0 1.885-.654.71-.666.71-1.795 0-1.13-.71-1.784-.7-.666-1.886-.666h-1.67v4.9z" aria-label="LIKED" style="font-style:normal;font-variant:normal;font-weight:700;font-stretch:normal;font-size:11.2889px;font-family:Montserrat;-inkscape-font-specification:&quot;Montserrat Bold&quot;;fill:#52ce3c;fill-opacity:1"/></g></g></svg>