<svg xmlns="http://www.w3.org/2000/svg" width="200" height="200" viewBox="0 0 52.917 52.917"><defs><path id="a" d="M-289.654 111.896h47.708v32.43h-47.708z"/></defs><g transform="translate(249.804 -91.41)"><rect width="52.917" height="52.917" x="-249.804" y="91.409" rx="3.969" ry="3.969" style="fill:#222;fill-opacity:1;fill-rule:nonzero;stroke:none;stroke-width:.5;stroke-linecap:butt;stroke-linejoin:round;stroke-miterlimit:4;stroke-dasharray:none;stroke-dashoffset:0;stroke-opacity:.909449;paint-order:normal"/><rect width="47.625" height="47.625" x="-247.159" y="94.055" rx="2.646" ry="2.646" style="fill:#fff;fill-opacity:1;fill-rule:nonzero;stroke:none;stroke-width:.5;stroke-linecap:butt;stroke-linejoin:round;stroke-miterlimit:4;stroke-dasharray:none;stroke-dashoffset:0;stroke-opacity:.909449;paint-order:normal"/><path d="M-248.35 128.451v8.335a5.544 5.544 0 0 0 5.557 5.556h38.894a5.544 5.544 0 0 0 5.556-5.556v-8.335z" style="fill:#222;fill-opacity:1;fill-rule:nonzero;stroke:none;stroke-width:.5;stroke-linecap:butt;stroke-linejoin:round;stroke-miterlimit:4;stroke-dasharray:none;stroke-dashoffset:0;stroke-opacity:.909449;paint-order:normal"/><g style="fill:#222;fill-opacity:1"><path d="M-228.05 133.64c1.177-.36 2.305 2.26.583 1.862-.842-.122-1.42-1.297-.583-1.862m1.314-15.933c1.42-.182 2.878-.132 4.31-.058 1.448.268 3.097.78 3.779 2.214.785 1.495.67 3.268.472 4.887-.249 1.215-.48 2.697-1.553 3.469-1.182.796-2.67.93-4.035.608-1.687-.34-1.346 1.813-2.127 2.645-1.61-.142-1.516-1.89-1.033-3.023.521-.971.562-3.12 2.152-2.39 1.39.032 2.998.126 4.046-.95.458-.959.293-2.123.218-3.161-.435-1.095-1.706-1.745-2.78-2.1-1.21-.162-2.497-.255-3.69.054-.858.109-2.963 2.034-2.567.116.474-1.152 1.683-1.901 2.808-2.312" style="fill:#222;fill-opacity:1;stroke-width:1" transform="rotate(-11 -276.187 119.924)"/><path d="M-227.318 111.65c1.702-.268 3.444-.104 5.166-.15 1.416.16 2.87.38 4.212.859 2.21 1.079 4.636 2.178 6.036 4.301.782 1.144 1.34 2.405 1.72 3.736.643 1.561.974 3.229.88 4.92-.03 2.516.07 5.039-.064 7.55-.249 1.526-.452 3.087-.969 4.547-.847 1.597-2.37 2.906-4.104 3.42-1.853.12-3.719.083-5.574.043-1.78-.321-3.533-.76-5.317-1.074-1.404-.246-2.813-.486-4.213-.784-2.15-.482-4.365-.767-6.383-1.713-1.866-.69-3.753-1.78-4.754-3.56-.646-1.55-.34-3.255-.407-4.887.21-1.498.333-3.014.726-4.482.27-2 1.15-3.834 2.15-5.561.826-1.207 1.738-2.346 2.817-3.341 1.23-1.212 2.76-2.089 4.3-2.843 1.22-.483 2.496-.731 3.78-.981m.896 24.934c1.36-.309 1.254-2.622.263-3.322-.888-.836-2.594-1.192-3.2.156-.774 1.169.172 2.804 1.37 3.203.52.03 1.055.1 1.567-.037m1.087-3.971c1.342-.204.436-2.936 1.857-2.639 1.458.146 3.024.185 4.283-.693 1.607-.96 1.97-2.963 2.166-4.668-.01-1.917.397-4.086-.875-5.717-.569-1.12-1.876-1.49-2.937-1.979-1.703-.584-3.531-.328-5.299-.38-1.84-.058-3.392 1.251-4.358 2.7-.915 1.13-.378 2.913 1.225 2.828 1.332-.014 2.3-1.255 3.664-1.276 1.072-.036 2.256-.133 3.108.654 1.197.405 1.217 2.032.777 2.95-1.233.866-2.77.587-4.155.399-1.401.135-1.538 1.924-1.988 2.973-.373 1.23-1.053 2.993.106 3.978.739.425 1.525.995 2.426.87" style="fill:#222;fill-opacity:1;stroke-width:1" transform="rotate(-11 -276.187 119.924)"/></g><g style="font-style:normal;font-weight:400;font-size:10.5833px;line-height:1.25;font-family:sans-serif;white-space:pre;shape-inside:url(#a);fill:#fff;fill-opacity:1;stroke:none" transform="translate(43.475 17.414)"><path d="M-288.776 114.215h1.715v6.012h3.714v1.397h-5.429zm9.589 7.535q-1.588 0-2.477-.878-.878-.878-.878-2.508v-4.149h1.714v4.085q0 1.99 1.651 1.99.804 0 1.228-.476.423-.487.423-1.514v-4.085h1.693v4.149q0 1.63-.889 2.508-.878.879-2.465.879zm9.767-.126-1.428-2.064h-1.577v2.064h-1.714v-7.409h3.206q.985 0 1.704.328.73.328 1.122.932.392.603.392 1.428 0 .826-.402 1.43-.392.592-1.122.91l1.661 2.38zm-.03-4.72q0-.625-.403-.953-.402-.339-1.175-.339h-1.397v2.583h1.397q.773 0 1.175-.34.402-.338.402-.952zm5.788 1.809-.995 1.037v1.874h-1.704v-7.409h1.704v3.461l3.281-3.46h1.905l-3.069 3.301 3.25 4.107h-2.001zm10.869 1.535v1.376h-5.736v-7.409h5.599v1.376h-3.895v1.609h3.44v1.333h-3.44v1.715zm6.086 1.376-1.43-2.064h-1.576v2.064h-1.715v-7.409h3.207q.984 0 1.704.328.73.328 1.122.932.392.603.392 1.428 0 .826-.403 1.43-.391.592-1.121.91l1.661 2.38zm-.032-4.72q0-.625-.402-.953-.402-.339-1.175-.339h-1.397v2.583h1.397q.773 0 1.175-.34.402-.338.402-.952z" aria-label="LURKER" style="font-style:normal;font-variant:normal;font-weight:700;font-stretch:normal;font-family:Montserrat;-inkscape-font-specification:&quot;Montserrat Bold&quot;;fill:#fff"/></g></g></svg>