<svg xmlns="http://www.w3.org/2000/svg" width="200" height="200" viewBox="0 0 52.917 52.917"><g transform="translate(249.804 -91.41)"><rect width="52.917" height="52.917" x="-249.804" y="91.409" rx="3.969" ry="3.969" style="fill:#222;fill-opacity:1;fill-rule:nonzero;stroke:none;stroke-width:.5;stroke-linecap:butt;stroke-linejoin:round;stroke-miterlimit:4;stroke-dasharray:none;stroke-dashoffset:0;stroke-opacity:.909449;paint-order:normal"/><path d="M-244.513 94.055h42.334a2.64 2.64 0 0 1 2.645 2.646v42.333a2.64 2.64 0 0 1-2.645 2.646h-42.334a2.64 2.64 0 0 1-2.646-2.646V96.701a2.64 2.64 0 0 1 2.646-2.646z" style="fill:#429b7d;fill-opacity:1;fill-rule:nonzero;stroke:none;stroke-width:.5;stroke-linecap:butt;stroke-linejoin:round;stroke-miterlimit:4;stroke-dasharray:none;stroke-dashoffset:0;stroke-opacity:.909449;paint-order:normal"/><path d="M-223.346 94.055h21.167a2.64 2.64 0 0 1 2.645 2.646v42.333a2.64 2.64 0 0 1-2.645 2.646h-21.167z" style="fill:#e12420;fill-opacity:1;fill-rule:nonzero;stroke:none;stroke-width:.5;stroke-linecap:butt;stroke-linejoin:round;stroke-miterlimit:4;stroke-dasharray:none;stroke-dashoffset:0;stroke-opacity:.909449;paint-order:normal"/></g><g style="display:inline"><path d="M-248.35 128.451v8.335a5.544 5.544 0 0 0 5.557 5.556h38.894a5.544 5.544 0 0 0 5.556-5.556v-8.335z" style="fill:#222;fill-opacity:1;fill-rule:nonzero;stroke:none;stroke-width:.5;stroke-linecap:butt;stroke-linejoin:round;stroke-miterlimit:4;stroke-dasharray:none;stroke-dashoffset:0;stroke-opacity:.909449;paint-order:normal" transform="translate(249.804 -91.41)"/><g aria-label="MISBEHAVING" style="font-style:normal;font-weight:400;font-size:6.35px;line-height:1.25;font-family:sans-serif;fill:#32b5d4;fill-opacity:1;stroke:none;stroke-width:.264583"><path d="m7.027 46.21-.006-2.668-1.308 2.198h-.464L3.948 43.6v2.61h-.966v-4.446h.851l1.664 2.763 1.638-2.763h.845l.013 4.445zm2.02-4.446h1.028v4.445H9.047Zm3.543 4.522q-.527 0-1.022-.14-.49-.146-.788-.375l.35-.774q.285.21.679.336.394.127.787.127.438 0 .648-.127.21-.133.21-.35 0-.158-.127-.26-.121-.107-.318-.17-.19-.064-.52-.14-.509-.121-.832-.242-.324-.12-.56-.387-.228-.267-.228-.711 0-.388.21-.699.21-.317.628-.502.426-.184 1.035-.184.426 0 .832.102.407.101.711.292l-.317.781q-.616-.35-1.232-.35-.432 0-.641.14-.204.14-.204.369 0 .228.235.343.242.108.73.216.509.12.833.24.323.122.552.382.235.26.235.705 0 .38-.216.698-.21.311-.635.496-.425.184-1.035.184zm5.855-2.388q.38.12.597.406.215.28.215.693 0 .584-.457.901-.45.311-1.32.311h-2.3v-4.445h2.172q.813 0 1.245.312.438.31.438.844 0 .324-.159.578-.152.254-.431.4zm-2.242-1.359v1.048h1.022q.381 0 .578-.133.197-.134.197-.394t-.197-.387q-.197-.134-.578-.134zm1.2 2.896q.407 0 .61-.134.21-.133.21-.412 0-.553-.82-.553h-1.2v1.099zm6.077-.051v.825h-3.44v-4.445h3.359v.826H21.06v.965h2.064v.8H21.06v1.029z" style="font-style:normal;font-variant:normal;font-weight:700;font-stretch:normal;font-size:6.35px;font-family:Montserrat;-inkscape-font-specification:&quot;Montserrat Bold&quot;;fill:#429b7d;fill-opacity:1;stroke-width:.264583"/><path d="M28.376 41.764v4.445h-1.029v-1.822h-2.019v1.822H24.3v-4.445h1.03v1.753h2.018v-1.753zm3.981 3.493h-2.063l-.394.952h-1.054l1.981-4.445h1.016l1.988 4.445h-1.08zm-.323-.781-.705-1.702-.705 1.702zm6.292-2.712-1.924 4.445h-1.016l-1.917-4.445h1.111l1.353 3.175 1.371-3.175zm.369 0h1.028v4.445h-1.028zm6.159 0v4.445h-.844l-2.216-2.698v2.698h-1.016v-4.445h.85l2.21 2.7v-2.7zm4.058 2.153h.94v1.804q-.362.273-.839.419-.476.146-.958.146-.693 0-1.245-.292-.552-.299-.87-.82-.311-.527-.311-1.187t.311-1.181q.318-.527.876-.82.56-.298 1.258-.298.584 0 1.06.197.476.197.8.572l-.66.61q-.476-.502-1.15-.502-.425 0-.755.177-.33.178-.515.502-.184.324-.184.743 0 .413.184.737.185.323.508.508.33.177.75.177.444 0 .8-.19z" style="font-style:normal;font-variant:normal;font-weight:700;font-stretch:normal;font-size:6.35px;font-family:Montserrat;-inkscape-font-specification:&quot;Montserrat Bold&quot;;fill:#e12420;fill-opacity:1;stroke-width:.264583"/></g><g style="display:inline;fill:#222;fill-opacity:1"><path d="M120.582 268.746c2.505-.298 5.031.16 7.473.705 1.715.383 3.434.913 4.959 1.786 1.508.864 2.947 1.958 4.005 3.336.887 1.154 1.563 2.532 1.837 3.962.293 1.53.073 2.771-.26 4.666.161 1.039.094 1.858-1.09 1.555H112.91c-.553-1.983.025-4.068.503-6.01.922-2.815 1.596-5.894 3.691-8.113.917-1.007 2.223-1.461 3.476-1.888m-.123 8.034c1.812-.039 2.455-2.01 2.31-3.521-.198-1.687-2.327-2.37-3.7-1.601-1.521.582-2.54 2.744-1.286 4.067.638.77 1.688 1.17 2.677 1.055m12.441 1.27c1.696-.241 1.691-2.57.61-3.528-.943-.885-2.641-1.952-3.806-.863-.94.97-1.574 2.95-.12 3.781.955.712 2.18.758 3.316.61" style="fill:#222;fill-opacity:1;stroke-width:1" transform="translate(-99.209 -247.487)"/><path d="M124.063 264.487c4.907-.3 11.444 1.045 13.868 5.059.915 1.132 2.22 3.4 1.094 4.828-1.244 0-2.045-1.734-3.186-2.337-1.521-1.708-3.794-2.301-5.868-3.02-3.734-1.412-8.74-1.99-12.131-.367-.858.705-2.483 2.102-2.515.036-.035-1.84 2.118-2.457 3.521-3.009 1.714-.785 3.395-.95 4.97-1.15l.247-.04" style="fill:#222;fill-opacity:1;stroke-width:1" transform="translate(-99.209 -247.487)"/><path d="M130.113 252.63c1.586-.26 3.708-.498 4.784.97 1.06 1.602 1.11 3.595 1.52 5.412.02 1.8.117 3.6.395 5.364-.15 1.91-2.077 1.04-2.997.26-2.666-1.45-5.844-1.877-8.82-1.446-1.127.16-3.238.956-3.807-.13.57-1.285 1.691-2.255 2.36-3.505 1.23-1.85 2.725-3.478 4.072-5.24.636-.822 1.534-1.327 2.492-1.684" style="fill:#222;fill-opacity:1;stroke-width:1" transform="translate(-99.209 -247.487)"/></g></g></svg>