<svg xmlns="http://www.w3.org/2000/svg" width="200" height="200" viewBox="0 0 52.917 52.917"><g transform="translate(98.049 -95.143)"><rect width="52.917" height="52.917" x="-98.049" y="95.143" rx="3.969" ry="3.969" style="fill:#222;fill-opacity:1;fill-rule:nonzero;stroke:none;stroke-width:.5;stroke-linecap:butt;stroke-linejoin:round;stroke-miterlimit:4;stroke-dasharray:none;stroke-dashoffset:0;stroke-opacity:.909449;paint-order:normal"/><rect width="47.625" height="47.625" x="-95.403" y="97.789" rx="2.646" ry="2.646" style="fill:#7f3980;fill-opacity:1;fill-rule:nonzero;stroke:none;stroke-width:.5;stroke-linecap:butt;stroke-linejoin:round;stroke-miterlimit:4;stroke-dasharray:none;stroke-dashoffset:0;stroke-opacity:.909449;paint-order:normal"/><path d="M-96.594 132.185v8.334a5.544 5.544 0 0 0 5.557 5.557h38.893a5.544 5.544 0 0 0 5.557-5.557v-8.334z" style="fill:#222;fill-opacity:1;fill-rule:nonzero;stroke:none;stroke-width:.5;stroke-linecap:butt;stroke-linejoin:round;stroke-miterlimit:4;stroke-dasharray:none;stroke-dashoffset:0;stroke-opacity:.909449;paint-order:normal"/><path d="M-70.697 106.948c2.292-.4 4.626.058 6.86.57 1.633.45 3.478.697 4.62 2.101 1.026.995 2.032 2.005 2.834 3.192 1.268 1.721 2.348 3.586 3.282 5.512.849 2.185 1.235 4.525 1.445 6.848.077 2.471.018 4.946.037 7.418h-39.227c-1.044-2.034-.617-4.345-.706-6.537.195-2.244.831-4.444 1.622-6.55 2.415-3.881 1.831-1.735 5.213-3.286 4.717-2.777 10.635-5.775 12.76-9.023.41-.29 1.26-.245 1.26-.243m-2.994 20.247c1.039.166 2.776-1.116.989-1.524-1.388.29-3.962-.361-4.437 1.274 1.026.481 2.337.32 3.448.25m2.001-2.43c1.538-.678 1.218-3.525-.257-4.211-1.299-.952-2.78-1.738-4.433-1.72-1.36-.3-2.526.35-3.334 1.384-.947.792-1.729 2.003-1.418 3.286.922.907 2.473.919 3.728.955 1.472.123 2.912-.513 4.358-.016.454.12.87.342 1.355.322m12.433.367c1.173.105 3.855-1.806 1.856-2.345-1.264.952-3.155.578-4.268 1.546-.083 1.163 1.72.742 2.412.8m.021-2.88c1.892-.442 2.153-2.536 1.964-4.168.256-1.68-.773-3.222-2.195-4.01-1.107-1.206-3.272-1.782-4.343-.217-1.632 1.32-1.95 3.734-.996 5.552.405 1.713 1.952 3.13 3.789 2.916.594-.004 1.193.02 1.782-.072" style="fill:#222;fill-opacity:1;stroke-width:1"/><g style="font-style:normal;font-weight:400;font-size:9.87778px;line-height:1.25;font-family:sans-serif;fill:#7f3980;fill-opacity:1;stroke:none;stroke-width:.264583"><path d="M-88.274 142.706q-.82 0-1.59-.217-.76-.227-1.225-.583l.543-1.205q.445.326 1.057.524.612.197 1.225.197.681 0 1.007-.197.326-.208.326-.544 0-.247-.197-.405-.188-.168-.494-.266-.296-.1-.81-.218-.79-.187-1.294-.375t-.87-.603q-.355-.415-.355-1.106 0-.603.326-1.087.326-.493.978-.78.662-.286 1.61-.286.662 0 1.294.158t1.106.454l-.494 1.215q-.958-.543-1.916-.543-.672 0-.997.217-.317.217-.317.573t.366.533q.375.168 1.136.336.79.188 1.294.376.504.187.86.592.365.405.365 1.097 0 .592-.336 1.086-.326.484-.988.77-.662.287-1.61.287zm7.339 0q-1.057 0-1.916-.454-.85-.464-1.344-1.274-.484-.82-.484-1.848 0-1.027.484-1.837.494-.82 1.344-1.274.86-.464 1.926-.464.899 0 1.62.316.73.316 1.225.909l-1.027.948q-.702-.81-1.739-.81-.642 0-1.146.286-.504.277-.79.78-.277.504-.277 1.146 0 .642.277 1.146.286.504.79.79.504.277 1.146.277 1.037 0 1.739-.82l1.027.948q-.494.603-1.225.92-.731.315-1.63.315zm10.273-7.033v6.915h-1.6v-2.835h-3.141v2.835h-1.6v-6.915h1.6v2.726h3.14v-2.726zm1.64 0h1.6v6.915h-1.6zm8.84 5.611v1.304h-6.045v-1.038l3.793-4.573h-3.714v-1.304h5.818v1.037l-3.783 4.574zm4.307 1.422q-1.077 0-1.946-.464-.86-.464-1.353-1.274-.484-.82-.484-1.838 0-1.017.484-1.827.494-.82 1.353-1.284.87-.464 1.946-.464 1.077 0 1.936.464.86.464 1.353 1.284.494.81.494 1.827 0 1.018-.494 1.838-.494.81-1.353 1.274-.86.464-1.936.464zm0-1.363q.612 0 1.106-.277.494-.286.77-.79.287-.504.287-1.146 0-.642-.286-1.145-.277-.504-.77-.78-.495-.287-1.107-.287t-1.106.286q-.494.277-.78.78-.277.504-.277 1.146 0 .642.276 1.146.287.504.78.79.495.277 1.107.277z" aria-label="SCHIZO" style="font-style:normal;font-variant:normal;font-weight:700;font-stretch:normal;font-size:9.87778px;font-family:Montserrat;-inkscape-font-specification:&quot;Montserrat Bold&quot;;fill:#7f3980;fill-opacity:1;stroke-width:.264583"/></g><path d="M-78.82 98.491c-.2.012-.423.183-.46.369-.034.172.297.437.297.437.345.506.25.468-.218.781 0 0-.476.143-.515.345-.042.213.153.498.367.54.203.039.515-.345.515-.345.652-.436.616-.197 1.005.376l.49.72.546.804a74.752 74.752 0 0 0-3.293 1.97l-.485-.715-.49-.72c-.435-.639-.605-.644.025-1.065 0 0 .476-.144.515-.345.042-.213-.153-.498-.367-.54-.203-.039-.515.345-.515.345-.508.34-.485.39-.812-.092 0 0-.123-.404-.297-.437-.215-.041-.502.15-.544.364-.034.172.298.437.298.437.344.506.25.469-.218.781 0 0-.476.143-.516.345-.041.213.153.498.367.54.203.038.515-.345.515-.345.652-.437.616-.197 1.005.376l.49.72.477.701c-1.03.663-1.998 1.322-2.937 1.973l-.478-.704-.49-.721c-.435-.639-.605-.644.025-1.065 0 0 .476-.144.515-.345.042-.213-.153-.498-.367-.54-.203-.039-.514.345-.514.345-.509.34-.486.39-.813-.092 0 0-.123-.403-.297-.437-.215-.041-.502.151-.544.364-.033.172.298.437.298.437.344.506.25.469-.218.781 0 0-.476.143-.515.345-.042.213.152.498.366.54.203.039.515-.345.515-.345.653-.437.616-.197 1.005.376l.49.72.486.714a310.046 310.046 0 0 0-3.093 2.2l-.535-.787-.49-.721c-.434-.64-.605-.644.026-1.065 0 0 .475-.144.515-.345.042-.213-.153-.498-.367-.54-.203-.039-.515.345-.515.345-.508.34-.485.39-.812-.092 0 0-.123-.403-.297-.437-.215-.041-.502.151-.544.364-.033.172.297.437.297.437.345.506.25.469-.218.781 0 0-.475.144-.515.345-.042.213.153.498.367.54.203.039.515-.345.515-.345.653-.437.616-.197 1.005.376l.49.72.547.804c-1.102.79-2.17 1.543-3.167 2.2l-.612-.9-.49-.72c-.435-.64-.605-.644.025-1.066 0 0 .476-.143.515-.345.042-.212-.152-.497-.366-.539-.203-.039-.515.345-.515.345-.509.34-.485.39-.813-.092 0 0-.123-.403-.297-.437-.215-.041-.502.151-.543.364-.034.172.297.437.297.437.344.506.25.469-.218.781 0 0-.476.143-.516.345-.041.213.154.498.367.54.204.039.515-.345.515-.345.652-.437.616-.197 1.006.376l.49.72c1.327 1.879 3.941 5.582 6.177 4.493 2.235-1.089 9.908-5.866 11.705-7.31 1.797-1.443-1.002-4.878-2.62-7.26l-.49-.72c-.435-.64-.606-.645.024-1.066 0 0 .476-.143.516-.345.041-.213-.153-.498-.367-.54-.203-.039-.515.345-.515.345-.508.34-.485.39-.812-.092 0 0-.124-.403-.298-.437a.347.347 0 0 0-.083-.004z" style="fill:#222;fill-opacity:1;stroke-width:.999997"/></g></svg>