<svg xmlns="http://www.w3.org/2000/svg" width="200" height="200" viewBox="0 0 52.917 52.917"><defs><path id="a" d="M-271.6 133.037h74.087v20.486H-271.6z"/></defs><g transform="translate(249.804 -91.41)"><rect width="52.917" height="52.917" x="-249.804" y="91.409" rx="3.969" ry="3.969" style="fill:#222;fill-opacity:1;fill-rule:nonzero;stroke:none;stroke-width:.5;stroke-linecap:butt;stroke-linejoin:round;stroke-miterlimit:4;stroke-dasharray:none;stroke-dashoffset:0;stroke-opacity:.909449;paint-order:normal"/><rect width="47.625" height="47.625" x="-247.159" y="94.055" rx="2.646" ry="2.646" style="fill:red;fill-opacity:1;fill-rule:nonzero;stroke:none;stroke-width:.5;stroke-linecap:butt;stroke-linejoin:round;stroke-miterlimit:4;stroke-dasharray:none;stroke-dashoffset:0;stroke-opacity:.909449;paint-order:normal"/><path d="M-248.35 128.451v8.335a5.544 5.544 0 0 0 5.557 5.556h38.894a5.544 5.544 0 0 0 5.556-5.556v-8.335z" style="fill:#222;fill-opacity:1;fill-rule:nonzero;stroke:none;stroke-width:.5;stroke-linecap:butt;stroke-linejoin:round;stroke-miterlimit:4;stroke-dasharray:none;stroke-dashoffset:0;stroke-opacity:.909449;paint-order:normal"/><g style="stroke-width:1.27287;fill:#222;fill-opacity:1"><path d="M134.74 91.516c1.057-.373 2.297-.117 3.433-.19 1.326-.05 2.607.362 3.938.32 1.96.431 3.96.523 5.963.474 1.36-.012 2.717-.04 4.053.238 3.187.025 6.383.073 9.567-.02 1.157 0 3.402-1.161 3.251.782.271 1.475.715 2.924.647 4.443.42 2.063.155 4.194.23 6.29-.193 1.686-.254 3.481-1.2 4.964-1.12 2.328-3.818 3.596-6.34 3.411-3.264-.022-6.53.048-9.791-.039-3.42-.554-6.943-1.033-10.106-2.524-1.59-.959-3.65-1.581-4.493-3.381-.845-2.054-.939-4.277-.88-6.47-.063-1.74.338-3.431.62-5.14.338-1.056.628-2.156 1.107-3.156m2.36 6.056c1.527-.552 3.19-.575 4.774-.91 1.84.856 1.418-1.09.11-1.462-1.529-1.195-3.783-1.288-5.368-.157-.57.541-2.397 2.08-1.072 2.553a3.687 3.687 0 0 0 1.556-.024m-.855 6.894c.742-.698 2.025-1.692 1.957-2.87-1.018-.298-1.844 1.123-2.392 1.88-.422.45-.296 1.2.435.99m2.172.011c.893-.088 2.435-2.292 1.139-2.416-.538.301-2.458 2.087-1.14 2.416m1.846.26c.653-.42 2.58-1.986 1.052-2.446-.666.623-1.712 1.295-1.764 2.258.192.156.477.158.712.188m15.352 1.59c.861-.288 1.509-1.113 2.058-1.814.232-1.59-1.327-.372-1.772.306-.405.376-1.38 1.3-.286 1.508m2.154.223c.966.004 2.565-1.674 1.434-2.361-.715.55-1.828 1.35-2.182 2.184.182.247.485.197.748.176m1.827.808c.767-.23 2.281-1.78 1.197-2.42-.732.384-2.145 1.653-1.402 2.397l.205.023m1.474-6.981c1.325-.287.553-2.272.052-3.086a3.976 3.976 0 0 0-4.008-1.997c-1.247-.008-2.401.758-3.255 1.594-1.103 1.499 1.561 1.336 2.442 1.639 1.668.38 3.293.986 4.769 1.85M135.4 86.436c1.267.044 2.544.165 3.821.158 2.11.43 4.196 1.036 6.358 1.074 1.74.249 3.48.472 5.236.548 1.79.37 3.565.783 5.342 1.205 2.05.386 4.054 1.065 6.084 1.467-1.39.75-3.07.334-4.6.437-2.348-.05-4.717.16-7.036-.256-2.302-.08-4.63.168-6.903-.248-1.473-.355-3.001-.249-4.487-.533-1.232-.137-2.561.193-3.726-.23-1.268-.438-2.647-.67-3.945-1.108-.796-.45-2.671-.937-2.447-1.956.995-.712 2.354-.34 3.52-.43.927-.03 1.873.082 2.783-.127m1.17-2.308c.727-.233 1.744.182 2.62.052 1.79-.01 3.534.5 5.323.584 1.661.31 3.361.4 5.02.715 2.376.367 4.754.793 7.14 1.145 2.18.657 4.46.925 6.589 1.774 1.778-.21 2.012 2.55.033 1.594-2.834-.58-5.606-1.408-8.44-1.987-1.401-.36-2.839-.563-4.249-.875-2.132-.065-4.22-.583-6.357-.628-1.869-.218-3.665-.865-5.54-.994-.929-.076-2.727.396-2.187-1.174l.048-.204m28.332-1.565c.985.21 1.873 1.152 2.612 1.884.77 1.068 1.146 2.944-.02 3.845-1.377.089-2.62-.747-3.968-.947-.065-.74 1.09-2.059 1.12-3.147.146-.536.058-1.11.256-1.635m-1.755-2.709c.885.375.458 1.645.558 2.45-.031 1.328-.35 2.738-1.137 3.816-.687-.98-.541-2.495-1.022-3.651-.891-1.457.171-2.156 1.463-2.568l.137-.048m-2.333-2.338c1.438-.46 1.678 2.199.106 1.979-.437-.51-.939-1.566-.106-1.98m-2.937-.244c1.077.245 1.376 1.897 1.863 2.832.537 2.074 1.185 4.138 1.442 6.268-1.278.132-2.63-.453-3.913-.692-1.015-.655-1.553-2.13-1.499-3.332-.145-1.744.922-3.258 1.781-4.68.091-.145.192-.289.328-.396m-17.171-4.337c1.72-.355 3.42.338 5.141.416 1.294.283 2.588.571 3.768 1.205 2.167.94 4.424 1.677 6.52 2.758-.287 1.516-1.648 2.71-1.425 4.357a9.664 9.664 0 0 0 .384 3.333c-1.304.357-2.777-.28-4.144-.373-2.21-.447-4.459-.68-6.69-.956-1.934-.22-3.86-.65-5.824-.554-1.203-.283-2.988-.077-3.513-1.47-.34-2.117.886-4.072 2.057-5.72.828-1.433 2.09-2.58 3.725-2.996" style="fill:#222;fill-opacity:1;stroke-width:1.27287" transform="translate(-341.547 42.687) scale(.78563)"/></g><g style="font-style:normal;font-weight:400;font-size:9.87778px;line-height:1.25;font-family:sans-serif;white-space:pre;shape-inside:url(#a);fill:red;fill-opacity:1;stroke:none" transform="translate(25.327 -3.262)"><path d="M-268.508 142.234q-.82 0-1.59-.217-.76-.227-1.225-.583l.543-1.205q.445.326 1.057.524.613.197 1.225.197.682 0 1.008-.197.326-.208.326-.544 0-.247-.198-.405-.188-.168-.494-.266-.296-.1-.81-.218-.79-.187-1.294-.375t-.87-.603q-.355-.414-.355-1.106 0-.602.326-1.086.326-.494.978-.78.662-.287 1.61-.287.662 0 1.294.158t1.106.454l-.493 1.215q-.959-.543-1.917-.543-.671 0-.997.217-.316.217-.316.573t.365.533q.375.168 1.136.336.79.188 1.294.376.504.187.86.592.365.405.365 1.097 0 .592-.336 1.086-.326.484-.988.77-.662.287-1.61.287zm9.384-1.402v1.284h-5.354V135.2h5.226v1.284h-3.635v1.502h3.21v1.244h-3.21v1.6zm5.68 1.284-1.334-1.926h-1.472v1.926h-1.6V135.2h2.993q.919 0 1.59.306.682.307 1.048.87.365.563.365 1.333t-.375 1.334q-.366.553-1.047.85l1.55 2.222zm-.03-4.406q0-.583-.375-.889-.376-.316-1.097-.316h-1.304v2.41h1.304q.721 0 1.097-.316.375-.316.375-.889zm2.884-2.509h1.6v6.915h-1.6zm6.589 7.033q-1.077 0-1.946-.464-.86-.464-1.353-1.274-.484-.82-.484-1.838 0-1.017.484-1.827.494-.82 1.353-1.284.87-.464 1.946-.464 1.077 0 1.936.464.86.464 1.353 1.284.494.81.494 1.827 0 1.018-.494 1.838-.494.81-1.353 1.274-.86.464-1.936.464zm0-1.363q.612 0 1.106-.276.494-.287.77-.79.287-.504.287-1.147 0-.642-.286-1.145-.277-.504-.77-.78-.495-.287-1.107-.287-.613 0-1.106.286-.494.277-.78.78-.277.504-.277 1.146 0 .643.276 1.146.287.504.78.79.494.277 1.107.277zm8.061 1.363q-1.483 0-2.312-.82-.82-.82-.82-2.34V135.2h1.6v3.813q0 1.857 1.541 1.857.75 0 1.146-.444.395-.455.395-1.413V135.2h1.58v3.872q0 1.522-.83 2.341-.82.82-2.3.82zm6.983 0q-.82 0-1.59-.217-.761-.227-1.225-.583l.543-1.205q.444.326 1.057.524.612.197 1.225.197.681 0 1.007-.197.326-.208.326-.544 0-.247-.197-.405-.188-.168-.494-.266-.297-.1-.81-.218-.79-.187-1.294-.375t-.87-.603q-.355-.414-.355-1.106 0-.602.326-1.086.326-.494.978-.78.662-.287 1.61-.287.662 0 1.294.158t1.106.454l-.494 1.215q-.958-.543-1.916-.543-.672 0-.998.217-.316.217-.316.573t.366.533q.375.168 1.136.336.79.188 1.294.376.503.187.859.592.365.405.365 1.097 0 .592-.335 1.086-.326.484-.988.77-.662.287-1.61.287z" aria-label="SERIOUS" style="font-style:normal;font-variant:normal;font-weight:700;font-stretch:normal;font-size:9.87778px;font-family:Montserrat;-inkscape-font-specification:&quot;Montserrat Bold&quot;;fill:red;fill-opacity:1"/></g></g></svg>