<svg xmlns="http://www.w3.org/2000/svg" width="200" height="200" viewBox="0 0 52.917 52.917"><defs><path id="a" d="M-74.613-26.988H0V7.937h-74.613z"/></defs><rect width="52.917" height="52.917" x="-249.804" y="91.409" rx="3.969" ry="3.969" style="fill:#222;fill-opacity:1;fill-rule:nonzero;stroke:none;stroke-width:.5;stroke-linecap:butt;stroke-linejoin:round;stroke-miterlimit:4;stroke-dasharray:none;stroke-dashoffset:0;stroke-opacity:.909449;paint-order:normal" transform="translate(249.804 -91.41)"/><g style="display:inline"><path d="M-244.513 94.055h42.334a2.64 2.64 0 0 1 2.645 2.646v42.333a2.64 2.64 0 0 1-2.645 2.646h-42.334a2.64 2.64 0 0 1-2.646-2.646V96.701a2.64 2.64 0 0 1 2.646-2.646z" style="fill:teal;fill-opacity:1;fill-rule:nonzero;stroke:none;stroke-width:.5;stroke-linecap:butt;stroke-linejoin:round;stroke-miterlimit:4;stroke-dasharray:none;stroke-dashoffset:0;stroke-opacity:.909449;paint-order:normal" transform="translate(249.804 -91.41)"/><path d="M-244.513 94.055h42.334c.732 0 1.394.295 1.872.774l-46.852 33.622v-31.75a2.64 2.64 0 0 1 2.646-2.646z" style="fill:#ffaec9;fill-opacity:1;fill-rule:nonzero;stroke:none;stroke-width:.5;stroke-linecap:butt;stroke-linejoin:round;stroke-miterlimit:4;stroke-dasharray:none;stroke-dashoffset:0;stroke-opacity:.909449;paint-order:normal" transform="translate(249.804 -91.41)"/><path d="M12.832 26.326h7.904v5.821h-7.904z" style="display:inline;fill:#ffaec9;fill-opacity:1;stroke:none;stroke-width:4.99999;stroke-linecap:round;stroke-miterlimit:5.15;paint-order:stroke fill markers"/></g><g style="display:inline"><path d="M1.455 37.042v8.334a5.544 5.544 0 0 0 5.556 5.556h38.894a5.544 5.544 0 0 0 5.556-5.556v-8.334z" style="fill:#222;fill-opacity:1;fill-rule:nonzero;stroke:none;stroke-width:.5;stroke-linecap:butt;stroke-linejoin:round;stroke-miterlimit:4;stroke-dasharray:none;stroke-dashoffset:0;stroke-opacity:.909449;paint-order:normal"/><path d="M40.57 4.856c1.346-.416 2.804.276 3.804 1.152 1.022 1.085.944 3.025-.06 4.11-1.016 1.547-2.62 2.588-3.639 4.134-1.257 1.296-2.598 2.514-3.687 3.959-.716.996-1.66 1.814-2.283 2.875.282 1.11 1.091 2.178 1.382 3.352.688 1.746.627 3.658.996 5.473.167 1.774-.031 3.54-.378 5.272-.469.592-.348 2.152-1.295 2.097H11.966c-.765-1.126-.63-2.604-.995-3.885-.242-2.258.337-4.505.87-6.683.528-2.098 1.9-3.863 3.45-5.324 1.4-.516 1.245-2.124 1.122-3.331-.043-1.882-1.706-.405-2.553 0-1.14.752-2.416 1.533-3.854 1.144-1.387-.403-1.308-2.286-.792-3.358.934-2.48 3.269-3.982 5.368-5.4 1.49-.584 3.029-1.153 4.66-.971 1.81-.24 2.056 1.679 2.123 2.997.114 1.532.381 3.044.636 4.557-.23 1.907 1.78.696 2.813.917 1.502.022 3.015-.084 4.501.16.715-.947.87-2.305 1.666-3.262 1.293-2.252 2.855-4.353 4.562-6.302 1.349-1.418 3.057-2.421 4.665-3.516l.188-.094.174-.072m-22.103 26.24c1.136-.319 1.953-1.894 1.492-2.946-1.314-.03-1.131 2.522-2.813 1.969-1.814.41-2.146-1.334-1.858-2.657-1.45-.438-1.518 2.15-.782 2.917 1.004 1.027 2.663.839 3.961.718m-.02-11.927c1.468-.177.863-2.265.72-3.264.493-1.977-1.562-.777-2.004.086.23 1.02-.023 2.857 1.284 3.178m9.285 12.992c1.357-.132 2.901-1.177 2.737-2.692-1.027-.946-1.364 1.65-2.655 1.533-1.1.302-3.438-.024-2.697-1.7-.05-1.822-1.755-.16-1.215.953-.078 1.526 1.892 1.791 3.034 1.95.266.008.532-.01.796-.044m4.622-12.282c.88-.453 1.326-1.67 2.129-2.335.807-.883 1.535-1.832 2.341-2.718 1.439-1.953 3.688-3.264 4.72-5.522.592-1.789-1.41-1.78-2.16-.635a15.043 15.043 0 0 0-2.453 2.453c-.774.807-1.448 1.702-2.124 2.59-1.433 1.586-2.425 3.486-3.602 5.254-.037.53.775.702 1.149.913" style="fill:#222;fill-opacity:1;stroke-width:1"/><g aria-label="SINCERITY" style="font-weight:700;font-size:8.46667px;line-height:1.25;font-family:Montserrat;-inkscape-font-specification:&quot;Montserrat Bold&quot;;white-space:pre;shape-inside:url(#a);fill:#fff" transform="translate(77.513 66.157)"><path d="M-71.963-19.105q-.703 0-1.363-.186-.652-.195-1.05-.5l.465-1.033q.381.28.906.449.525.17 1.05.17.584 0 .864-.17.28-.178.28-.466 0-.211-.17-.347-.16-.144-.423-.228-.254-.085-.695-.187-.677-.16-1.109-.321-.432-.161-.745-.517-.305-.355-.305-.948 0-.517.28-.931.28-.424.838-.67.567-.245 1.38-.245.567 0 1.11.136.541.135.947.389l-.423 1.041q-.821-.465-1.642-.465-.576 0-.856.186-.27.186-.27.491t.313.457q.321.144.973.288.678.161 1.11.322.431.16.736.508.313.347.313.94 0 .508-.287.931-.28.415-.847.66-.567.246-1.38.246zm3.454-6.028h1.372v5.926h-1.372zm8.213 0v5.926h-1.126l-2.955-3.598v3.598h-1.355v-5.926h1.135l2.946 3.598v-3.598zm4.242 6.028q-.906 0-1.643-.39-.728-.397-1.151-1.092-.415-.702-.415-1.583 0-.88.415-1.575.423-.702 1.151-1.092.737-.398 1.651-.398.77 0 1.389.271.626.271 1.05.779l-.881.813q-.601-.694-1.49-.694-.55 0-.982.245-.432.237-.678.669-.237.432-.237.982t.237.982q.246.432.678.678.431.237.982.237.889 0 1.49-.703l.88.813q-.423.516-1.05.787-.626.271-1.396.271z" style="font-weight:700;font-size:8.46667px;line-height:1.25;font-family:Montserrat;-inkscape-font-specification:&quot;Montserrat Bold&quot;;white-space:pre;shape-inside:url(#a);fill:#ffaec9;fill-opacity:1"/><path d="M-48.096-20.307v1.1h-4.589v-5.926h4.48v1.1h-3.117v1.287h2.752v1.067h-2.752v1.372zm4.869 1.1-1.143-1.65h-1.262v1.65h-1.372v-5.926h2.566q.787 0 1.363.262.584.263.897.745.314.483.314 1.143t-.322 1.143q-.313.474-.897.728l1.329 1.905zm-.026-3.776q0-.5-.322-.762-.321-.27-.94-.27h-1.117v2.065h1.118q.618 0 .94-.27.321-.272.321-.763zm2.473-2.15h1.371v5.926h-1.372zm4.004 1.117h-1.896v-1.117h5.164v1.117h-1.896v4.81h-1.372z" style="font-weight:700;font-size:8.46667px;line-height:1.25;font-family:Montserrat;-inkscape-font-specification:&quot;Montserrat Bold&quot;;white-space:pre;shape-inside:url(#a);fill:teal;fill-opacity:1"/><path d="M-30.036-21.306v2.1h-1.372v-2.117l-2.294-3.81h1.456l1.583 2.633 1.583-2.633h1.347z" style="font-weight:700;font-size:8.46667px;line-height:1.25;font-family:Montserrat;-inkscape-font-specification:&quot;Montserrat Bold&quot;;white-space:pre;shape-inside:url(#a);fill:teal;fill-opacity:1"/></g></g></svg>