<svg xmlns="http://www.w3.org/2000/svg" width="200" height="200" viewBox="0 0 52.917 52.917"><g style="display:inline"><path d="M-245.836 91.41h44.98a3.96 3.96 0 0 1 3.968 3.968v44.98a3.96 3.96 0 0 1-3.969 3.968h-44.979a3.96 3.96 0 0 1-3.968-3.969V95.378a3.96 3.96 0 0 1 3.968-3.969z" style="fill:#222;fill-opacity:1;fill-rule:nonzero;stroke:none;stroke-width:.5;stroke-linecap:butt;stroke-linejoin:round;stroke-miterlimit:4;stroke-dasharray:none;stroke-dashoffset:0;stroke-opacity:.909449;paint-order:normal" transform="translate(249.804 -91.41)"/><path d="M-244.513 94.055h42.334a2.64 2.64 0 0 1 2.645 2.646v42.333a2.64 2.64 0 0 1-2.645 2.646h-42.334a2.64 2.64 0 0 1-2.646-2.646V96.701a2.64 2.64 0 0 1 2.646-2.646z" style="display:inline;fill:#8b5320;fill-opacity:1;fill-rule:nonzero;stroke:none;stroke-width:.5;stroke-linecap:butt;stroke-linejoin:round;stroke-miterlimit:4;stroke-dasharray:none;stroke-dashoffset:0;stroke-opacity:.909449;paint-order:normal" transform="translate(249.804 -91.41)"/><path d="M50.27 11.813v34.83c0 2.01-1.18 3.628-2.645 3.628H5.292c-1.466 0-2.646-1.618-2.646-3.628v-34.83Z" style="display:inline;fill:#000;fill-opacity:1;fill-rule:nonzero;stroke:none;stroke-width:.5;stroke-linecap:butt;stroke-linejoin:round;stroke-miterlimit:4;stroke-dasharray:none;stroke-dashoffset:0;stroke-opacity:.909449;paint-order:normal"/><path d="M50.27 28.656v18.436c0 1.761-1.18 3.179-2.645 3.179H5.292c-1.466 0-2.646-1.418-2.646-3.179V28.656Z" style="display:inline;fill:#8b5320;fill-opacity:1;fill-rule:nonzero;stroke:none;stroke-width:.5;stroke-linecap:butt;stroke-linejoin:round;stroke-miterlimit:4;stroke-dasharray:none;stroke-dashoffset:0;stroke-opacity:.909449;paint-order:normal"/><path d="M-248.35 128.451v8.335a5.544 5.544 0 0 0 5.557 5.556h38.894a5.544 5.544 0 0 0 5.556-5.556v-8.335z" style="display:inline;fill:#222;fill-opacity:1;fill-rule:nonzero;stroke:none;stroke-width:.5;stroke-linecap:butt;stroke-linejoin:round;stroke-miterlimit:4;stroke-dasharray:none;stroke-dashoffset:0;stroke-opacity:.909449;paint-order:normal" transform="translate(249.804 -91.41)"/><path d="m23.003 28.175 4.068-1.65c.655 1.479-.596 3.203-2.666 5.033l-3.238-.833Z" style="fill:#000;fill-opacity:1;stroke-width:1.265;stroke-linecap:round;paint-order:stroke fill markers"/><path d="m34.938 26.712 3.5-3.58c.783 1.593.662.874 1.273 2.198-2.096 7.042-3.202 2.161-5.49 2.233z" style="fill:#8b5320;fill-opacity:1;stroke-width:1.265;stroke-linecap:round;paint-order:stroke fill markers"/><g style="stroke-width:.782683;fill:#222;fill-opacity:1"><path d="M143.961 137.377c1.928-.739 1.804 1.802 1.322 2.928-.533 1.027-.867 2.516-2.028 2.954-1.581.178-3.111-.905-3.62-2.386-.87-1.217-2.489-.192-3.613.044-.773.856-1.136 2.1-2.016 2.93-.913 1.043-2.433.836-3.678.75-1.34-.2-2.832-1.429-2.453-2.91 1.17-.662 2.68-.592 3.954-1.108 2.033-.88 4.231-1.173 6.383-1.59 1.243-.549 2.557-.83 3.885-1.125.641-.092 1.271-.214 1.864-.487m-11.823 6.669c1.115-.275 2.363-.975 2.747-2.126.48-1.567-1.207-1.278-1.238-.021-.2.958-2.885 1.155-1.936 2.079l.194.04.232.028m10.661-2.11c1.22-.454 1.82-2 1.643-3.239-.515-1.53-1.17.55-1.324 1.226-.068.75-2.156 1.966-.319 2.012" style="fill:#222;fill-opacity:1;stroke-width:.782682" transform="translate(-145.518 -152.845) scale(1.27766)"/><path d="M126.761 126.774c1.174-.003 2.088.998 2.882 1.767.821.97 1.624 2.244 3.072 1.527 1.819-.433 3.709-.224 5.562-.258 1.873.3 3.733.967 5.147 2.278 1.05.87 1.954 1.95 2.285 3.302.355.684.841 1.578-.295.883-1.496-.434-2.799.532-4.248.68-1.391.183-2.654.833-4.026 1.067-2.05.38-4.138.724-6.057 1.587-1.227.594-2.814.21-3.833 1.22-.933 1.002-.429 2.675.432 3.577 1.093 1.03 2.632 1.428 4.11 1.315 1.196.064 2.462-.244 3.208-1.253.81-.769 1.194-1.925 1.94-2.677 1.53-.865 2.05.683 3.042 1.458 1.088 1.022 2.794 1.379 4.214.959 1.286-1.033 1.907-2.663 2.358-4.196.026-.716.055-3.19.534-1.27.662 1.7.94 3.515.853 5.337.052 1.387-.184 2.774-.62 4.084-.148.732-.7.827-1.32.742h-25.389c.011-1.817-.023-3.635.018-5.45.297-1.53.552-3.082 1.197-4.51-.594-.953-2.197-1.155-2.432-2.42.168-1.259 1.8-1.507 2.7-2.16 1.335-.311 1.53-1.82 2.552-2.511.755-1.183.484-2.743 1.097-4.009.166-.47.52-.929 1.016-1.07" style="fill:#222;fill-opacity:1;stroke-width:.782682" transform="translate(-145.518 -152.845) scale(1.27766)"/></g><g aria-label="STANDARD" style="font-style:normal;font-weight:400;font-size:7.76111px;line-height:1.25;font-family:sans-serif;fill:#000;fill-opacity:1;stroke:none;stroke-width:.264583"><path d="M5.926 46.797q-.644 0-1.25-.171-.597-.179-.962-.458l.427-.947q.35.256.83.411.482.156.963.156.536 0 .792-.156.256-.163.256-.427 0-.194-.155-.318-.148-.132-.388-.21-.233-.077-.637-.17-.62-.147-1.017-.295-.395-.147-.682-.473-.28-.326-.28-.87 0-.473.256-.853.256-.388.769-.613.52-.226 1.265-.226.52 0 1.016.125.497.124.87.357l-.388.954q-.753-.427-1.506-.427-.528 0-.784.171-.248.17-.248.45t.287.42q.295.131.892.263.621.148 1.017.295.396.148.675.466.287.318.287.861 0 .466-.263.854-.257.38-.777.605-.52.226-1.265.226zm4.214-4.502H8.403v-1.024h4.734v1.024h-1.738v4.408H10.14z" style="font-style:normal;font-variant:normal;font-weight:700;font-stretch:normal;font-size:7.76111px;font-family:Montserrat;-inkscape-font-specification:&quot;Montserrat Bold&quot;;stroke-width:.264583;fill:#8b5320;fill-opacity:1"/><path d="M17.118 45.54h-2.523l-.48 1.163h-1.289l2.421-5.432h1.242l2.43 5.432h-1.32Zm-.396-.955-.861-2.08-.862 2.08Zm7.746-3.315v5.433h-1.033l-2.708-3.298v3.298h-1.242v-5.432h1.04l2.7 3.298v-3.298zm1.288 0h2.468q.885 0 1.56.342.683.334 1.055.947.38.613.38 1.428t-.38 1.428q-.372.613-1.055.955-.675.333-1.56.333h-2.468zm2.406 4.401q.815 0 1.296-.45.489-.458.489-1.234t-.489-1.226q-.481-.458-1.296-.458h-1.149v3.368zm7.505-.131h-2.522l-.482 1.163h-1.288l2.421-5.432h1.242l2.43 5.432h-1.32Zm-.396-.955-.861-2.08-.862 2.08Z" style="font-style:normal;font-variant:normal;font-weight:700;font-stretch:normal;font-size:7.76111px;font-family:Montserrat;-inkscape-font-specification:&quot;Montserrat Bold&quot;;stroke-width:.264583;fill:#ccc"/><path d="m41.495 46.703-1.047-1.513H39.29v1.513h-1.257v-5.432h2.352q.721 0 1.25.24.535.24.822.683.287.443.287 1.048t-.295 1.048q-.287.434-.823.667l1.219 1.746zm-.023-3.461q0-.458-.295-.699-.295-.248-.861-.248H39.29v1.894h1.025q.566 0 .861-.249.295-.248.295-.698zm2.266-1.972h2.468q.885 0 1.56.342.683.334 1.056.947.38.613.38 1.428t-.38 1.428q-.373.613-1.056.955-.675.333-1.56.333h-2.468zm2.406 4.401q.815 0 1.296-.45.49-.458.49-1.234t-.49-1.226q-.48-.458-1.296-.458h-1.148v3.368z" style="font-style:normal;font-variant:normal;font-weight:700;font-stretch:normal;font-size:7.76111px;font-family:Montserrat;-inkscape-font-specification:&quot;Montserrat Bold&quot;;stroke-width:.264583;fill:#8b5320;fill-opacity:1"/></g></g></svg>