<svg xmlns="http://www.w3.org/2000/svg" width="200" height="200" viewBox="0 0 52.917 52.917"><defs><path id="a" d="M-261.711 122.432h44.252v18.322h-44.252z"/></defs><g transform="translate(249.804 -91.41)"><rect width="52.917" height="52.917" x="-249.804" y="91.409" rx="3.969" ry="3.969" style="fill:#222;fill-opacity:1;fill-rule:nonzero;stroke:none;stroke-width:.5;stroke-linecap:butt;stroke-linejoin:round;stroke-miterlimit:4;stroke-dasharray:none;stroke-dashoffset:0;stroke-opacity:.909449;paint-order:normal"/><rect width="47.625" height="47.625" x="-247.159" y="94.055" rx="2.646" ry="2.646" style="fill:#89001c;fill-opacity:1;fill-rule:nonzero;stroke:none;stroke-width:.5;stroke-linecap:butt;stroke-linejoin:round;stroke-miterlimit:4;stroke-dasharray:none;stroke-dashoffset:0;stroke-opacity:.909449;paint-order:normal"/><path d="M-248.35 128.451v8.335a5.544 5.544 0 0 0 5.557 5.556h38.894a5.544 5.544 0 0 0 5.556-5.556v-8.335z" style="fill:#222;fill-opacity:1;fill-rule:nonzero;stroke:none;stroke-width:.5;stroke-linecap:butt;stroke-linejoin:round;stroke-miterlimit:4;stroke-dasharray:none;stroke-dashoffset:0;stroke-opacity:.909449;paint-order:normal"/><g aria-label="WACKY" style="font-style:normal;font-weight:400;font-size:10.5833px;line-height:1.25;font-family:sans-serif;white-space:pre;shape-inside:url(#a);fill:#89001c;fill-opacity:1;stroke:none" transform="translate(17.114 6.942)"><path d="m-249.635 124.75-2.424 7.409h-1.841l-1.63-5.017-1.683 5.017h-1.83l-2.435-7.409h1.778l1.672 5.207 1.746-5.207h1.588l1.693 5.25 1.725-5.25zm5.588 5.821h-3.44l-.656 1.588h-1.757l3.302-7.409h1.693l3.313 7.409h-1.8zm-.54-1.302-1.175-2.836-1.175 2.836zm7.207 3.017q-1.132 0-2.053-.487-.91-.498-1.44-1.365-.518-.879-.518-1.98 0-1.1.519-1.968.529-.878 1.439-1.365.92-.498 2.064-.498.963 0 1.735.339.783.339 1.313.974l-1.101 1.016q-.751-.868-1.863-.868-.688 0-1.227.307-.54.296-.847.836-.296.54-.296 1.228 0 .687.296 1.227.307.54.847.847.54.296 1.227.296 1.112 0 1.863-.878l1.1 1.016q-.529.645-1.312.984-.783.339-1.746.339zm6.91-3.038-.994 1.037v1.874h-1.704v-7.409h1.704v3.461l3.28-3.46h1.906l-3.07 3.301 3.25 4.107h-2z" style="font-style:normal;font-variant:normal;font-weight:700;font-stretch:normal;font-family:Montserrat;-inkscape-font-specification:&quot;Montserrat Bold&quot;;fill:#89001c;fill-opacity:1"/><path d="M-222.32 129.534v2.625h-1.714v-2.646l-2.869-4.763h1.82l1.98 3.292 1.979-3.292h1.683z" style="font-style:normal;font-variant:normal;font-weight:700;font-stretch:normal;font-family:Montserrat;-inkscape-font-specification:&quot;Montserrat Bold&quot;;fill:#89001c;fill-opacity:1"/></g><path d="M99.186 31.75a60.685 58 0 0 0-60.686 58 60.685 58 0 0 0 60.686 58 60.685 58 0 0 0 60.683-58 60.685 58 0 0 0-60.683-58zm-.004 35.613c11.167 0 21.3 2.269 28.841 6.112 7.542 3.842 12.801 9.486 12.801 16.277 0 6.79-5.26 12.427-12.8 16.27-7.542 3.842-17.675 6.119-28.842 6.119-11.168 0-21.293-2.277-28.834-6.12-7.541-3.842-12.807-9.478-12.807-16.269 0-6.79 5.266-12.435 12.807-16.277 7.54-3.843 17.666-6.112 28.834-6.112zm0 4.776c-10.51 0-19.998 2.207-26.662 5.603-6.665 3.396-10.196 7.755-10.196 12.01s3.53 8.614 10.196 12.01c6.664 3.396 16.152 5.595 26.662 5.595 10.51 0 20.007-2.2 26.672-5.595 6.664-3.396 10.193-7.755 10.193-12.01s-3.529-8.614-10.193-12.01c-6.665-3.396-16.163-5.603-26.672-5.603zm-.12 7.736a10.375 9.875 0 0 1 .124 0 10.375 9.875 0 0 1 10.375 9.875 10.375 9.875 0 0 1-10.375 9.875A10.375 9.875 0 0 1 88.81 89.75a10.375 9.875 0 0 1 10.251-9.875z" style="fill:#222;fill-opacity:1;stroke:none;stroke-width:4.7811;stroke-linecap:round;paint-order:stroke fill markers" transform="translate(-249.804 91.41) scale(.26458)"/></g></svg>