<svg xmlns="http://www.w3.org/2000/svg" width="200" height="200" viewBox="0 0 52.917 52.917"><defs><path id="a" d="M-144.351 130.465h86.916v21.034h-86.916z"/></defs><g transform="translate(98.049 -95.143)"><rect width="52.917" height="52.917" x="-98.049" y="95.143" rx="3.969" ry="3.969" style="fill:#222;fill-opacity:1;fill-rule:nonzero;stroke:none;stroke-width:.5;stroke-linecap:butt;stroke-linejoin:round;stroke-miterlimit:4;stroke-dasharray:none;stroke-dashoffset:0;stroke-opacity:.909449;paint-order:normal"/><rect width="47.625" height="47.625" x="-95.403" y="97.789" rx="2.646" ry="2.646" style="fill:#c000ff;fill-opacity:1;fill-rule:nonzero;stroke:none;stroke-width:.5;stroke-linecap:butt;stroke-linejoin:round;stroke-miterlimit:4;stroke-dasharray:none;stroke-dashoffset:0;stroke-opacity:.909449;paint-order:normal"/><path d="M-96.594 132.185v8.334a5.544 5.544 0 0 0 5.557 5.557h38.893a5.544 5.544 0 0 0 5.557-5.557v-8.334z" style="fill:#222;fill-opacity:1;fill-rule:nonzero;stroke:none;stroke-width:.5;stroke-linecap:butt;stroke-linejoin:round;stroke-miterlimit:4;stroke-dasharray:none;stroke-dashoffset:0;stroke-opacity:.909449;paint-order:normal"/><path d="M132.26 55.063c1.626-.378 3.356-.127 5.031-.2 7.013.016 14.028-.032 21.04.024 1.247.269 1.61 1.821 2.21 2.811 1.341 2.389 1.74 5.172 1.625 7.878.005 1.768.056 3.536-.247 5.282-.272 2.522-.932 5.095-2.296 7.258-1.304 1.917-3.772 2.23-5.91 2.14-2.49-.043-4.995.097-7.475-.092-1.259-.246-2.561-.14-3.819-.42-2.86-.281-5.64-1.114-8.38-1.954-1.435-.588-2.995-1.071-4.039-2.289-1.707-1.142-2.65-3.182-2.992-5.16.019-2.5-.308-5.105.725-7.465.493-1.91 1.41-3.671 2.23-5.455.715-.848 1.271-1.835 2.297-2.358m10.961 15.315c1.34-.29 2.06-1.545 2.413-2.77.938-.862.086-3.907-.627-1.774-.436 1.24-.715 2.842-2.02 3.471-1.46.571-2.917-.451-2.905-2.004-.262-1.308.303-2.628.805-3.731-1.108-1.165-1.919 1.112-1.883 2.028-.21 1.66-.065 3.978 1.754 4.698.784.2 1.666.232 2.463.082m13.273 1.636c1.93-.369 2.893-2.52 2.764-4.322-.072-.707.278-1.801-.615-2.075-1.172.678.096 2.552-.762 3.615-.298 1.61-2.456 2.168-3.747 1.46-1.444-1.098-1.215-2.98-1.23-4.583-.093-1.963-1.563.191-1.052 1.175-.073 1.418.02 2.96 1.177 3.963.794 1.123 2.292.77 3.466.767m1.423-22.287c.993.108.387 1.796.545 2.623.433 1.597-1.11 1.547-2.226 1.455-7.685-.015-15.372.03-23.056-.024-.99-.355-1.288-2.688-.182-3.223 1.461-.183 2.932-.442 4.414-.456 2.48-.035 4.97.075 7.444-.07 2.527-.36 5.104-.128 7.655-.195 1.8-.042 3.616.103 5.406-.11m-15.331-18.75c1.693-.66 2.953 1.019 4.184 1.88 1.125.994 2.419 1.767 3.561 2.737 1.197.916 2.076 2.206 3.366 2.998.943.906 1.635 2.024 2.605 2.91.9.988 1.608 2.16 1.367 3.563.044 1.269-.272 2.736-1.268 3.565-2.82.286-5.673.092-8.508.15-1.375-.022-2.747-.025-4.096.254-2.73.058-5.47-.07-8.194.07-1.27.426-2.99.34-3.362-1.221-.315-1.333-.413-2.888.177-4.166 1.139-2.316 2.387-4.583 3.842-6.715 1.221-1.422 2.267-3.018 3.745-4.203.838-.651 1.634-1.326 2.581-1.822" style="fill:#222;fill-opacity:1;stroke-width:1.46875" transform="rotate(-7.999 578.725 1302.944) scale(.68085)"/><g style="font-style:normal;font-weight:400;font-size:6.35px;line-height:1.25;font-family:sans-serif;white-space:pre;shape-inside:url(#a);fill:#c000ff;fill-opacity:1;stroke:none" transform="translate(50.031 5.052)"><path d="m-137.106 131.856-1.454 4.445h-1.105l-.978-3.01-1.01 3.01h-1.098l-1.46-4.445h1.066l1.003 3.124 1.048-3.124h.952l1.016 3.15 1.036-3.15zm4.648 0v4.445h-1.029v-1.822h-2.019v1.822h-1.029v-4.445h1.029v1.753h2.02v-1.753zm3.207 4.521q-.692 0-1.251-.298-.553-.299-.87-.82-.311-.526-.311-1.18 0-.654.31-1.175.318-.527.87-.826.56-.298 1.252-.298t1.244.298q.553.299.87.826.318.52.318 1.175 0 .654-.318 1.18-.317.521-.87.82-.552.298-1.244.298zm0-.876q.393 0 .71-.178.318-.184.496-.508.184-.324.184-.736 0-.413-.184-.737-.178-.324-.495-.502-.318-.184-.711-.184-.394 0-.711.184-.318.178-.502.502-.178.324-.178.737 0 .412.178.736.184.324.502.508.317.178.71.178zm3.206-3.645h1.03v3.607h2.228v.838h-3.258zm7.278 3.62v.825h-3.442v-4.445h3.359v.826h-2.337v.965h2.064v.8h-2.064v1.029zm2.279.901q-.527 0-1.022-.14-.49-.145-.788-.374l.35-.775q.285.21.68.337.393.127.787.127.438 0 .647-.127.21-.134.21-.35 0-.158-.127-.26-.12-.108-.318-.171-.19-.064-.52-.14-.508-.12-.832-.241-.324-.12-.56-.388-.228-.266-.228-.71 0-.388.21-.7.21-.317.629-.501.425-.184 1.035-.184.425 0 .831.101.407.102.712.293l-.318.78q-.616-.349-1.232-.349-.432 0-.641.14-.203.14-.203.368 0 .229.235.343.24.108.73.216.508.12.832.241.324.121.552.381.235.26.235.705 0 .381-.216.699-.21.311-.635.495-.425.184-1.035.184zm4.744 0q-.693 0-1.251-.298-.553-.299-.87-.82-.311-.526-.311-1.18 0-.654.31-1.175.318-.527.87-.826.56-.298 1.252-.298t1.244.298q.553.299.87.826.318.52.318 1.175 0 .654-.318 1.18-.317.521-.87.82-.552.298-1.244.298zm0-.876q.393 0 .71-.178.318-.184.496-.508.184-.324.184-.736 0-.413-.184-.737-.178-.324-.495-.502-.318-.184-.711-.184-.394 0-.712.184-.317.178-.501.502-.178.324-.178.737 0 .412.178.736.184.324.501.508.318.178.712.178zm7.251.8-.006-2.667-1.308 2.197h-.463l-1.302-2.14v2.61h-.965v-4.445h.85l1.664 2.762 1.639-2.762h.844l.013 4.445zm5.461-.825v.825h-3.441v-4.445h3.359v.826h-2.337v.965h2.064v.8h-2.064v1.029z" aria-label="WHOLESOME" style="font-style:normal;font-variant:normal;font-weight:700;font-stretch:normal;font-size:6.35px;font-family:Montserrat;-inkscape-font-specification:&quot;Montserrat Bold&quot;;fill:#c000ff;fill-opacity:1"/></g></g></svg>